SplineFontDB: 3.2
FontName: NotoSans-Qin
FullName: Noto Qin Jianzipu
FamilyName: Noto Qin Jianzipu
Weight: Book
Copyright: (c) 2014-2020 Adobe (http://www.adobe.com/). \n(c) Yijun Hu (https://yijun.hu) 
Version: 1.1.2
ItalicAngle: 0
UnderlinePosition: -119
UnderlineWidth: 35
Ascent: 819
Descent: 205
InvalidEm: 0
sfntRevision: 0x00010000
LayerCount: 2
Layer: 0 1 "Back" 1
Layer: 1 1 "Fore" 0
XUID: [1021 570 -1014863371 433]
StyleMap: 0x0040
FSType: 0
OS2Version: 2
OS2_WeightWidthSlopeOnly: 0
OS2_UseTypoMetrics: 0
CreationTime: 1626014431
ModificationTime: 1642765881
PfmFamily: 81
TTFWeight: 400
TTFWidth: 5
LineGap: 0
VLineGap: 0
Panose: 0 0 0 0 0 0 0 0 0 0
OS2TypoAscent: 1188
OS2TypoAOffset: 0
OS2TypoDescent: -295
OS2TypoDOffset: 0
OS2TypoLinegap: 0
OS2WinAscent: 1188
OS2WinAOffset: 0
OS2WinDescent: 295
OS2WinDOffset: 0
HheadAscent: 1188
HheadAOffset: 0
HheadDescent: -295
HheadDOffset: 0
OS2SubXSize: 650
OS2SubYSize: 700
OS2SubXOff: 47
OS2SubYOff: 140
OS2SupXSize: 650
OS2SupYSize: 700
OS2SupXOff: -164
OS2SupYOff: 480
OS2StrikeYSize: 49
OS2StrikeYPos: 258
OS2CapHeight: 1188
OS2XHeight: 556
OS2Vendor: 'Bird'
OS2CodePages: 203f00ff.dffd0000
OS2UnicodeRanges: 00000001.00000000.00000000.00000000
Lookup: 4 0 0 "Ligature Substitution lookup 0" { "Ligature Substitution lookup 0 subtable"  } []
Lookup: 6 0 0 "'clig' Contextual Ligatures lookup 1" { "'clig' Contextual Ligatures lookup 1 subtable"  } ['clig' ('DFLT' <'dflt' > ) ]
Lookup: 4 0 0 "'clig' Contextual Ligatures lookup 2" { "'clig' Contextual Ligatures lookup 2 subtable"  } ['clig' ('DFLT' <'dflt' > ) ]
Lookup: 258 0 0 "'kern' Horizontal Kerning lookup 0" { "'kern' Horizontal Kerning lookup 0 subtable"  } [' RQD' ('DFLT' <'dflt' > ) 'kern' ('DFLT' <'dflt' > ) ]
DEI: 91125
ChainSub2: coverage "'clig' Contextual Ligatures lookup 1 subtable" 0 0 0 1
 2 0 0
  Coverage: 3 bar
  Coverage: 3 bar
 1
  SeqLookup: 0 "Ligature Substitution lookup 0"
EndFPST
ShortTable: maxp 16
  1
  0
  31051
  966
  41
  0
  0
  1
  0
  0
  0

StartChar: .notdef
Encoding: 1114112 -1 0
Width: 543
Flags: HW
LayerCount: 2
Fore
SplineSet
51 102 m 1,0,1
 358 102 l 1,2,3
 358 649 l 1,4,5
 51 649 l 1,6,7
 51 102 l 1,0,1
0 700 m 1,8,9
 410 700 l 1,10,11
 410 51 l 1,12,13
 0 51 l 1,14,15
 0 700 l 1,8,9
EndSplineSet
EndChar

StartChar: exclam
Encoding: 33 33 4
Width: 323
VWidth: 1000
Flags: W
LayerCount: 2
Fore
SplineSet
118 645 m 1,0,0
 130 221 l 1,0,0
 193 221 l 1,0,0
 205 645 l 1,0,0
 208 749 l 1,0,0
 115 749 l 1,0,0
 118 645 l 1,0,0
95 56 m 0,0,0
 95 26 95 26 114 6.5 c 0
 133 -13 133 -13 161 -13 c 0,0,0
 189 -13 189 -13 208 6.5 c 0
 227 26 227 26 227 56 c 0,0,0
 227 87 227 87 208 107 c 0
 189 127 189 127 161 127 c 0,0,0
 133 127 133 127 114 107 c 0
 95 87 95 87 95 56 c 0,0,0
EndSplineSet
EndChar

StartChar: quotedbl
Encoding: 34 34 5
Width: 475
VWidth: 1000
Flags: W
LayerCount: 2
Fore
SplineSet
92 668 m 1,0,0
 110 483 l 1,0,0
 166 483 l 1,0,0
 184 668 l 1,0,0
 186 771 l 1,0,0
 90 771 l 1,0,0
 92 668 l 1,0,0
289 668 m 1,0,0
 307 483 l 1,0,0
 362 483 l 1,0,0
 381 668 l 1,0,0
 383 771 l 1,0,0
 286 771 l 1,0,0
 289 668 l 1,0,0
EndSplineSet
EndChar

StartChar: numbersign
Encoding: 35 35 6
Width: 555
VWidth: 1000
Flags: W
LayerCount: 2
Fore
SplineSet
128 228 m 1,0,0
 101 0 l 1,0,0
 160 0 l 1,0,0
 188 228 l 1,0,0
 336 228 l 1,0,0
 309 0 l 1,0,0
 369 0 l 1,0,0
 396 228 l 1,0,0
 499 228 l 1,0,0
 499 292 l 1,0,0
 404 292 l 1,0,0
 425 458 l 1,0,0
 522 458 l 1,0,0
 522 521 l 1,0,0
 432 521 l 1,0,0
 458 727 l 1,0,0
 399 727 l 1,0,0
 372 521 l 1,0,0
 224 521 l 1,0,0
 249 727 l 1,0,0
 190 727 l 1,0,0
 164 521 l 1,0,0
 62 521 l 1,0,0
 62 458 l 1,0,0
 157 458 l 1,0,0
 136 292 l 1,0,0
 40 292 l 1,0,0
 40 228 l 1,0,0
 128 228 l 1,0,0
344 292 m 1,0,0
 196 292 l 1,0,0
 216 458 l 1,0,0
 365 458 l 1,0,0
 344 292 l 1,0,0
EndSplineSet
EndChar

StartChar: dollar
Encoding: 36 36 7
Width: 555
VWidth: 1000
Flags: W
LayerCount: 2
Fore
SplineSet
249 -12 m 1,0,0
 249 -123 l 1,0,0
 315 -123 l 1,0,0
 315 -10 l 1,0,0
 395 1 395 1 441.5 53 c 0
 488 105 488 105 488 184 c 0,0,0
 488 233 488 233 470.5 270.5 c 0
 453 308 453 308 425.5 331.5 c 0
 398 355 398 355 365 374 c 0
 332 393 332 393 298.5 408.5 c 0
 265 424 265 424 237.5 441 c 0
 210 458 210 458 192.5 483.5 c 0
 175 509 175 509 175 542 c 0,0,0
 175 591 175 591 205.5 620.5 c 0
 236 650 236 650 288 650 c 0,0,0
 331 650 331 650 360.5 635 c 0
 390 620 390 620 424 587 c 1,0,0
 473 641 l 1,0,0
 402 716 402 716 315 724 c 1,0,0
 315 836 l 1,0,0
 249 836 l 1,0,0
 249 723 l 1,0,0
 176 712 176 712 131 662 c 0
 86 612 86 612 86 538 c 0,0,0
 86 487 86 487 109 448.5 c 0
 132 410 132 410 167 388.5 c 0
 202 367 202 367 242.5 344.5 c 0
 283 322 283 322 318 303.5 c 0
 353 285 353 285 376 252.5 c 0
 399 220 399 220 399 178 c 0,0,0
 399 124 399 124 366.5 93.5 c 0
 334 63 334 63 273 63 c 0,0,0
 187 63 187 63 101 136 c 1,0,0
 58 74 l 1,0,0
 140 -1 140 -1 249 -12 c 1,0,0
EndSplineSet
EndChar

StartChar: percent
Encoding: 37 37 8
Width: 921
VWidth: 1000
Flags: W
LayerCount: 2
Fore
SplineSet
39 517 m 0,0,0
 39 407 39 407 84 345.5 c 0
 129 284 129 284 205 284 c 0,0,0
 282 284 282 284 327 345.5 c 0
 372 407 372 407 372 517 c 0,0,0
 372 626 372 626 327 686.5 c 0
 282 747 282 747 205 747 c 0,0,0
 129 747 129 747 84 686.5 c 0
 39 626 39 626 39 517 c 0,0,0
303 517 m 0,0,0
 303 432 303 432 276.5 386.5 c 0
 250 341 250 341 205 341 c 0,0,0
 161 341 161 341 134.5 386.5 c 0
 108 432 108 432 108 517 c 0,0,0
 108 602 108 602 134.5 646.5 c 0
 161 691 161 691 205 691 c 0,0,0
 250 691 250 691 276.5 646.5 c 0
 303 602 303 602 303 517 c 0,0,0
631 747 m 1,0,0
 227 -13 l 1,0,0
 288 -13 l 1,0,0
 693 747 l 1,0,0
 631 747 l 1,0,0
549 219 m 0,0,0
 549 110 549 110 594.5 48.5 c 0
 640 -13 640 -13 716 -13 c 0,0,0
 792 -13 792 -13 837 48 c 0
 882 109 882 109 882 219 c 0,0,0
 882 328 882 328 837 388.5 c 0
 792 449 792 449 716 449 c 0,0,0
 640 449 640 449 594.5 388.5 c 0
 549 328 549 328 549 219 c 0,0,0
813 219 m 0,0,0
 813 134 813 134 786.5 88.5 c 0
 760 43 760 43 716 43 c 0,0,0
 671 43 671 43 645 88 c 0
 619 133 619 133 619 219 c 0,0,0
 619 304 619 304 645 348.5 c 0
 671 393 671 393 716 393 c 0,0,0
 760 393 760 393 786.5 348.5 c 0
 813 304 813 304 813 219 c 0,0,0
EndSplineSet
EndChar

StartChar: ampersand
Encoding: 38 38 9
Width: 680
VWidth: 1000
Flags: W
LayerCount: 2
Fore
SplineSet
246 445 m 1,0,0
 211 517 211 517 211 575 c 0,0,0
 211 622 211 622 236 652 c 0
 261 682 261 682 302 682 c 0,0,0
 337 682 337 682 354 658.5 c 0
 371 635 371 635 371 600 c 0,0,0
 371 556 371 556 339 521 c 0
 307 486 307 486 246 445 c 1,0,0
36 190 m 0,0,0
 36 101 36 101 98 44 c 0
 160 -13 160 -13 259 -13 c 0,0,0
 379 -13 379 -13 471 71 c 1,0,0
 559 9 559 9 639 -13 c 1,0,0
 663 63 l 1,0,0
 601 80 601 80 526 133 c 1,0,0
 609 240 609 240 654 395 c 1,0,0
 570 395 l 1,0,0
 535 268 535 268 466 178 c 1,0,0
 352 271 352 271 280 385 c 1,0,0
 333 423 333 423 362 447.5 c 0
 391 472 391 472 418 514.5 c 0
 445 557 445 557 445 602 c 0,0,0
 445 667 445 667 406.5 707 c 0
 368 747 368 747 301 747 c 0,0,0
 226 747 226 747 179 697.5 c 0
 132 648 132 648 132 573 c 0,0,0
 132 496 132 496 180 402 c 1,0,0
 112 355 112 355 74 306 c 0
 36 257 36 257 36 190 c 0,0,0
270 60 m 0,0,0
 208 60 208 60 166.5 97.5 c 0
 125 135 125 135 125 195 c 0,0,0
 125 264 125 264 217 338 c 1,0,0
 295 220 295 220 410 119 c 1,0,0
 341 60 341 60 270 60 c 0,0,0
EndSplineSet
EndChar

StartChar: quotesingle
Encoding: 39 39 10
Width: 278
VWidth: 1000
Flags: W
LayerCount: 2
Fore
SplineSet
92 668 m 1,0,0
 110 483 l 1,0,0
 166 483 l 1,0,0
 184 668 l 1,0,0
 186 771 l 1,0,0
 90 771 l 1,0,0
 92 668 l 1,0,0
EndSplineSet
EndChar

StartChar: parenleft
Encoding: 40 40 11
Width: 338
VWidth: 1000
Flags: W
LayerCount: 2
Fore
SplineSet
92 311 m 0,0,0
 92 43 92 43 239 -197 c 1,0,0
 296 -170 l 1,0,0
 168 39 168 39 168 311 c 0,0,0
 168 582 168 582 296 792 c 1,0,0
 239 818 l 1,0,0
 92 580 92 580 92 311 c 0,0,0
EndSplineSet
EndChar

StartChar: parenright
Encoding: 41 41 12
Width: 338
VWidth: 1000
Flags: W
LayerCount: 2
Fore
SplineSet
43 -170 m 1,0,0
 99 -197 l 1,0,0
 247 42 247 42 247 311 c 0,0,0
 247 581 247 581 99 818 c 1,0,0
 91 814 91 814 80.5 809.5 c 0
 70 805 70 805 58.5 799.5 c 0
 47 794 47 794 43 792 c 1,0,0
 171 579 171 579 171 311 c 0,0,0
 171 41 171 41 43 -170 c 1,0,0
EndSplineSet
EndChar

StartChar: asterisk
Encoding: 42 42 13
Width: 467
VWidth: 1000
Flags: W
LayerCount: 2
Fore
SplineSet
110 503 m 1,0,0
 154 471 l 1,0,0
 233 566 l 1,0,0
 312 471 l 1,0,0
 356 503 l 1,0,0
 292 607 l 1,0,0
 401 652 l 1,0,0
 384 703 l 1,0,0
 270 676 l 1,0,0
 260 796 l 1,0,0
 206 796 l 1,0,0
 196 675 l 1,0,0
 82 703 l 1,0,0
 65 652 l 1,0,0
 173 607 l 1,0,0
 110 503 l 1,0,0
EndSplineSet
EndChar

StartChar: plus
Encoding: 43 43 14
Width: 555
VWidth: 1000
Flags: W
LayerCount: 2
Fore
SplineSet
241 335 m 1,0,0
 241 116 l 1,0,0
 314 116 l 1,0,0
 314 335 l 1,0,0
 517 335 l 1,0,0
 517 403 l 1,0,0
 314 403 l 1,0,0
 314 622 l 1,0,0
 241 622 l 1,0,0
 241 403 l 1,0,0
 38 403 l 1,0,0
 38 335 l 1,0,0
 241 335 l 1,0,0
EndSplineSet
EndChar

StartChar: comma
Encoding: 44 44 15
Width: 278
VWidth: 1000
Flags: W
LayerCount: 2
Fore
SplineSet
53 -136 m 1,0,0
 56 -144 56 -144 60 -154 c 0
 64 -164 64 -164 68.5 -175 c 0
 73 -186 73 -186 75 -190 c 1,0,0
 143 -161 143 -161 182 -106.5 c 0
 221 -52 221 -52 221 19 c 0,0,0
 221 69 221 69 200.5 98 c 0
 180 127 180 127 144 127 c 0,0,0
 115 127 115 127 95 109 c 0
 75 91 75 91 75 63 c 0,0,0
 75 33 75 33 94.5 16 c 0
 114 -1 114 -1 142 -1 c 0,0,0
 149 -1 149 -1 153 0 c 1,0,0
 153 -44 153 -44 127 -79.5 c 0
 101 -115 101 -115 53 -136 c 1,0,0
EndSplineSet
EndChar

StartChar: hyphen
Encoding: 45 45 16
Width: 347
VWidth: 1000
Flags: W
LayerCount: 2
Fore
SplineSet
46 315 m 1,0,0
 46 245 l 1,0,0
 302 245 l 1,0,0
 302 315 l 1,0,0
 46 315 l 1,0,0
EndSplineSet
EndChar

StartChar: period
Encoding: 46 46 17
Width: 278
VWidth: 1000
Flags: W
LayerCount: 2
Fore
SplineSet
73 56 m 0,0,0
 73 26 73 26 92 6.5 c 0
 111 -13 111 -13 139 -13 c 0,0,0
 167 -13 167 -13 186 6.5 c 0
 205 26 205 26 205 56 c 0,0,0
 205 87 205 87 186 107 c 0
 167 127 167 127 139 127 c 0,0,0
 111 127 111 127 92 107 c 0
 73 87 73 87 73 56 c 0,0,0
EndSplineSet
EndChar

StartChar: slash
Encoding: 47 47 18
Width: 392
VWidth: 1000
Flags: W
LayerCount: 2
Fore
SplineSet
311 794 m 1,0,0
 11 -179 l 1,0,0
 78 -179 l 1,0,0
 377 794 l 1,0,0
 311 794 l 1,0,0
EndSplineSet
EndChar

StartChar: zero
Encoding: 48 48 19
Width: 555
VWidth: 1000
Flags: W
LayerCount: 2
Fore
SplineSet
49 369 m 0,0,0
 49 182 49 182 110 84.5 c 0
 171 -13 171 -13 278 -13 c 0,0,0
 385 -13 385 -13 445.5 84.5 c 0
 506 182 506 182 506 369 c 0,0,0
 506 555 506 555 445.5 651 c 0
 385 747 385 747 278 747 c 0,0,0
 170 747 170 747 109.5 651.5 c 0
 49 556 49 556 49 369 c 0,0,0
417 369 m 0,0,0
 417 213 417 213 380 136.5 c 0
 343 60 343 60 278 60 c 0,0,0
 212 60 212 60 175 136 c 0
 138 212 138 212 138 369 c 0,0,0
 138 524 138 524 175 599 c 0
 212 674 212 674 278 674 c 0,0,0
 343 674 343 674 380 599 c 0
 417 524 417 524 417 369 c 0,0,0
EndSplineSet
EndChar

StartChar: one
Encoding: 49 49 20
Width: 555
VWidth: 1000
Flags: W
LayerCount: 2
Fore
SplineSet
88 76 m 1,0,0
 88 0 l 1,0,0
 490 0 l 1,0,0
 490 76 l 1,0,0
 343 76 l 1,0,0
 343 734 l 1,0,0
 273 734 l 1,0,0
 213 698 213 698 121 681 c 1,0,0
 121 623 l 1,0,0
 251 623 l 1,0,0
 251 76 l 1,0,0
 88 76 l 1,0,0
EndSplineSet
EndChar

StartChar: two
Encoding: 50 50 21
Width: 555
VWidth: 1000
Flags: W
LayerCount: 2
Fore
SplineSet
44 54 m 1,0,0
 44 0 l 1,0,0
 505 0 l 1,0,0
 505 79 l 1,0,0
 302 79 l 2,0,0
 271 79 271 79 182 72 c 1,0,0
 322 205 322 205 395.5 316 c 0
 469 427 469 427 469 530 c 0,0,0
 469 629 469 629 411.5 688 c 0
 354 747 354 747 256 747 c 0,0,0
 190 747 190 747 139.5 719.5 c 0
 89 692 89 692 40 639 c 1,0,0
 93 587 l 1,0,0
 164 672 164 672 245 672 c 0,0,0
 311 672 311 672 345.5 632.5 c 0
 380 593 380 593 380 527 c 0,0,0
 380 433 380 433 299 319.5 c 0
 218 206 218 206 44 54 c 1,0,0
EndSplineSet
EndChar

StartChar: three
Encoding: 51 51 22
Width: 555
VWidth: 1000
Flags: W
LayerCount: 2
Fore
SplineSet
29 87 m 1,0,0
 121 -13 121 -13 264 -13 c 0,0,0
 365 -13 365 -13 432 43.5 c 0
 499 100 499 100 499 196 c 0,0,0
 499 268 499 268 455.5 317 c 0
 412 366 412 366 344 382 c 1,0,0
 344 386 l 1,0,0
 404 409 404 409 439 454 c 0
 474 499 474 499 474 563 c 0,0,0
 474 648 474 648 414.5 697.5 c 0
 355 747 355 747 261 747 c 0,0,0
 151 747 151 747 56 659 c 1,0,0
 105 601 l 1,0,0
 174 672 174 672 257 672 c 0,0,0
 314 672 314 672 347.5 640.5 c 0
 381 609 381 609 381 556 c 0,0,0
 381 416 381 416 178 416 c 1,0,0
 178 346 l 1,0,0
 406 346 406 346 406 200 c 0,0,0
 406 137 406 137 364.5 100 c 0
 323 63 323 63 257 63 c 0,0,0
 155 63 155 63 75 147 c 1,0,0
 29 87 l 1,0,0
EndSplineSet
EndChar

StartChar: four
Encoding: 52 52 23
Width: 555
VWidth: 1000
Flags: W
LayerCount: 2
Fore
SplineSet
340 275 m 1,0,0
 115 275 l 1,0,0
 282 525 l 1,0,0
 317 585 317 585 341 633 c 1,0,0
 345 633 l 1,0,0
 340 538 340 538 340 500 c 2,0,0
 340 275 l 1,0,0
340 202 m 1,0,0
 340 0 l 1,0,0
 426 0 l 1,0,0
 426 202 l 1,0,0
 523 202 l 1,0,0
 523 275 l 1,0,0
 426 275 l 1,0,0
 426 734 l 1,0,0
 325 734 l 1,0,0
 20 262 l 1,0,0
 20 202 l 1,0,0
 340 202 l 1,0,0
EndSplineSet
EndChar

StartChar: five
Encoding: 53 53 24
Width: 555
VWidth: 1000
Flags: W
LayerCount: 2
Fore
SplineSet
28 84 m 1,0,0
 125 -13 125 -13 261 -13 c 0,0,0
 359 -13 359 -13 430 55 c 0
 501 123 501 123 501 239 c 0,0,0
 501 354 501 354 439 413 c 0
 377 472 377 472 280 472 c 0,0,0
 224 472 224 472 171 443 c 1,0,0
 171.080739241 443.95093317 l 1
 171.161631029 444.90366293 l 1
 171.242673566 445.85816811 l 1
 171.323865066 446.814427646 l 1
 171.405203746 447.772420576 l 1
 171.486687838 448.732126043 l 1
 171.568315577 449.693523285 l 1
 171.650085209 450.65659164 l 1
 171.731994989 451.621310541 l 1
 171.814043177 452.587659512 l 1
 171.896228042 453.555618169 l 1
 171.978547863 454.525166218 l 1
 172.14358551 456.468949737 l 1
 172.226299927 457.443145042 l 1
 172.309142477 458.418849401 l 1
 172.392111472 459.396042932 l 1
 172.475205231 460.374705829 l 1
 172.558422077 461.35481836 l 1
 172.641760343 462.336360867 l 1
 172.725218364 463.31931376 l 1
 172.808794483 464.30365752 l 1
 172.892487048 465.289372694 l 1
 172.976294414 466.276439895 l 1
 173.06021494 467.264839798 l 1
 173.144246989 468.25455314 l 1
 173.228388931 469.245560716 l 1
 173.312639141 470.23784338 l 1
 173.396995998 471.231382042 l 1
 173.481457885 472.226157663 l 1
 173.566023191 473.22215126 l 1
 173.650690307 474.219343898 l 1
 173.735457629 475.217716691 l 1
 173.82032356 476.217250799 l 1
 173.905286502 477.217927429 l 1
 173.990344863 478.219727828 l 1
 174.075497055 479.222633288 l 1
 174.160741493 480.226625137 l 1
 174.246076594 481.231684744 l 1
 174.33150078 482.237793512 l 1
 174.417012475 483.24493288 l 1
 174.502610105 484.253084319 l 1
 174.588292099 485.262229331 l 1
 174.674056891 486.272349446 l 1
 174.759902912 487.283426225 l 1
 174.845828601 488.295441251 l 1
 174.931832396 489.308376133 l 1
 175.017912736 490.322212502 l 1
 175.104068064 491.336932011 l 1
 175.190296824 492.352516329 l 1
 175.276597461 493.368947145 l 1
 175.362968421 494.386206162 l 1
 175.449408153 495.404275099 l 1
 175.535915103 496.423135684 l 1
 175.622487724 497.442769658 l 1
 175.709124463 498.463158769 l 1
 175.795823774 499.484284773 l 1
 175.882584106 500.506129432 l 1
 175.969403912 501.52867451 l 1
 176.056281643 502.551901774 l 1
 176.143215751 503.575792991 l 1
 176.230204689 504.600329925 l 1
 176.317246907 505.625494339 l 1
 176.404340856 506.65126799 l 1
 176.491484987 507.677632627 l 1
 176.57867775 508.704569992 l 1
 176.665917594 509.732061816 l 1
 176.753202965 510.76008982 l 1
 176.840532312 511.788635707 l 1
 176.927904078 512.817681168 l 1
 177.015316709 513.847207875 l 1
 177.102768646 514.877197481 l 1
 177.19025833 515.907631619 l 1
 177.277784199 516.938491898 l 1
 177.365344689 517.969759902 l 1
 177.452938235 519.001417191 l 1
 177.540563269 520.033445294 l 1
 177.62821822 521.06582571 l 1
 177.715901513 522.098539909 l 1
 177.803611574 523.131569323 l 1
 177.891346821 524.164895351 l 1
 177.979105674 525.198499352 l 1
 178.066886545 526.232362649 l 1
 178.154687845 527.266466518 l 1
 178.24250798 528.300792197 l 1
 178.330345355 529.335320875 l 1
 178.418198367 530.370033693 l 1
 178.506065411 531.404911745 l 1
 178.593944877 532.439936072 l 1
 178.681835152 533.47508766 l 1
 178.769734615 534.510347443 l 1
 178.857641643 535.545696293 l 1
 178.945554608 536.581115024 l 1
 179.033471874 537.616584388 l 1
 179.121391801 538.652085073 l 1
 179.209312746 539.687597699 l 1
 179.297233055 540.723102819 l 1
 179.385151072 541.758580914 l 1
 179.473065134 542.794012393 l 1
 179.56097357 543.829377588 l 1
 179.648874704 544.864656755 l 1
 179.736766853 545.899830069 l 1
 179.824648326 546.934877621 l 1
 179.912517426 547.96977942 l 1
 180.000372448 549.004515386 l 1
 180.088211679 550.039065349 l 1
 180.1760334 551.073409047 l 1
 180.263835881 552.107526124 l 1
 180.351617385 553.141396126 l 1
 180.439376169 554.174998498 l 1
 180.527110477 555.208312583 l 1
 180.614818547 556.24131762 l 1
 180.702498607 557.273992737 l 1
 180.790148875 558.306316955 l 1
 180.87776756 559.338269177 l 1
 180.965352862 560.369828192 l 1
 181.052902969 561.40097267 l 1
 181.140416059 562.431681157 l 1
 181.2278903 563.461932076 l 1
 181.31532385 564.491703718 l 1
 181.402714854 565.520974246 l 1
 181.490061446 566.549721687 l 1
 181.577361749 567.577923929 l 1
 181.664613873 568.605558721 l 1
 181.751815918 569.632603667 l 1
 181.838965968 570.659036223 l 1
 181.926062097 571.684833693 l 1
 182.013102365 572.709973229 l 1
 182.100084818 573.734431822 l 1
 182.187007489 574.758186302 l 1
 182.273868397 575.781213336 l 1
 182.360665545 576.803489418 l 1
 182.447396925 577.824990871 l 1
 182.534060509 578.845693843 l 1
 182.620654258 579.865574297 l 1
 182.707176114 580.884608015 l 1
 182.793624007 581.902770588 l 1
 182.879995846 582.920037415 l 1
 182.966289526 583.936383697 l 1
 183.052502925 584.951784433 l 1
 183.138633902 585.966214416 l 1
 183.224680299 586.97964823 l 1
 183.310639939 587.992060241 l 1
 183.396510628 589.003424597 l 1
 183.482290151 590.01371522 l 1
 183.567976275 591.022905803 l 1
 183.653566746 592.030969804 l 1
 183.73905929 593.037880441 l 1
 183.824451612 594.043610687 l 1
 183.909741396 595.048133265 l 1
 183.994926305 596.05142064 l 1
 184.080003978 597.053445018 l 1
 184.212374807 598.612476816 l 1
 184.307339958 599.730953531 l 1
 184.402220295 600.848431329 l 1
 184.497012614 601.964872467 l 1
 184.591713663 603.080238657 l 1
 184.686320143 604.194491044 l 1
 184.780828707 605.307590192 l 1
 184.875235954 606.419496071 l 1
 184.969538435 607.530168035 l 1
 185.063732643 608.639564807 l 1
 185.15781502 609.74764446 l 1
 185.251781949 610.854364401 l 1
 185.345629755 611.959681347 l 1
 185.439354702 613.06355131 l 1
 185.532952994 614.165929571 l 1
 185.626420771 615.266770665 l 1
 185.719754106 616.366028352 l 1
 185.812949006 617.4636556 l 1
 185.906001409 618.559604557 l 1
 185.998907178 619.653826527 l 1
 186.091662107 620.746271948 l 1
 186.184261911 621.83689036 l 1
 186.276702226 622.925630384 l 1
 186.368978611 624.012439685 l 1
 186.461086537 625.097264952 l 1
 186.553021393 626.18005186 l 1
 186.644778477 627.260745041 l 1
 186.736352998 628.339288052 l 1
 186.827740067 629.415623337 l 1
 186.918934701 630.489692195 l 1
 187.009931815 631.56143474 l 1
 187.10072622 632.630789865 l 1
 187.191312621 633.6976952 l 1
 187.281685612 634.762087067 l 1
 187.371839671 635.823900445 l 1
 187.461769158 636.883068913 l 1
 187.551468313 637.939524614 l 1
 187.640931246 638.993198197 l 1
 187.730151938 640.044018769 l 1
 187.819124236 641.091913841 l 1
 187.907841842 642.136809271 l 1
 187.996298317 643.178629208 l 1
 188.08448707 644.217296024 l 1
 188.172401354 645.252730259 l 1
 188.26003426 646.284850547 l 1
 188.347378712 647.313573548 l 1
 188.434427461 648.338813876 l 1
 188.521173075 649.360484019 l 1
 188.607607938 650.378494262 l 1
 188.693724237 651.392752601 l 1
 188.779513959 652.403164654 l 1
 188.86496888 653.409633567 l 1
 189 655 l 1,0,0
 466 655 l 1,0,0
 466 734 l 1,0,0
 109 734 l 1,0,0
 86 390 l 1,0,0
 135 360 l 1,0,0
 200 403 200 403 257 403 c 0,0,0
 327 403 327 403 368 358.5 c 0
 409 314 409 314 409 236 c 0,0,0
 409 158 409 158 364 110.5 c 0
 319 63 319 63 253 63 c 0,0,0
 154 63 154 63 73 144 c 1,0,0
 28 84 l 1,0,0
EndSplineSet
EndChar

StartChar: six
Encoding: 54 54 25
Width: 555
VWidth: 1000
Flags: W
LayerCount: 2
Fore
SplineSet
143 293 m 1,0,0
 175 340 175 340 215 363.5 c 0
 255 387 255 387 293 387 c 0,0,0
 358 387 358 387 392 344 c 0
 426 301 426 301 426 225 c 0,0,0
 426 151 426 151 390 104.5 c 0
 354 58 354 58 301 58 c 0,0,0
 232 58 232 58 191.5 118.5 c 0
 151 179 151 179 143 293 c 1,0,0
56 350 m 0,0,0
 56 174 56 174 123.5 80.5 c 0
 191 -13 191 -13 301 -13 c 0,0,0
 389 -13 389 -13 450 54 c 0
 511 121 511 121 511 225 c 0,0,0
 511 337 511 337 457 396 c 0
 403 455 403 455 308 455 c 0,0,0
 264 455 264 455 219.5 431 c 0
 175 407 175 407 141 366 c 1,0,0
 144 526 144 526 196 598.5 c 0
 248 671 248 671 330 671 c 0,0,0
 402 671 402 671 448 615 c 1,0,0
 455 623 455 623 464.5 634 c 0
 474 645 474 645 484 656.5 c 0
 494 668 494 668 498 672 c 1,0,0
 428 747 428 747 327 747 c 0,0,0
 210 747 210 747 133 649.5 c 0
 56 552 56 552 56 350 c 0,0,0
EndSplineSet
EndChar

StartChar: seven
Encoding: 55 55 26
Width: 555
VWidth: 1000
Flags: W
LayerCount: 2
Fore
SplineSet
404 655 m 1,0,0
 298 507 298 507 252.5 359.5 c 0
 207 212 207 212 198 0 c 1,0,0
 293 0 l 1,0,0
 302 233 302 233 344 377.5 c 0
 386 522 386 522 508 678 c 1,0,0
 508 734 l 1,0,0
 49 734 l 1,0,0
 49 655 l 1,0,0
 404 655 l 1,0,0
EndSplineSet
EndChar

StartChar: eight
Encoding: 56 56 27
Width: 555
VWidth: 1000
Flags: W
LayerCount: 2
Fore
SplineSet
45 182 m 0,0,0
 45 97 45 97 111.5 42 c 0
 178 -13 178 -13 279 -13 c 0,0,0
 381 -13 381 -13 445 41.5 c 0
 509 96 509 96 509 177 c 0,0,0
 509 297 509 297 385 369 c 1,0,0
 385 374 l 1,0,0
 424 404 424 404 453.5 451 c 0
 483 498 483 498 483 551 c 0,0,0
 483 637 483 637 428.5 690.5 c 0
 374 744 374 744 282 744 c 0,0,0
 195 744 195 744 138 692.5 c 0
 81 641 81 641 81 558 c 0,0,0
 81 457 81 457 180 389 c 1,0,0
 180 384 l 1,0,0
 123 353 123 353 84 301.5 c 0
 45 250 45 250 45 182 c 0,0,0
405 546 m 0,0,0
 405 465 405 465 329 398 c 1,0,0
 291 413 291 413 266 425.5 c 0
 241 438 241 438 215 457 c 0
 189 476 189 476 176.5 501 c 0
 164 526 164 526 164 558 c 0,0,0
 164 611 164 611 197 644 c 0
 230 677 230 677 281 677 c 0,0,0
 338 677 338 677 371.5 639.5 c 0
 405 602 405 602 405 546 c 0,0,0
422 179 m 0,0,0
 422 124 422 124 383 89.5 c 0
 344 55 344 55 281 55 c 0,0,0
 215 55 215 55 171.5 93.5 c 0
 128 132 128 132 128 190 c 0,0,0
 128 292 128 292 228 356 c 1,0,0
 279 336 279 336 304.5 323.5 c 0
 330 311 330 311 362 289.5 c 0
 394 268 394 268 408 241 c 0
 422 214 422 214 422 179 c 0,0,0
EndSplineSet
EndChar

StartChar: nine
Encoding: 57 57 28
Width: 555
VWidth: 1000
Flags: W
LayerCount: 2
Fore
SplineSet
261 346 m 0,0,0
 197 346 197 346 163.5 389.5 c 0
 130 433 130 433 130 509 c 0,0,0
 130 583 130 583 165.5 629 c 0
 201 675 201 675 254 675 c 0,0,0
 325 675 325 675 366 616 c 0
 407 557 407 557 414 444 c 1,0,0
 347 346 347 346 261 346 c 0,0,0
58 62 m 1,0,0
 130 -13 130 -13 234 -13 c 0,0,0
 288 -13 288 -13 334 10 c 0
 380 33 380 33 418 80.5 c 0
 456 128 456 128 478 209.5 c 0
 500 291 500 291 500 398 c 0,0,0
 500 567 500 567 432 657 c 0
 364 747 364 747 254 747 c 0,0,0
 166 747 166 747 105 680 c 0
 44 613 44 613 44 509 c 0,0,0
 44 397 44 397 98 337.5 c 0
 152 278 152 278 246 278 c 0,0,0
 341 278 341 278 415 368 c 1,0,0
 410 208 410 208 359.5 135.5 c 0
 309 63 309 63 231 63 c 0,0,0
 157 63 157 63 109 119 c 1,0,0
 58 62 l 1,0,0
EndSplineSet
EndChar

StartChar: colon
Encoding: 58 58 29
Width: 278
VWidth: 1000
Flags: W
LayerCount: 2
Fore
SplineSet
73 459 m 0,0,0
 73 429 73 429 92.5 409.5 c 0
 112 390 112 390 139 390 c 0,0,0
 166 390 166 390 185.5 409.5 c 0
 205 429 205 429 205 459 c 0,0,0
 205 490 205 490 186 510 c 0
 167 530 167 530 139 530 c 0,0,0
 111 530 111 530 92 510 c 0
 73 490 73 490 73 459 c 0,0,0
73 56 m 0,0,0
 73 26 73 26 92 6.5 c 0
 111 -13 111 -13 139 -13 c 0,0,0
 167 -13 167 -13 186 6.5 c 0
 205 26 205 26 205 56 c 0,0,0
 205 87 205 87 186 107 c 0
 167 127 167 127 139 127 c 0,0,0
 111 127 111 127 92 107 c 0
 73 87 73 87 73 56 c 0,0,0
EndSplineSet
EndChar

StartChar: semicolon
Encoding: 59 59 30
Width: 278
VWidth: 1000
Flags: W
LayerCount: 2
Fore
SplineSet
73 459 m 0,0,0
 73 429 73 429 92.5 409.5 c 0
 112 390 112 390 139 390 c 0,0,0
 166 390 166 390 185.5 409.5 c 0
 205 429 205 429 205 459 c 0,0,0
 205 490 205 490 186 510 c 0
 167 530 167 530 139 530 c 0,0,0
 111 530 111 530 92 510 c 0
 73 490 73 490 73 459 c 0,0,0
53 -136 m 1,0,0
 56 -144 56 -144 60 -154 c 0
 64 -164 64 -164 68.5 -175 c 0
 73 -186 73 -186 75 -190 c 1,0,0
 143 -161 143 -161 182 -106.5 c 0
 221 -52 221 -52 221 19 c 0,0,0
 221 69 221 69 200.5 98 c 0
 180 127 180 127 144 127 c 0,0,0
 115 127 115 127 95 109 c 0
 75 91 75 91 75 63 c 0,0,0
 75 33 75 33 94.5 16 c 0
 114 -1 114 -1 142 -1 c 0,0,0
 149 -1 149 -1 153 0 c 1,0,0
 153 -44 153 -44 127 -79.5 c 0
 101 -115 101 -115 53 -136 c 1,0,0
EndSplineSet
EndChar

StartChar: less
Encoding: 60 60 31
Width: 555
VWidth: 1000
Flags: W
LayerCount: 2
Fore
SplineSet
38 334 m 1,0,0
 517 146 l 1,0,0
 517 226 l 1,0,0
 281 313 l 1,0,0
 131 369 l 1,0,0
 131 373 l 1,0,0
 281 429 l 1,0,0
 517 516 l 1,0,0
 517 596 l 1,0,0
 38 408 l 1,0,0
 38 334 l 1,0,0
EndSplineSet
EndChar

StartChar: equal
Encoding: 61 61 32
Width: 555
VWidth: 1000
Flags: W
LayerCount: 2
Fore
SplineSet
38 523 m 1,0,0
 38 455 l 1,0,0
 517 455 l 1,0,0
 517 523 l 1,0,0
 38 523 l 1,0,0
38 283 m 1,0,0
 38 215 l 1,0,0
 517 215 l 1,0,0
 517 283 l 1,0,0
 38 283 l 1,0,0
EndSplineSet
EndChar

StartChar: greater
Encoding: 62 62 33
Width: 555
VWidth: 1000
Flags: W
LayerCount: 2
Fore
SplineSet
38 226 m 1,0,0
 38 146 l 1,0,0
 517 334 l 1,0,0
 517 408 l 1,0,0
 38 596 l 1,0,0
 38 516 l 1,0,0
 274 429 l 1,0,0
 424 373 l 1,0,0
 424 369 l 1,0,0
 274 313 l 1,0,0
 38 226 l 1,0,0
EndSplineSet
EndChar

StartChar: question
Encoding: 63 63 34
Width: 555
VWidth: 1000
Flags: W
LayerCount: 2
Fore
SplineSet
38 226 m 1,0,0
 38 146 l 1,0,0
 517 334 l 1,0,0
 517 408 l 1,0,0
 38 596 l 1,0,0
 38 516 l 1,0,0
 274 429 l 1,0,0
 424 373 l 1,0,0
 424 369 l 1,0,0
 274 313 l 1,0,0
 38 226 l 1,0,0
EndSplineSet
EndChar

StartChar: at
Encoding: 64 64 35
Width: 946
VWidth: 1000
Flags: W
LayerCount: 2
Fore
SplineSet
56 227 m 0,0,0
 56 39 56 39 167.5 -67 c 0
 279 -173 279 -173 450 -173 c 0,0,0
 567 -173 567 -173 662 -116 c 1,0,0
 638 -62 l 1,0,0
 552 -112 552 -112 456 -112 c 0,0,0
 310 -112 310 -112 217 -21 c 0
 124 70 124 70 124 230 c 0,0,0
 124 325 124 325 157 407 c 0
 190 489 190 489 245 544 c 0
 300 599 300 599 370 630 c 0
 440 661 440 661 515 661 c 0,0,0
 663 661 663 661 744 574.5 c 0
 825 488 825 488 825 348 c 0,0,0
 825 245 825 245 778.5 181.5 c 0
 732 118 732 118 674 118 c 0,0,0
 582 118 582 118 613 249 c 1,0,0
 657 472 l 1,0,0
 597 472 l 1,0,0
 584 426 l 1,0,0
 582 426 l 1,0,0
 552 481 552 481 493 481 c 0,0,0
 400 481 400 481 339 399.5 c 0
 278 318 278 318 278 222 c 0,0,0
 278 148 278 148 315.5 105.5 c 0
 353 63 353 63 412 63 c 0,0,0
 484 63 484 63 548 140 c 1,0,0
 551 140 l 1,0,0
 556 99 556 99 587.5 77 c 0
 619 55 619 55 666 55 c 0,0,0
 750 55 750 55 819.5 135.5 c 0
 889 216 889 216 889 352 c 0,0,0
 889 518 889 518 789.5 620 c 0
 690 722 690 722 522 722 c 0,0,0
 429 722 429 722 344 686 c 0
 259 650 259 650 195.5 587 c 0
 132 524 132 524 94 430 c 0
 56 336 56 336 56 227 c 0,0,0
534 192 m 1,0,0
 478 126 478 126 430 126 c 0,0,0
 394 126 394 126 372.5 151 c 0
 351 176 351 176 351 227 c 0,0,0
 351 296 351 296 391 356.5 c 0
 431 417 431 417 493 417 c 0,0,0
 537 417 537 417 565 370 c 1,0,0
 534 192 l 1,0,0
EndSplineSet
EndChar

StartChar: A
Encoding: 65 65 36
Width: 607
VWidth: 1000
Flags: W
LayerCount: 2
Fore
SplineSet
191 298 m 1,0,0
 227 410 l 2,0,0
 273 556 273 556 300 658 c 1,0,0
 304 658 l 1,0,0
 348 503 348 503 378 410 c 2,0,0
 413 298 l 1,0,0
 191 298 l 1,0,0
252 734 m 1,0,0
 3 0 l 1,0,0
 97 0 l 1,0,0
 168 224 l 1,0,0
 436 224 l 1,0,0
 506 0 l 1,0,0
 604 0 l 1,0,0
 355 734 l 1,0,0
 252 734 l 1,0,0
EndSplineSet
EndChar

StartChar: B
Encoding: 66 66 37
Width: 657
VWidth: 1000
Flags: W
LayerCount: 2
Fore
SplineSet
100 734 m 1,0,0
 100 0 l 1,0,0
 334 0 l 2,0,0
 461 0 461 0 536.5 55 c 0
 612 110 612 110 612 215 c 0,0,0
 612 287 612 287 571.5 332 c 0
 531 377 531 377 463 390 c 1,0,0
 463 395 l 1,0,0
 513 411 513 411 541.5 454.5 c 0
 570 498 570 498 570 554 c 0,0,0
 570 647 570 647 503 690.5 c 0
 436 734 436 734 318 734 c 2,0,0
 100 734 l 1,0,0
302 421 m 2,0,0
 193 421 l 1,0,0
 193 660 l 1,0,0
 306 660 l 2,0,0
 394 660 394 660 436.5 632.5 c 0
 479 605 479 605 479 542 c 0,0,0
 479 421 479 421 302 421 c 2,0,0
321 74 m 2,0,0
 193 74 l 1,0,0
 193 351 l 1,0,0
 321 351 l 2,0,0
 521 351 521 351 521 218 c 0,0,0
 521 74 521 74 321 74 c 2,0,0
EndSplineSet
EndChar

StartChar: C
Encoding: 67 67 38
Width: 638
VWidth: 1000
Flags: W
LayerCount: 2
Fore
SplineSet
58 366 m 0,0,0
 58 191 58 191 147.5 89 c 0
 237 -13 237 -13 377 -13 c 0,0,0
 511 -13 511 -13 602 92 c 1,0,0
 594 101 594 101 585 111.5 c 0
 576 122 576 122 565.5 134 c 0
 555 146 555 146 551 150 c 1,0,0
 475 68 475 68 381 68 c 0,0,0
 276 68 276 68 214.5 149 c 0
 153 230 153 230 153 369 c 0,0,0
 153 505 153 505 216 585.5 c 0
 279 666 279 666 384 666 c 0,0,0
 469 666 469 666 534 596 c 1,0,0
 541 605 541 605 550.5 616 c 0
 560 627 560 627 570 639.5 c 0
 580 652 580 652 584 656 c 1,0,0
 503 747 503 747 383 747 c 0,0,0
 241 747 241 747 149.5 643.5 c 0
 58 540 58 540 58 366 c 0,0,0
EndSplineSet
EndChar

StartChar: D
Encoding: 68 68 39
Width: 687
VWidth: 1000
Flags: W
LayerCount: 2
Fore
SplineSet
100 734 m 1,0,0
 100 0 l 1,0,0
 288 0 l 2,0,0
 453 0 453 0 541.5 97 c 0
 630 194 630 194 630 369 c 0,0,0
 630 545 630 545 541 639.5 c 0
 452 734 452 734 284 734 c 2,0,0
 100 734 l 1,0,0
276 76 m 2,0,0
 193 76 l 1,0,0
 193 658 l 1,0,0
 276 658 l 2,0,0
 404 658 404 658 469 584 c 0
 534 510 534 510 534 369 c 0,0,0
 534 228 534 228 469 152 c 0
 404 76 404 76 276 76 c 2,0,0
EndSplineSet
EndChar

StartChar: E
Encoding: 69 69 40
Width: 588
VWidth: 1000
Flags: W
LayerCount: 2
Fore
SplineSet
100 734 m 1,0,0
 100 0 l 1,0,0
 534 0 l 1,0,0
 534 79 l 1,0,0
 193 79 l 1,0,0
 193 346 l 1,0,0
 471 346 l 1,0,0
 471 425 l 1,0,0
 193 425 l 1,0,0
 193 655 l 1,0,0
 523 655 l 1,0,0
 523 734 l 1,0,0
 100 734 l 1,0,0
EndSplineSet
EndChar

StartChar: F
Encoding: 70 70 41
Width: 552
VWidth: 1000
Flags: W
LayerCount: 2
Fore
SplineSet
100 734 m 1,0,0
 100 0 l 1,0,0
 193 0 l 1,0,0
 193 329 l 1,0,0
 473 329 l 1,0,0
 473 407 l 1,0,0
 193 407 l 1,0,0
 193 655 l 1,0,0
 523 655 l 1,0,0
 523 734 l 1,0,0
 100 734 l 1,0,0
EndSplineSet
EndChar

StartChar: G
Encoding: 71 71 42
Width: 689
VWidth: 1000
Flags: W
LayerCount: 2
Fore
SplineSet
58 366 m 0,0,0
 58 191 58 191 149.5 89 c 0
 241 -13 241 -13 388 -13 c 0,0,0
 533 -13 533 -13 615 72 c 1,0,0
 615 380 l 1,0,0
 375 380 l 1,0,0
 375 303 l 1,0,0
 530 303 l 1,0,0
 530 111 l 1,0,0
 484 68 484 68 398 68 c 0,0,0
 281 68 281 68 217 148.5 c 0
 153 229 153 229 153 369 c 0,0,0
 153 506 153 506 219 586 c 0
 285 666 285 666 396 666 c 0,0,0
 489 666 489 666 555 596 c 1,0,0
 562 605 562 605 571.5 616 c 0
 581 627 581 627 591 639.5 c 0
 601 652 601 652 605 656 c 1,0,0
 520 747 520 747 394 747 c 0,0,0
 246 747 246 747 152 644 c 0
 58 541 58 541 58 366 c 0,0,0
EndSplineSet
EndChar

StartChar: H
Encoding: 72 72 43
Width: 728
VWidth: 1000
Flags: W
LayerCount: 2
Fore
SplineSet
100 734 m 1,0,0
 100 0 l 1,0,0
 193 0 l 1,0,0
 193 346 l 1,0,0
 535 346 l 1,0,0
 535 0 l 1,0,0
 627 0 l 1,0,0
 627 734 l 1,0,0
 535 734 l 1,0,0
 535 426 l 1,0,0
 193 426 l 1,0,0
 193 734 l 1,0,0
 100 734 l 1,0,0
EndSplineSet
EndChar

StartChar: I
Encoding: 73 73 44
Width: 293
VWidth: 1000
Flags: W
LayerCount: 2
Fore
SplineSet
100 734 m 1,0,0
 100 0 l 1,0,0
 193 0 l 1,0,0
 193 734 l 1,0,0
 100 734 l 1,0,0
EndSplineSet
EndChar

StartChar: J
Encoding: 74 74 45
Width: 536
VWidth: 1000
Flags: W
LayerCount: 2
Fore
SplineSet
35 103 m 1,0,0
 101 -13 101 -13 237 -13 c 0,0,0
 339 -13 339 -13 388.5 50 c 0
 438 113 438 113 438 215 c 2,0,0
 438 734 l 1,0,0
 346 734 l 1,0,0
 346 224 l 2,0,0
 346 142 346 142 317 105 c 0
 288 68 288 68 228 68 c 0,0,0
 148 68 148 68 101 150 c 1,0,0
 91 143 91 143 79 134.5 c 0
 67 126 67 126 53.5 116 c 0
 40 106 40 106 35 103 c 1,0,0
EndSplineSet
EndChar

StartChar: K
Encoding: 75 75 46
Width: 646
VWidth: 1000
Flags: W
LayerCount: 2
Fore
SplineSet
100 734 m 1,0,0
 100 0 l 1,0,0
 193 0 l 1,0,0
 193 232 l 1,0,0
 319 382 l 1,0,0
 539 0 l 1,0,0
 642 -0 l 1,0,0
 377 454 l 1,0,0
 606 734 l 1,0,0
 502 734 l 1,0,0
 196 365 l 1,0,0
 193 365 l 1,0,0
 193 734 l 1,0,0
 100 734 l 1,0,0
EndSplineSet
EndChar

StartChar: L
Encoding: 76 76 47
Width: 543
VWidth: 1000
Flags: W
LayerCount: 2
Fore
SplineSet
100 734 m 1,0,0
 100 0 l 1,0,0
 513 0 l 1,0,0
 513 79 l 1,0,0
 193 79 l 1,0,0
 193 734 l 1,0,0
 100 734 l 1,0,0
EndSplineSet
EndChar

StartChar: M
Encoding: 77 77 48
Width: 812
VWidth: 1000
Flags: W
LayerCount: 2
Fore
SplineSet
100 734 m 1,0,0
 100 0 l 1,0,0
 184 0 l 1,0,0
 184 406 l 2,0,0
 184 446 184 446 173 622 c 1,0,0
 177 622 l 1,0,0
 235 455 l 1,0,0
 374 74 l 1,0,0
 436 74 l 1,0,0
 575 455 l 1,0,0
 633 622 l 1,0,0
 637 622 l 1,0,0
 625 468 625 468 625 406 c 2,0,0
 625 0 l 1,0,0
 712 0 l 1,0,0
 712 734 l 1,0,0
 600 734 l 1,0,0
 460 341 l 2,0,0
 452 316 452 316 435 264.5 c 0
 418 213 418 213 410 188 c 1,0,0
 405 188 l 1,0,0
 387 239 387 239 353 341 c 2,0,0
 212 734 l 1,0,0
 100 734 l 1,0,0
EndSplineSet
EndChar

StartChar: N
Encoding: 78 78 49
Width: 722
VWidth: 1000
Flags: W
LayerCount: 2
Fore
SplineSet
100 734 m 1,0,0
 100 0 l 1,0,0
 188 0 l 1,0,0
 188 385 l 2,0,0
 188 410 188 410 177 614 c 1,0,0
 181 614 l 1,0,0
 260 463 l 1,0,0
 527 0 l 1,0,0
 622 0 l 1,0,0
 622 734 l 1,0,0
 534 734 l 1,0,0
 534 352 l 2,0,0
 534 298 534 298 546 120 c 1,0,0
 541 120 l 1,0,0
 463 271 l 1,0,0
 196 734 l 1,0,0
 100 734 l 1,0,0
EndSplineSet
EndChar

StartChar: O
Encoding: 79 79 50
Width: 742
VWidth: 1000
Flags: W
LayerCount: 2
Fore
SplineSet
58 369 m 0,0,0
 58 195 58 195 144.5 91 c 0
 231 -13 231 -13 371 -13 c 0,0,0
 511 -13 511 -13 597.5 91 c 0
 684 195 684 195 684 369 c 0,0,0
 684 543 684 543 597.5 645 c 0
 511 747 511 747 371 747 c 0,0,0
 231 747 231 747 144.5 645 c 0
 58 543 58 543 58 369 c 0,0,0
589 369 m 0,0,0
 589 232 589 232 529.5 150 c 0
 470 68 470 68 371 68 c 0,0,0
 272 68 272 68 212.5 150 c 0
 153 232 153 232 153 369 c 0,0,0
 153 506 153 506 212 586 c 0
 271 666 271 666 371 666 c 0,0,0
 470 666 470 666 529.5 586 c 0
 589 506 589 506 589 369 c 0,0,0
EndSplineSet
EndChar

StartChar: P
Encoding: 80 80 51
Width: 632
VWidth: 1000
Flags: W
LayerCount: 2
Fore
SplineSet
100 734 m 1,0,0
 100 0 l 1,0,0
 193 0 l 1,0,0
 193 291 l 1,0,0
 314 291 l 2,0,0
 439 291 439 291 511.5 348 c 0
 584 405 584 405 584 518 c 0,0,0
 584 734 584 734 310 734 c 2,0,0
 100 734 l 1,0,0
302 366 m 2,0,0
 193 366 l 1,0,0
 193 658 l 1,0,0
 298 658 l 2,0,0
 398 658 398 658 445 626.5 c 0
 492 595 492 595 492 518 c 0,0,0
 492 440 492 440 445.5 403 c 0
 399 366 399 366 302 366 c 2,0,0
EndSplineSet
EndChar

StartChar: Q
Encoding: 81 81 52
Width: 742
VWidth: 1000
Flags: W
LayerCount: 2
Fore
SplineSet
589 369 m 0,0,0
 589 229 589 229 529.5 146 c 0
 470 63 470 63 371 63 c 0,0,0
 272 63 272 63 212.5 146 c 0
 153 229 153 229 153 369 c 0,0,0
 153 506 153 506 212 586 c 0
 271 666 271 666 371 666 c 0,0,0
 470 666 470 666 529.5 586 c 0
 589 506 589 506 589 369 c 0,0,0
326 -10 m 1,0,0
 358 -89 358 -89 427.5 -136.5 c 0
 497 -184 497 -184 595 -184 c 0,0,0
 656 -184 656 -184 700 -168 c 1,0,0
 682 -96 l 1,0,0
 647 -107 647 -107 605 -107 c 0,0,0
 544 -107 544 -107 496.5 -82 c 0
 449 -57 449 -57 425 -9 c 1,0,0
 543 12 543 12 613.5 112.5 c 0
 684 213 684 213 684 369 c 0,0,0
 684 543 684 543 597.5 645 c 0
 511 747 511 747 371 747 c 0,0,0
 231 747 231 747 144.5 645 c 0
 58 543 58 543 58 369 c 0,0,0
 58 210 58 210 131 108.5 c 0
 204 7 204 7 326 -10 c 1,0,0
EndSplineSet
EndChar

StartChar: R
Encoding: 82 82 53
Width: 636
VWidth: 1000
Flags: W
LayerCount: 2
Fore
SplineSet
100 734 m 1,0,0
 100 0 l 1,0,0
 193 0 l 1,0,0
 193 311 l 1,0,0
 325 311 l 1,0,0
 503 0 l 1,0,0
 608 -0 l 1,0,0
 420 321 l 1,0,0
 498 340 498 340 542 392 c 0
 586 444 586 444 586 527 c 0,0,0
 586 734 586 734 330 734 c 2,0,0
 100 734 l 1,0,0
316 386 m 2,0,0
 193 386 l 1,0,0
 193 658 l 1,0,0
 316 658 l 2,0,0
 406 658 406 658 450 627.5 c 0
 494 597 494 597 494 527 c 0,0,0
 494 386 494 386 316 386 c 2,0,0
EndSplineSet
EndChar

StartChar: S
Encoding: 83 83 54
Width: 597
VWidth: 1000
Flags: W
LayerCount: 2
Fore
SplineSet
47 96 m 1,0,0
 151 -13 151 -13 304 -13 c 0,0,0
 416 -13 416 -13 484.5 46.5 c 0
 553 106 553 106 553 195 c 0,0,0
 553 271 553 271 514 315 c 0
 475 359 475 359 402 391 c 2,0,0
 297 436 l 2,0,0
 274 446 274 446 262 451.5 c 0
 250 457 250 457 230.5 468.5 c 0
 211 480 211 480 201.5 491.5 c 0
 192 503 192 503 184 520.5 c 0
 176 538 176 538 176 558 c 0,0,0
 176 607 176 607 213.5 636.5 c 0
 251 666 251 666 313 666 c 0,0,0
 406 666 406 666 480 597 c 1,0,0
 529 656 l 1,0,0
 441 747 441 747 313 747 c 0,0,0
 213 747 213 747 147.5 692 c 0
 82 637 82 637 82 552 c 0,0,0
 82 428 82 428 231 364 c 2,0,0
 337 318 l 2,0,0
 370 303 370 303 386 294.5 c 0
 402 286 402 286 422.5 270.5 c 0
 443 255 443 255 451 235 c 0
 459 215 459 215 459 188 c 0,0,0
 459 133 459 133 417.5 100.5 c 0
 376 68 376 68 305 68 c 0,0,0
 189 68 189 68 103 159 c 1,0,0
 47 96 l 1,0,0
EndSplineSet
EndChar

StartChar: T
Encoding: 84 84 55
Width: 599
VWidth: 1000
Flags: W
LayerCount: 2
Fore
SplineSet
253 655 m 1,0,0
 253 0 l 1,0,0
 346 0 l 1,0,0
 346 655 l 1,0,0
 568 655 l 1,0,0
 568 734 l 1,0,0
 31 734 l 1,0,0
 31 655 l 1,0,0
 253 655 l 1,0,0
EndSplineSet
EndChar

StartChar: U
Encoding: 85 85 56
Width: 721
VWidth: 1000
Flags: W
LayerCount: 2
Fore
SplineSet
97 303 m 2,0,0
 97 136 97 136 168 61.5 c 0
 239 -13 239 -13 360 -13 c 0,0,0
 482 -13 482 -13 553 61.5 c 0
 624 136 624 136 624 303 c 2,0,0
 624 734 l 1,0,0
 535 734 l 1,0,0
 535 300 l 2,0,0
 535 68 535 68 360 68 c 0,0,0
 190 68 190 68 190 300 c 2,0,0
 190 734 l 1,0,0
 97 734 l 1,0,0
 97 303 l 2,0,0
EndSplineSet
EndChar

StartChar: V
Encoding: 86 86 57
Width: 575
VWidth: 1000
Flags: W
LayerCount: 2
Fore
SplineSet
1 734 m 1,0,0
 235 0 l 1,0,0
 342 0 l 1,0,0
 575 734 l 1,0,0
 481 734 l 1,0,0
 363 336 l 2,0,0
 352 300 352 300 329.5 220.5 c 0
 307 141 307 141 292 94 c 1,0,0
 288 94 l 1,0,0
 272 143 272 143 249 224 c 0
 226 305 226 305 217 336 c 2,0,0
 216.715822334 336.95043751 l 1
 216.431356666 337.901838309 l 1
 216.146604797 338.85419637 l 1
 215.861568524 339.807505686 l 1
 215.576249637 340.761760264 l 1
 215.290649924 341.716954128 l 1
 215.004771166 342.673081318 l 1
 214.718615142 343.630135889 l 1
 214.432183625 344.58811191 l 1
 214.145478381 345.547003468 l 1
 213.858501176 346.506804663 l 1
 213.283737913 348.429112442 l 1
 212.995955362 349.391607302 l 1
 212.707907859 350.354988348 l 1
 212.419597148 351.319249754 l 1
 212.131024967 352.284385708 l 1
 211.842193049 353.250390412 l 1
 211.553103123 354.217258078 l 1
 211.263756916 355.184982938 l 1
 210.974156149 356.153559231 l 1
 210.68430254 357.122981212 l 1
 210.394197803 358.093243151 l 1
 210.103843647 359.064339326 l 1
 209.813241779 360.036264033 l 1
 209.522393901 361.009011576 l 1
 209.231301713 361.982576274 l 1
 208.939966908 362.956952457 l 1
 208.648391179 363.932134468 l 1
 208.356576213 364.908116661 l 1
 208.064523695 365.884893403 l 1
 207.772235307 366.862459071 l 1
 207.479712725 367.840808053 l 1
 207.186957623 368.81993475 l 1
 206.893971674 369.799833574 l 1
 206.600756544 370.780498947 l 1
 206.307313898 371.761925301 l 1
 206.013645396 372.744107081 l 1
 205.719752699 373.72703874 l 1
 205.425637459 374.710714743 l 1
 205.13130133 375.695129564 l 1
 204.83674596 376.680277688 l 1
 204.541972996 377.666153609 l 1
 204.24698408 378.652751831 l 1
 203.951780854 379.640066868 l 1
 203.656364954 380.628093243 l 1
 203.360738015 381.616825488 l 1
 203.06490167 382.606258145 l 1
 202.768857547 383.596385763 l 1
 202.472607274 384.587202903 l 1
 202.176152475 385.57870413 l 1
 201.879494771 386.570884023 l 1
 201.582635781 387.563737165 l 1
 201.285577123 388.55725815 l 1
 200.98832041 389.551441577 l 1
 200.690867253 390.546282057 l 1
 200.393219264 391.541774205 l 1
 200.095378049 392.537912645 l 1
 199.797345213 393.53469201 l 1
 199.499122358 394.532106939 l 1
 199.200711087 395.530152077 l 1
 198.902112996 396.528822078 l 1
 198.603329683 397.528111602 l 1
 198.304362743 398.528015317 l 1
 198.005213767 399.528527895 l 1
 197.705884347 400.529644016 l 1
 197.40637607 401.531358368 l 1
 197.106690525 402.533665643 l 1
 196.806829295 403.536560538 l 1
 196.506793964 404.54003776 l 1
 196.206586114 405.544092019 l 1
 195.906207324 406.548718029 l 1
 195.605659173 407.553910514 l 1
 195.304943237 408.5596642 l 1
 195.004061091 409.565973818 l 1
 194.703014309 410.572834106 l 1
 194.401804463 411.580239807 l 1
 194.100433123 412.588185666 l 1
 193.798901858 413.596666437 l 1
 193.497212237 414.605676874 l 1
 193.195365826 415.615211738 l 1
 192.89336419 416.625265794 l 1
 192.591208893 417.635833811 l 1
 192.288901498 418.646910562 l 1
 191.986443567 419.658490824 l 1
 191.68383666 420.670569376 l 1
 191.381082337 421.683141002 l 1
 191.078182156 422.696200491 l 1
 190.775137676 423.709742632 l 1
 190.471950451 424.723762219 l 1
 190.168622039 425.73825405 l 1
 189.865153994 426.753212923 l 1
 189.56154787 427.768633642 l 1
 189.25780522 428.78451101 l 1
 188.953927597 429.800839837 l 1
 188.649916552 430.81761493 l 1
 188.345773637 431.834831103 l 1
 188.041500402 432.852483169 l 1
 187.737098397 433.870565945 l 1
 187.432569172 434.889074247 l 1
 187.127914275 435.908002896 l 1
 186.823135255 436.927346711 l 1
 186.518233661 437.947100516 l 1
 186.213211039 438.967259133 l 1
 185.908068937 439.987817388 l 1
 185.602808903 441.008770105 l 1
 185.297432483 442.03011211 l 1
 184.991941224 443.051838232 l 1
 184.686336673 444.073943296 l 1
 184.380620375 445.096422131 l 1
 184.074793877 446.119269566 l 1
 183.768858726 447.142480427 l 1
 183.462816468 448.166049544 l 1
 183.156668648 449.189971745 l 1
 182.850416814 450.214241857 l 1
 182.544062512 451.238854707 l 1
 182.237607289 452.263805122 l 1
 181.931052692 453.289087929 l 1
 181.624400267 454.314697952 l 1
 181.317651563 455.340630016 l 1
 181.010808127 456.366878943 l 1
 180.703871508 457.393439556 l 1
 180.396843254 458.420306674 l 1
 180.089724914 459.447475116 l 1
 179.782518038 460.4749397 l 1
 179.475224176 461.50269524 l 1
 179.167844879 462.53073655 l 1
 178.860381698 463.55905844 l 1
 178.552836186 464.587655721 l 1
 178.245209894 465.616523197 l 1
 177.937504378 466.645655673 l 1
 177.62972119 467.67504795 l 1
 177.321861887 468.704694827 l 1
 177.013928025 469.734591098 l 1
 176.70592116 470.764731555 l 1
 176.397842851 471.795110988 l 1
 176.089694656 472.825724181 l 1
 175.781478136 473.856565918 l 1
 175.473194853 474.887630975 l 1
 175.164846368 475.918914127 l 1
 174.856434245 476.950410144 l 1
 174.547960049 477.982113793 l 1
 174.239425347 479.014019835 l 1
 173.930831705 480.046123027 l 1
 173.622180693 481.078418121 l 1
 173.313473881 482.110899867 l 1
 173.004712841 483.143563006 l 1
 172.695899145 484.176402276 l 1
 172.38703437 485.209412411 l 1
 172.078120091 486.242588137 l 1
 171.769157887 487.275924176 l 1
 171.460149337 488.309415244 l 1
 171.151096022 489.343056051 l 1
 170.841999528 490.376841302 l 1
 170.532861437 491.410765694 l 1
 170.223683339 492.44482392 l 1
 169.91446682 493.479010664 l 1
 169.605213474 494.513320605 l 1
 169.295924892 495.547748415 l 1
 168.986602671 496.582288758 l 1
 168.677248406 497.616936294 l 1
 168.367863698 498.651685671 l 1
 168.058450148 499.686531533 l 1
 167.74900936 500.721468516 l 1
 167.43954294 501.756491247 l 1
 167.130052497 502.791594345 l 1
 166.820539643 503.826772424 l 1
 166.511005989 504.862020086 l 1
 166.201453154 505.897331925 l 1
 165.891882754 506.93270253 l 1
 165.582296412 507.968126476 l 1
 165.27269575 509.003598333 l 1
 164.963082397 510.039112661 l 1
 164.65345798 511.074664009 l 1
 164.343824133 512.110246919 l 1
 164.034182491 513.145855922 l 1
 163.72453469 514.181485539 l 1
 163.414882373 515.217130283 l 1
 163.105227184 516.252784653 l 1
 162.795570769 517.288443141 l 1
 162.485914779 518.324100228 l 1
 162.176260867 519.359750383 l 1
 161.86661069 520.395388066 l 1
 161.556965908 521.431007724 l 1
 161.247328185 522.466603793 l 1
 160.937699186 523.5021707 l 1
 160.628080583 524.537702857 l 1
 160.318474049 525.573194667 l 1
 160.008881262 526.608640518 l 1
 159.699303902 527.64403479 l 1
 159.389743654 528.679371846 l 1
 159.080202207 529.714646041 l 1
 158.770681253 530.749851713 l 1
 158.461182489 531.784983189 l 1
 158.151707613 532.820034784 l 1
 157.842258331 533.855000798 l 1
 157.53283635 534.889875518 l 1
 157.223443383 535.924653217 l 1
 156.914081146 536.959328155 l 1
 156.60475136 537.993894576 l 1
 156.295455749 539.028346711 l 1
 155.986196043 540.062678777 l 1
 155.676973976 541.096884974 l 1
 155.367791285 542.13095949 l 1
 155.058649714 543.164896495 l 1
 154.74955101 544.198690146 l 1
 154.440496924 545.232334581 l 1
 154.131489215 546.265823927 l 1
 153.822529642 547.299152291 l 1
 153.513619972 548.332313766 l 1
 153.204761978 549.365302425 l 1
 152.895957435 550.39811233 l 1
 152.587208124 551.430737521 l 1
 152.278515832 552.463172023 l 1
 151.969882351 553.495409843 l 1
 151.661309478 554.527444971 l 1
 151.352799015 555.559271379 l 1
 151.04435277 556.59088302 l 1
 150.735972557 557.622273831 l 1
 150.427660193 558.653437726 l 1
 150.119417504 559.684368606 l 1
 149.811246319 560.715060347 l 1
 149.503148475 561.745506811 l 1
 149.195125813 562.775701836 l 1
 148.887180181 563.805639244 l 1
 148.579313432 564.835312834 l 1
 148.271527427 565.864716386 l 1
 147.963824031 566.89384366 l 1
 147.656205116 567.922688394 l 1
 147.348672561 568.951244305 l 1
 147.04122825 569.97950509 l 1
 146.733874075 571.007464422 l 1
 146.426611934 572.035115955 l 1
 146.119443731 573.062453319 l 1
 145.812371376 574.089470122 l 1
 145.505396789 575.116159949 l 1
 145.198521893 576.142516363 l 1
 144.891748621 577.168532903 l 1
 144.585078911 578.194203083 l 1
 144.278514709 579.219520397 l 1
 143.972057968 580.244478311 l 1
 143.665710648 581.269070269 l 1
 143.359474719 582.293289689 l 1
 143.053352153 583.317129965 l 1
 142.747344935 584.340584466 l 1
 142.441455055 585.363646533 l 1
 142.135684511 586.386309484 l 1
 141.830035309 587.408566609 l 1
 141.524509463 588.430411172 l 1
 141.219108995 589.45183641 l 1
 140.913835935 590.472835534 l 1
 140.608692321 591.493401725 l 1
 140.303680201 592.51352814 l 1
 139.998801628 593.533207904 l 1
 139.694058667 594.552434116 l 1
 139.38945339 595.571199844 l 1
 139.084987878 596.58949813 l 1
 138.78066422 597.607321984 l 1
 138.476484515 598.624664387 l 1
 138.17245087 599.64151829 l 1
 137.868565403 600.657876614 l 1
 137.564830239 601.673732247 l 1
 137.261247513 602.689078047 l 1
 136.957819371 603.703906843 l 1
 136.654547966 604.718211427 l 1
 136.351435463 605.731984562 l 1
 136.048484035 606.745218979 l 1
 135.745695866 607.757907373 l 1
 135.44307315 608.770042407 l 1
 135.14061809 609.781616711 l 1
 134.838332901 610.792622879 l 1
 134.536219806 611.803053472 l 1
 134.234281041 612.812901015 l 1
 133.932518852 613.822157997 l 1
 133.630935494 614.830816872 l 1
 133.329533234 615.838870058 l 1
 133.028314351 616.846309936 l 1
 132.727281133 617.853128849 l 1
 132.426435882 618.859319103 l 1
 132.125780908 619.864872967 l 1
 131.825318536 620.869782669 l 1
 131.525051099 621.874040402 l 1
 131.224980945 622.877638316 l 1
 130.925110431 623.880568523 l 1
 130.62544193 624.882823094 l 1
 130.325977822 625.884394061 l 1
 130.026720504 626.885273412 l 1
 129.651459688 628.140349825 l 1
 129.316806494 629.259612251 l 1
 128.982308701 630.37835493 l 1
 128.647969478 631.496567265 l 1
 128.313792018 632.614238574 l 1
 127.979779539 633.731358099 l 1
 127.645935282 634.847914992 l 1
 127.312262516 635.963898326 l 1
 126.978764534 637.079297085 l 1
 126.645444656 638.194100166 l 1
 126.312306227 639.308296378 l 1
 125.979352621 640.42187444 l 1
 125.646587237 641.53482298 l 1
 125.314013504 642.647130533 l 1
 124.981634876 643.758785542 l 1
 124.64945484 644.869776351 l 1
 124.317476907 645.98009121 l 1
 123.985704621 647.089718269 l 1
 123.654141554 648.198645581 l 1
 123.322791308 649.306861095 l 1
 122.991657519 650.414352657 l 1
 122.66074385 651.52110801 l 1
 122.330053998 652.62711479 l 1
 121.999591692 653.732360527 l 1
 121.669360693 654.836832639 l 1
 121.339364796 655.940518435 l 1
 121.009607829 657.043405109 l 1
 120.680093656 658.145479743 l 1
 120.350826172 659.246729302 l 1
 120.021809312 660.347140631 l 1
 119.693047044 661.446700457 l 1
 119.364543372 662.545395383 l 1
 119.036302341 663.643211891 l 1
 118.708328028 664.740136334 l 1
 118.380624552 665.836154939 l 1
 118.053196071 666.931253802 l 1
 117.72604678 668.025418889 l 1
 117.399180916 669.118636028 l 1
 117.072602757 670.210890915 l 1
 116.74631662 671.302169105 l 1
 116.420326868 672.392456012 l 1
 116.094637904 673.481736907 l 1
 115.769254174 674.569996916 l 1
 115.444180171 675.657221018 l 1
 115.11942043 676.74339404 l 1
 114.794979534 677.828500657 l 1
 114.470862111 678.912525388 l 1
 114.147072837 679.995452594 l 1
 113.823616435 681.077266477 l 1
 113.500497678 682.157951074 l 1
 113.177721389 683.237490256 l 1
 112.85529244 684.315867726 l 1
 112.533215755 685.393067013 l 1
 112.211496311 686.469071474 l 1
 111.890139137 687.543864286 l 1
 111.569149317 688.617428447 l 1
 111.24853199 689.68974677 l 1
 110.92829235 690.760801881 l 1
 110.608435649 691.830576214 l 1
 110.288967196 692.899052013 l 1
 109.969892359 693.96621132 l 1
 109.651216568 695.03203598 l 1
 109.332945312 696.096507632 l 1
 109.015084143 697.159607709 l 1
 108.697638675 698.221317428 l 1
 108.380614588 699.281617795 l 1
 108.064017627 700.340489595 l 1
 107.747853604 701.39791339 l 1
 107.432128399 702.453869513 l 1
 107.11684796 703.508338067 l 1
 106.802018308 704.561298919 l 1
 106.487645533 705.612731695 l 1
 106.173735801 706.662615778 l 1
 105.86029535 707.710930298 l 1
 105.547330495 708.757654137 l 1
 105.23484763 709.802765912 l 1
 104.922853224 710.84624398 l 1
 104.61135383 711.888066429 l 1
 104.30035608 712.928211073 l 1
 103.989866692 713.966655446 l 1
 103.679892468 715.003376799 l 1
 103.370440296 716.038352092 l 1
 103.061517153 717.071557989 l 1
 102.753130106 718.102970855 l 1
 102.445286313 719.132566745 l 1
 102.137993028 720.160321402 l 1
 101.831257599 721.186210249 l 1
 101.525087472 722.210208382 l 1
 101.21949019 723.232290567 l 1
 100.914473402 724.252431227 l 1
 100.610044858 725.270604442 l 1
 100.306212412 726.286783938 l 1
 100.002984028 727.300943079 l 1
 99.7003677809 728.313054862 l 1
 99.3983718554 729.323091908 l 1
 99.0970045523 730.331026455 l 1
 98.7962742892 731.33683035 l 1
 98.4961896032 732.340475039 l 1
 98 734 l 1,0,0
 1 734 l 1,0,0
EndSplineSet
EndChar

StartChar: W
Encoding: 87 87 58
Width: 878
VWidth: 1000
Flags: W
LayerCount: 2
Fore
SplineSet
26 734 m 1,0,0
 181 0 l 1,0,0
 291 0 l 1,0,0
 400 442 l 2,0,0
 407 474 407 474 419.5 529.5 c 0
 432 585 432 585 437 609 c 1,0,0
 441 609 l 1,0,0
 472 464 472 464 477 442 c 2,0,0
 477.238669944 441.049622675 l 1
 477.477557881 440.098377283 l 1
 477.716662585 439.146268712 l 1
 477.955982832 438.193301837 l 1
 478.1955174 437.23948152 l 1
 478.435265071 436.284812612 l 1
 478.67522463 435.329299954 l 1
 478.915394863 434.372948374 l 1
 479.155774563 433.415762689 l 1
 479.39636252 432.457747704 l 1
 479.637157532 431.498908213 l 1
 480.119363918 429.578774842 l 1
 480.360772897 428.617490495 l 1
 480.602384141 427.655400713 l 1
 480.844196461 426.692510236 l 1
 481.086208667 425.728823795 l 1
 481.328419576 424.764346111 l 1
 481.570828003 423.799081892 l 1
 481.813432769 422.83303584 l 1
 482.056232696 421.866212643 l 1
 482.299226608 420.898616981 l 1
 482.542413333 419.930253526 l 1
 482.785791701 418.961126937 l 1
 483.029360543 417.991241866 l 1
 483.273118694 417.020602955 l 1
 483.51706499 416.049214835 l 1
 483.761198271 415.07708213 l 1
 484.005517377 414.104209454 l 1
 484.250021153 413.130601413 l 1
 484.494708443 412.156262601 l 1
 484.739578097 411.181197608 l 1
 484.984628963 410.20541101 l 1
 485.229859896 409.228907379 l 1
 485.475269747 408.251691277 l 1
 485.720857376 407.273767256 l 1
 485.966621639 406.295139862 l 1
 486.212561398 405.315813631 l 1
 486.458675515 404.335793093 l 1
 486.704962856 403.355082769 l 1
 486.951422286 402.37368717 l 1
 487.198052674 401.391610804 l 1
 487.44485289 400.408858168 l 1
 487.691821808 399.425433751 l 1
 487.938958302 398.441342036 l 1
 488.186261247 397.456587499 l 1
 488.433729521 396.471174609 l 1
 488.681362004 395.485107825 l 1
 488.929157578 394.498391602 l 1
 489.425233533 392.523028619 l 1
 489.673511685 391.534390734 l 1
 489.921948471 390.545121156 l 1
 490.17054278 389.555224307 l 1
 490.419293505 388.564704601 l 1
 490.668199539 387.573566443 l 1
 490.917259776 386.581814237 l 1
 491.166473112 385.589452376 l 1
 491.415838446 384.59648525 l 1
 491.665354676 383.602917242 l 1
 491.915020704 382.608752728 l 1
 492.164835431 381.61399608 l 1
 492.414797762 380.618651664 l 1
 492.664906602 379.62272384 l 1
 492.915160856 378.626216961 l 1
 493.165559433 377.629135378 l 1
 493.416101242 376.631483435 l 1
 493.666785194 375.633265469 l 1
 493.917610199 374.634485814 l 1
 494.168575171 373.635148799 l 1
 494.419679025 372.635258747 l 1
 494.670920676 371.634819978 l 1
 494.922299039 370.633836805 l 1
 495.173813034 369.632313537 l 1
 495.42546158 368.630254479 l 1
 495.677243595 367.627663932 l 1
 495.929158002 366.624546191 l 1
 496.181203722 365.620905549 l 1
 496.433379679 364.616746292 l 1
 496.685684797 363.612072704 l 1
 496.938118002 362.606889065 l 1
 497.19067822 361.60119965 l 1
 497.443364378 360.59500873 l 1
 497.696175404 359.588320574 l 1
 497.949110228 358.581139446 l 1
 498.202167779 357.573469607 l 1
 498.455346988 356.565315314 l 1
 498.708646787 355.556680821 l 1
 498.962066109 354.547570378 l 1
 499.215603887 353.537988234 l 1
 499.469259054 352.527938632 l 1
 499.723030547 351.517425814 l 1
 499.976917299 350.506454019 l 1
 500.230918249 349.495027482 l 1
 500.485032332 348.483150437 l 1
 500.739258486 347.470827113 l 1
 500.993595651 346.458061739 l 1
 501.248042763 345.444858539 l 1
 501.502598764 344.431221737 l 1
 501.757262592 343.417155554 l 1
 502.01203319 342.402664208 l 1
 502.266909497 341.387751916 l 1
 502.521890455 340.372422891 l 1
 502.776975007 339.356681347 l 1
 503.032162095 338.340531494 l 1
 503.287450662 337.323977541 l 1
 503.542839652 336.307023696 l 1
 503.798328008 335.289674165 l 1
 504.053914674 334.271933151 l 1
 504.309598596 333.253804858 l 1
 504.565378717 332.235293487 l 1
 504.821253983 331.216403239 l 1
 505.07722334 330.197138313 l 1
 505.333285733 329.177502908 l 1
 505.589440108 328.157501221 l 1
 505.845685411 327.137137449 l 1
 506.102020588 326.116415788 l 1
 506.358444586 325.095340432 l 1
 506.614956351 324.073915577 l 1
 506.871554831 323.052145418 l 1
 507.128238971 322.030034147 l 1
 507.385007719 321.007585958 l 1
 507.641860022 319.984805045 l 1
 507.898794827 318.961695602 l 1
 508.15581108 317.938261821 l 1
 508.412907729 316.914507895 l 1
 508.67008372 315.890438019 l 1
 508.927338 314.866056386 l 1
 509.184669516 313.841367191 l 1
 509.442077215 312.816374627 l 1
 509.699560043 311.791082891 l 1
 509.957116946 310.765496177 l 1
 510.21474687 309.739618683 l 1
 510.472448763 308.713454606 l 1
 510.730221568 307.687008143 l 1
 510.988064231 306.660283495 l 1
 511.245975699 305.633284862 l 1
 511.503954915 304.606016444 l 1
 511.762000824 303.578482446 l 1
 512.020112371 302.550687071 l 1
 512.278288499 301.522634525 l 1
 512.536528151 300.494329014 l 1
 512.794830271 299.465774749 l 1
 513.053193802 298.436975939 l 1
 513.311617685 297.407936798 l 1
 513.570100862 296.378661538 l 1
 513.828642274 295.349154378 l 1
 514.087240862 294.319419536 l 1
 514.345895566 293.289461231 l 1
 514.604605325 292.259283688 l 1
 514.863369078 291.228891133 l 1
 515.122185764 290.198287792 l 1
 515.381054319 289.167477897 l 1
 515.639973681 288.136465681 l 1
 515.898942786 287.105255381 l 1
 516.15796057 286.073851235 l 1
 516.417025966 285.042257486 l 1
 516.67613791 284.010478379 l 1
 516.935295333 282.978518161 l 1
 517.194497169 281.946381086 l 1
 517.453742349 280.914071407 l 1
 517.713029803 279.881593384 l 1
 517.972358461 278.848951279 l 1
 518.231727252 277.816149357 l 1
 518.491135104 276.783191888 l 1
 518.750580943 275.750083146 l 1
 519.010063694 274.716827408 l 1
 519.269582284 273.683428956 l 1
 519.529135635 272.649892075 l 1
 519.788722671 271.616221057 l 1
 520.048342312 270.582420194 l 1
 520.307993479 269.548493787 l 1
 520.567675092 268.514446139 l 1
 520.827386068 267.480281558 l 1
 521.087125324 266.446004357 l 1
 521.346891777 265.411618855 l 1
 521.606684339 264.377129375 l 1
 521.866501925 263.342540245 l 1
 522.126343445 262.307855798 l 1
 522.386207811 261.273080373 l 1
 522.646093932 260.238218314 l 1
 522.906000715 259.203273972 l 1
 523.165927066 258.168251702 l 1
 523.42587189 257.133155864 l 1
 523.68583409 256.097990827 l 1
 523.945812568 255.062760963 l 1
 524.205806225 254.027470651 l 1
 524.465813959 252.992124278 l 1
 524.725834667 251.956726234 l 1
 524.985867245 250.921280918 l 1
 525.245910586 249.885792735 l 1
 525.505963583 248.850266096 l 1
 525.766025126 247.814705419 l 1
 526.026094104 246.77911513 l 1
 526.286169404 245.74349966 l 1
 526.546249911 244.707863449 l 1
 526.806334508 243.672210943 l 1
 527.066422077 242.636546595 l 1
 527.326511498 241.600874868 l 1
 527.586601649 240.56520023 l 1
 527.846691404 239.529527157 l 1
 528.106779639 238.493860134 l 1
 528.366865224 237.458203653 l 1
 528.62694703 236.422562214 l 1
 528.887023925 235.386940326 l 1
 529.147094774 234.351342506 l 1
 529.407158441 233.315773279 l 1
 529.667213787 232.280237178 l 1
 529.927259671 231.244738747 l 1
 530.187294951 230.209282536 l 1
 530.447318482 229.173873105 l 1
 530.707329115 228.138515024 l 1
 530.967325702 227.103212872 l 1
 531.22730709 226.067971235 l 1
 531.487272124 225.032794711 l 1
 531.747219648 223.997687907 l 1
 532.007148503 222.962655438 l 1
 532.267057526 221.927701932 l 1
 532.526945554 220.892832024 l 1
 532.786811419 219.858050361 l 1
 533.046653953 218.823361598 l 1
 533.306471983 217.788770403 l 1
 533.566264335 216.754281453 l 1
 533.826029831 215.719899435 l 1
 534.085767292 214.685629049 l 1
 534.345475534 213.651475004 l 1
 534.605153373 212.61744202 l 1
 534.86479962 211.58353483 l 1
 535.124413085 210.549758176 l 1
 535.383992572 209.516116812 l 1
 535.643536885 208.482615505 l 1
 535.903044824 207.449259033 l 1
 536.162515187 206.416052185 l 1
 536.421946767 205.382999763 l 1
 536.681338356 204.350106582 l 1
 536.940688742 203.317377466 l 1
 537.199996709 202.284817256 l 1
 537.459261039 201.252430803 l 1
 537.718480511 200.220222969 l 1
 537.9776539 199.188198634 l 1
 538.236779977 198.156362686 l 1
 538.495857512 197.12472003 l 1
 538.75488527 196.093275581 l 1
 539.013862012 195.062034271 l 1
 539.272786497 194.031001043 l 1
 539.53165748 193.000180856 l 1
 539.790473712 191.96957868 l 1
 540.049233942 190.939199503 l 1
 540.307936913 189.909048325 l 1
 540.566581365 188.879130161 l 1
 540.825166037 187.84945004 l 1
 541.083689661 186.820013007 l 1
 541.342150966 185.790824122 l 1
 541.600548678 184.761888459 l 1
 541.858881519 183.733211109 l 1
 542.117148206 182.704797176 l 1
 542.375347454 181.676651783 l 1
 542.633477972 180.648780067 l 1
 542.891538467 179.62118718 l 1
 543.149527639 178.593878293 l 1
 543.407444188 177.566858591 l 1
 543.665286805 176.540133277 l 1
 543.923054181 175.51370757 l 1
 544.180745001 174.487586706 l 1
 544.438357945 173.461775939 l 1
 544.695891689 172.436280539 l 1
 544.953344906 171.411105795 l 1
 545.210716263 170.386257013 l 1
 545.468004424 169.361739516 l 1
 545.725208045 168.337558647 l 1
 545.982325783 167.313719765 l 1
 546.239356285 166.290228251 l 1
 546.496298196 165.2670895 l 1
 546.753150156 164.24430893 l 1
 547.009910801 163.221891976 l 1
 547.26657876 162.199844092 l 1
 547.523152658 161.178170754 l 1
 547.779631115 160.156877454 l 1
 548.036012748 159.135969708 l 1
 548.292296167 158.115453048 l 1
 548.548479975 157.09533303 l 1
 548.804562774 156.075615228 l 1
 549.060543158 155.056305238 l 1
 549.316419717 154.037408677 l 1
 549.572191035 153.018931183 l 1
 549.82785569 152.000878416 l 1
 550.083412255 150.983256056 l 1
 550.3388593 149.966069807 l 1
 550.594195385 148.949325393 l 1
 550.849419067 147.933028563 l 1
 551.104528898 146.917185086 l 1
 551.359523423 145.901800756 l 1
 551.61440118 144.886881388 l 1
 551.869160705 143.872432823 l 1
 552.123800523 142.858460923 l 1
 552.378319157 141.844971574 l 1
 552.632715123 140.831970689 l 1
 552.886986929 139.819464201 l 1
 553.14113308 138.807458071 l 1
 553.395152073 137.795958283 l 1
 553.649042397 136.784970848 l 1
 553.902802538 135.774501799 l 1
 554.156430974 134.764557198 l 1
 554.409926176 133.755143132 l 1
 554.663286609 132.746265712 l 1
 554.916510731 131.737931079 l 1
 555.169596994 130.730145397 l 1
 555.422543843 129.72291486 l 1
 555.675349716 128.716245688 l 1
 555.928013043 127.710144128 l 1
 556.180532249 126.704616455 l 1
 556.432905751 125.699668974 l 1
 556.685131959 124.695308016 l 1
 556.937209275 123.691539942 l 1
 557.189136095 122.688371141 l 1
 557.440910806 121.685808032 l 1
 557.69253179 120.683857065 l 1
 557.94399742 119.682524717 l 1
 558.19530606 118.681817497 l 1
 558.476311312 117.562858817 l 1
 558.757415294 116.443506994 l 1
 559.038402062 115.324621917 l 1
 559.31926946 114.206212169 l 1
 559.600015318 113.088286392 l 1
 559.880637451 111.970853287 l 1
 560.161133658 110.853921617 l 1
 560.441501723 109.737500207 l 1
 560.721739415 108.621597941 l 1
 561.001844486 107.50622377 l 1
 561.281814673 106.391386707 l 1
 561.561647696 105.277095828 l 1
 561.84134126 104.163360277 l 1
 562.120893051 103.050189265 l 1
 562.400300739 101.937592068 l 1
 562.679561978 100.825578031 l 1
 562.958674403 99.7141565706 l 1
 563.237635632 98.6033371703 l 1
 563.516443266 97.4931293866 l 1
 563.795094886 96.3835428475 l 1
 564.073588057 95.2745872545 l 1
 564.351920323 94.166272383 l 1
 564.630089211 93.0586080834 l 1
 564.908092228 91.9516042825 l 1
 565.185926861 90.8452709843 l 1
 565.463590579 89.739618271 l 1
 565.74108083 88.6346563043 l 1
 566.018395041 87.5303953264 l 1
 566.29553062 86.426845661 l 1
 566.572484954 85.3240177148 l 1
 566.849255408 84.2219219783 l 1
 567.125839326 83.1205690272 l 1
 567.402234031 82.0199695236 l 1
 567.678436824 80.9201342169 l 1
 567.954444981 79.8210739457 l 1
 568.23025576 78.7227996385 l 1
 568.505866392 77.6253223151 l 1
 568.781274087 76.5286530882 l 1
 569.056476031 75.4328031643 l 1
 569.331469385 74.3377838455 l 1
 569.606251286 73.2436065305 l 1
 569.880818848 72.1502827164 l 1
 570.155169159 71.0578239996 l 1
 570.42929928 69.9662420778 l 1
 570.703206248 68.8755487513 l 1
 570.976887074 67.7857559242 l 1
 571.250338742 66.6968756066 l 1
 571.523558209 65.6089199153 l 1
 571.796542404 64.5219010763 l 1
 572.06928823 63.4358314258 l 1
 572.341792561 62.3507234119 l 1
 572.614052241 61.2665895967 l 1
 572.886064088 60.1834426575 l 1
 573.157824888 59.101295389 l 1
 573.429331398 58.0201607046 l 1
 573.700580344 56.9400516387 l 1
 573.971568424 55.8609813482 l 1
 574.242292301 54.7829631145 l 1
 574.512748608 53.7060103456 l 1
 574.782933947 52.6301365776 l 1
 575.052844884 51.555355477 l 1
 575.322477955 50.4816808428 l 1
 575.591829661 49.4091266085 l 1
 575.860896468 48.3377068439 l 1
 576.129674808 47.2674357577 l 1
 576.398161077 46.1983276995 l 1
 576.666351637 45.1303971619 l 1
 576.93424281 44.063658783 l 1
 577.201830884 42.9981273485 l 1
 577.469112108 41.9338177945 l 1
 577.736082693 40.8707452091 l 1
 578.00273881 39.8089248358 l 1
 578.269076593 38.7483720755 l 1
 578.535092133 37.6891024889 l 1
 578.800781482 36.6311317996 l 1
 579.06614065 35.5744758965 l 1
 579.331165604 34.5191508364 l 1
 579.595852269 33.4651728472 l 1
 579.860196526 32.4125583301 l 1
 580.124194212 31.3613238633 l 1
 580.387841119 30.3114862041 l 1
 580.651132993 29.2630622926 l 1
 580.914065532 28.2160692544 l 1
 581.176634389 27.1705244041 l 1
 581.438835168 26.126445248 l 1
 581.700663422 25.0838494878 l 1
 581.962114657 24.0427550239 l 1
 582.223184327 23.0031799586 l 1
 582.483867834 21.9651425999 l 1
 582.744160527 20.9286614648 l 1
 583.004057704 19.8937552833 l 1
 583.263554606 18.8604430018 l 1
 583.52264642 17.828743787 l 1
 583.781328277 16.7986770299 l 1
 584.039595248 15.77026235 l 1
 584.29744235 14.7435195987 l 1
 584.554864537 13.7184688642 l 1
 584.811856704 12.6951304754 l 1
 585.068413684 11.6735250065 l 1
 585.324530249 10.6536732811 l 1
 585.580201104 9.63559637711 l 1
 585.835420891 8.61931563132 l 1
 586.090184187 7.60485264414 l 1
 586.344485499 6.59222928456 l 1
 586.598319266 5.58146769515 l 1
 586.851679857 4.57259029717 l 1
 587.104561572 3.56561979585 l 1
 587.356958635 2.56057918577 l 1
 587.608865198 1.55749175637 l 1
 588 0 l 1,0,0
 699 0 l 1,0,0
 851 734 l 1,0,0
 762 734 l 1,0,0
 685 334 l 2,0,0
 664 217 664 217 643 97 c 1,0,0
 638 97 l 1,0,0
 607 244 607 244 586 334 c 2,0,0
 585.757639642 334.950430468 l 1
 585.515034863 335.901819475 l 1
 585.272187182 336.854161056 l 1
 585.029098118 337.807449262 l 1
 584.785769183 338.76167816 l 1
 584.542201886 339.716841834 l 1
 584.298397732 340.67293438 l 1
 584.054358222 341.629949914 l 1
 583.810084852 342.587882564 l 1
 583.565579117 343.546726473 l 1
 583.320842506 344.506475801 l 1
 582.830682594 346.428667419 l 1
 582.585262254 347.3910981 l 1
 582.339616959 348.354410978 l 1
 582.09374818 349.318600285 l 1
 581.847657385 350.283660264 l 1
 581.601346039 351.249585174 l 1
 581.354815601 352.216369285 l 1
 581.108067529 353.184006882 l 1
 580.861103278 354.152492262 l 1
 580.613924298 355.121819737 l 1
 580.366532036 356.09198363 l 1
 580.118927938 357.062978277 l 1
 579.871113443 358.034798027 l 1
 579.62308999 359.007437241 l 1
 579.374859014 359.980890292 l 1
 579.126421946 360.955151565 l 1
 578.877780215 361.930215458 l 1
 578.628935247 362.90607638 l 1
 578.379888465 363.88272875 l 1
 578.130641288 364.860167001 l 1
 577.881195133 365.838385576 l 1
 577.631551415 366.817378929 l 1
 577.381711545 367.797141525 l 1
 577.131676932 368.77766784 l 1
 576.88144898 369.758952361 l 1
 576.631029095 370.740989584 l 1
 576.380418676 371.723774016 l 1
 576.129619122 372.707300176 l 1
 575.878631827 373.691562591 l 1
 575.627458185 374.676555798 l 1
 575.376099586 375.662274345 l 1
 575.124557418 376.648712788 l 1
 574.872833067 377.635865693 l 1
 574.620927916 378.623727636 l 1
 574.368843347 379.612293202 l 1
 574.116580736 380.601556983 l 1
 573.864141462 381.591513583 l 1
 573.611526898 382.582157613 l 1
 573.358738415 383.573483692 l 1
 573.105777385 384.565486448 l 1
 572.852645174 385.558160518 l 1
 572.599343148 386.551500547 l 1
 572.345872671 387.545501186 l 1
 572.092235104 388.540157096 l 1
 571.838431807 389.535462946 l 1
 571.584464138 390.53141341 l 1
 571.330333453 391.528003172 l 1
 571.076041104 392.525226922 l 1
 570.821588446 393.523079358 l 1
 570.566976827 394.521555183 l 1
 570.312207597 395.52064911 l 1
 570.057282102 396.520355856 l 1
 569.802201689 397.520670145 l 1
 569.546967699 398.521586709 l 1
 569.291581475 399.523100284 l 1
 569.036044359 400.525205615 l 1
 568.780357687 401.527897451 l 1
 568.524522799 402.531170546 l 1
 568.268541029 403.535019663 l 1
 568.012413713 404.539439567 l 1
 567.756142183 405.544425031 l 1
 567.499727771 406.549970833 l 1
 567.243171808 407.556071754 l 1
 566.986475622 408.562722584 l 1
 566.729640542 409.569918113 l 1
 566.472667894 410.57765314 l 1
 566.215559003 411.585922467 l 1
 565.958315195 412.5947209 l 1
 565.700937791 413.60404325 l 1
 565.443428115 414.613884333 l 1
 565.185787486 415.624238968 l 1
 564.928017226 416.635101978 l 1
 564.670118654 417.646468189 l 1
 564.412093087 418.658332434 l 1
 564.153941843 419.670689546 l 1
 563.895666237 420.683534363 l 1
 563.637267587 421.696861726 l 1
 563.378747205 422.710666479 l 1
 563.120106407 423.724943471 l 1
 562.861346505 424.739687549 l 1
 562.602468812 425.754893569 l 1
 562.343474639 426.770556385 l 1
 562.084365299 427.786670855 l 1
 561.825142101 428.803231839 l 1
 561.565806355 429.820234201 l 1
 561.306359372 430.837672805 l 1
 561.046802459 431.855542517 l 1
 560.787136926 432.873838206 l 1
 560.52736408 433.892554743 l 1
 560.26748523 434.911686997 l 1
 560.007501682 435.931229844 l 1
 559.747414744 436.951178157 l 1
 559.487225723 437.971526811 l 1
 559.226935924 438.992270684 l 1
 558.966546654 440.013404651 l 1
 558.70605922 441.034923593 l 1
 558.445474927 442.056822386 l 1
 558.18479508 443.079095911 l 1
 557.924020987 444.101739047 l 1
 557.663153951 445.124746673 l 1
 557.40219528 446.148113669 l 1
 557.141146278 447.171834916 l 1
 556.880008252 448.195905291 l 1
 556.618782507 449.220319675 l 1
 556.357470348 450.245072946 l 1
 556.096073084 451.270159981 l 1
 555.834592018 452.295575659 l 1
 555.573028459 453.321314855 l 1
 555.311383712 454.347372445 l 1
 555.049659086 455.373743302 l 1
 554.787855886 456.4004223 l 1
 554.525975422 457.42740431 l 1
 554.264019002 458.454684201 l 1
 554.001987933 459.482256841 l 1
 553.739883525 460.510117097 l 1
 553.477707088 461.538259833 l 1
 553.215459933 462.566679911 l 1
 552.953143368 463.595372189 l 1
 552.690758707 464.624331527 l 1
 552.428307261 465.653552777 l 1
 552.165790343 466.683030792 l 1
 551.903209267 467.712760422 l 1
 551.640565345 468.742736512 l 1
 551.377859895 469.772953905 l 1
 551.115094231 470.803407441 l 1
 550.85226967 471.834091956 l 1
 550.58938753 472.865002283 l 1
 550.32644913 473.896133251 l 1
 550.063455788 474.927479685 l 1
 549.800408826 475.959036405 l 1
 549.537309566 476.99079823 l 1
 549.274159329 478.02275997 l 1
 549.010959441 479.054916436 l 1
 548.747711226 480.08726243 l 1
 548.484416009 481.11979275 l 1
 548.22107512 482.152502192 l 1
 547.957689887 483.185385544 l 1
 547.694261639 484.21843759 l 1
 547.430791708 485.251653108 l 1
 547.167281428 486.28502687 l 1
 546.903732132 487.318553646 l 1
 546.640145156 488.352228194 l 1
 546.376521838 489.386045273 l 1
 546.112863517 490.41999963 l 1
 545.849171532 491.454086008 l 1
 545.585447226 492.488299146 l 1
 545.321691944 493.522633772 l 1
 545.057907029 494.557084611 l 1
 544.79409383 495.591646379 l 1
 544.530253696 496.626313785 l 1
 544.266387978 497.661081532 l 1
 544.002498027 498.695944315 l 1
 543.7385852 499.730896822 l 1
 543.474650852 500.765933732 l 1
 543.210696342 501.801049717 l 1
 542.946723031 502.836239441 l 1
 542.682732282 503.87149756 l 1
 542.418725459 504.906818722 l 1
 542.154703929 505.942197566 l 1
 541.890669062 506.977628722 l 1
 541.62662223 508.013106811 l 1
 541.362564805 509.048626446 l 1
 541.098498165 510.08418223 l 1
 540.834423687 511.119768759 l 1
 540.570342753 512.155380615 l 1
 540.306256745 513.191012374 l 1
 540.042167051 514.226658601 l 1
 539.778075057 515.262313851 l 1
 539.513982156 516.297972669 l 1
 539.249889741 517.333629589 l 1
 538.985799209 518.369279135 l 1
 538.721711957 519.40491582 l 1
 538.45762939 520.440534147 l 1
 538.19355291 521.476128607 l 1
 537.929483927 522.511693679 l 1
 537.665423849 523.547223832 l 1
 537.401374092 524.582713523 l 1
 537.13733607 525.618157198 l 1
 536.873311205 526.653549288 l 1
 536.609300918 527.688884214 l 1
 536.345306635 528.724156386 l 1
 536.081329786 529.759360199 l 1
 535.817371803 530.794490035 l 1
 535.553434121 531.829540266 l 1
 535.289518179 532.864505249 l 1
 535.02562542 533.899379325 l 1
 534.761757289 534.934156827 l 1
 534.497915236 535.96883207 l 1
 534.234100713 537.003399357 l 1
 533.970315178 538.037852975 l 1
 533.70656009 539.072187199 l 1
 533.442836913 540.106396288 l 1
 533.179147114 541.140474487 l 1
 532.915492166 542.174416026 l 1
 532.651873543 543.208215118 l 1
 532.388292724 544.241865963 l 1
 532.124751194 545.275362745 l 1
 531.861250438 546.30869963 l 1
 531.597791949 547.341870772 l 1
 531.334377222 548.374870304 l 1
 531.071007756 549.407692347 l 1
 530.807685055 550.440331002 l 1
 530.544410628 551.472780355 l 1
 530.281185987 552.505034474 l 1
 530.018012649 553.53708741 l 1
 529.754892135 554.568933196 l 1
 529.491825972 555.600565848 l 1
 529.228815691 556.631979362 l 1
 528.965862826 557.66316772 l 1
 528.702968918 558.69412488 l 1
 528.440135511 559.724844785 l 1
 528.177364155 560.755321358 l 1
 527.914656404 561.785548502 l 1
 527.652013819 562.815520102 l 1
 527.389437963 563.845230022 l 1
 527.126930406 564.874672107 l 1
 526.864492724 565.903840181 l 1
 526.602126495 566.932728048 l 1
 526.339833306 567.961329491 l 1
 526.077614746 568.989638271 l 1
 525.815472413 570.017648131 l 1
 525.553407907 571.045352788 l 1
 525.291422836 572.072745942 l 1
 525.029518812 573.099821267 l 1
 524.767697454 574.126572416 l 1
 524.505960386 575.152993021 l 1
 524.244309237 576.179076688 l 1
 523.982745645 577.204817003 l 1
 523.72127125 578.230207528 l 1
 523.459887701 579.255241798 l 1
 523.198596651 580.279913329 l 1
 522.937399761 581.304215609 l 1
 522.676298698 582.328142104 l 1
 522.415295133 583.351686252 l 1
 522.154390747 584.37484147 l 1
 521.893587224 585.397601146 l 1
 521.632886258 586.419958643 l 1
 521.372289547 587.4419073 l 1
 521.111798797 588.463440428 l 1
 520.85141572 589.48455131 l 1
 520.591142035 590.505233205 l 1
 520.330979469 591.525479343 l 1
 520.070929756 592.545282927 l 1
 519.810994634 593.56463713 l 1
 519.551175853 594.583535101 l 1
 519.291475167 595.601969955 l 1
 519.031894338 596.619934783 l 1
 518.772435137 597.637422643 l 1
 518.51309934 598.654426566 l 1
 518.253888733 599.670939552 l 1
 517.994805107 600.686954571 l 1
 517.735850265 601.702464561 l 1
 517.477026013 602.71746243 l 1
 517.21833417 603.731941056 l 1
 516.959776558 604.745893283 l 1
 516.701355011 605.759311924 l 1
 516.44307137 606.772189759 l 1
 516.184927484 607.784519536 l 1
 515.926925211 608.796293969 l 1
 515.669066418 609.807505738 l 1
 515.411352979 610.818147491 l 1
 515.153786778 611.82821184 l 1
 514.896369709 612.837691362 l 1
 514.639103672 613.846578599 l 1
 514.381990579 614.854866058 l 1
 514.12503235 615.862546209 l 1
 513.868230913 616.869611488 l 1
 513.611588207 617.876054291 l 1
 513.355106181 618.881866978 l 1
 513.098786793 619.887041872 l 1
 512.842632009 620.891571258 l 1
 512.586643807 621.89544738 l 1
 512.330824175 622.898662446 l 1
 512.075175109 623.901208623 l 1
 511.819698618 624.903078039 l 1
 511.564396718 625.904262779 l 1
 511.129876092 627.608266633 l 1
 510.844463135 628.72753405 l 1
 510.559182031 629.846284394 l 1
 510.274035456 630.964507174 l 1
 509.989026105 632.082191817 l 1
 509.704156696 633.199327671 l 1
 509.419429964 634.315904001 l 1
 509.13484867 635.431909989 l 1
 508.850415593 636.547334732 l 1
 508.566133535 637.662167241 l 1
 508.282005321 638.776396441 l 1
 507.998033797 639.890011167 l 1
 507.714221833 641.003000165 l 1
 507.430572322 642.11535209 l 1
 507.147088181 643.227055505 l 1
 506.86377235 644.338098878 l 1
 506.580627793 645.448470582 l 1
 506.297657502 646.558158894 l 1
 506.014864488 647.667151992 l 1
 505.732251794 648.775437954 l 1
 505.449822484 649.88300476 l 1
 505.16757965 650.989840282 l 1
 504.885526412 652.095932291 l 1
 504.603665913 653.201268453 l 1
 504.322001328 654.305836323 l 1
 504.040535857 655.409623349 l 1
 503.759272729 656.512616869 l 1
 503.478215203 657.614804106 l 1
 503.197366564 658.71617217 l 1
 502.91673013 659.816708054 l 1
 502.636309247 660.916398634 l 1
 502.356107293 662.015230666 l 1
 502.076127676 663.113190783 l 1
 501.796373836 664.210265495 l 1
 501.516849245 665.306441186 l 1
 501.237557407 666.401704114 l 1
 500.958501859 667.496040405 l 1
 500.679686174 668.589436055 l 1
 500.401113957 669.681876925 l 1
 500.122788847 670.773348739 l 1
 499.844714519 671.863837086 l 1
 499.566894686 672.95332741 l 1
 499.289333094 674.041805015 l 1
 499.012033528 675.12925506 l 1
 498.734999811 676.215662555 l 1
 498.458235802 677.301012361 l 1
 498.181745402 678.385289186 l 1
 497.905532549 679.468477582 l 1
 497.629601223 680.550561945 l 1
 497.353955443 681.63152651 l 1
 497.078599271 682.711355349 l 1
 496.803536811 683.790032369 l 1
 496.528772209 684.867541307 l 1
 496.254309657 685.943865729 l 1
 495.980153389 687.018989027 l 1
 495.706307685 688.092894416 l 1
 495.432776872 689.16556493 l 1
 495.159565323 690.23698342 l 1
 494.886677458 691.307132549 l 1
 494.614117747 692.375994792 l 1
 494.341890708 693.443552429 l 1
 494.070000908 694.509787544 l 1
 493.798452969 695.57468202 l 1
 493.527251562 696.638217539 l 1
 493.25640141 697.700375572 l 1
 492.985907293 698.761137381 l 1
 492.715774042 699.820484013 l 1
 492.446006548 700.878396295 l 1
 492.176609755 701.934854834 l 1
 491.907588668 702.989840007 l 1
 491.638948348 704.043331961 l 1
 491.370693917 705.095310611 l 1
 491.102830559 706.145755627 l 1
 490.83536352 707.19464644 l 1
 490.568298109 708.241962229 l 1
 490.301639698 709.287681922 l 1
 490.035393728 710.331784189 l 1
 489.769565703 711.374247435 l 1
 489.5041612 712.415049801 l 1
 489.239185862 713.454169151 l 1
 488.974645404 714.491583074 l 1
 488.710545613 715.527268873 l 1
 488.446892351 716.561203566 l 1
 488.183691553 717.593363871 l 1
 487.920949233 718.623726211 l 1
 487.65867148 719.652266698 l 1
 487.396864466 720.678961135 l 1
 487.135534442 721.703785006 l 1
 486.874687743 722.726713468 l 1
 486.614330787 723.74772135 l 1
 486.354470079 724.76678314 l 1
 486.095112214 725.783872982 l 1
 485.836263874 726.798964669 l 1
 485.577931832 727.812031634 l 1
 485.320122958 728.823046943 l 1
 485.062844215 729.831983289 l 1
 484.806102663 730.838812981 l 1
 484.549905462 731.843507942 l 1
 484.294259875 732.846039691 l 1
 484 734 l 1,0,0
 399 734 l 1,0,0
 298 334 l 2,0,0
 262 176 262 176 245 97 c 1,0,0
 241 97 l 1,0,0
 234 137 234 137 219.5 215.5 c 0
 205 294 205 294 198 334 c 2,0,0
 197.817039383 334.950430468 l 1
 197.633894273 335.901819475 l 1
 197.45056582 336.854161056 l 1
 197.267055167 337.807449262 l 1
 197.083363458 338.76167816 l 1
 196.89949183 339.716841834 l 1
 196.715441421 340.67293438 l 1
 196.531213362 341.629949914 l 1
 196.346808785 342.587882564 l 1
 196.162228816 343.546726473 l 1
 195.977474579 344.506475801 l 1
 195.607447787 346.428667419 l 1
 195.422177466 347.3910981 l 1
 195.236737347 348.354410978 l 1
 195.051128541 349.318600285 l 1
 194.865352155 350.283660264 l 1
 194.679409295 351.249585174 l 1
 194.493301064 352.216369285 l 1
 194.307028561 353.184006882 l 1
 194.120592885 354.152492262 l 1
 193.933995129 355.121819737 l 1
 193.747236388 356.09198363 l 1
 193.56031775 357.062978277 l 1
 193.373240304 358.034798027 l 1
 193.186005136 359.007437241 l 1
 192.998613328 359.980890292 l 1
 192.81106596 360.955151565 l 1
 192.623364112 361.930215458 l 1
 192.43550886 362.90607638 l 1
 192.247501277 363.88272875 l 1
 192.059342436 364.860167001 l 1
 191.871033405 365.838385576 l 1
 191.682575253 366.817378929 l 1
 191.493969045 367.797141525 l 1
 191.305215843 368.77766784 l 1
 191.11631671 369.758952361 l 1
 190.927272705 370.740989584 l 1
 190.738084884 371.723774016 l 1
 190.548754304 372.707300176 l 1
 190.359282016 373.691562591 l 1
 190.169669074 374.676555798 l 1
 189.979916526 375.662274345 l 1
 189.79002542 376.648712788 l 1
 189.599996802 377.635865693 l 1
 189.409831716 378.623727636 l 1
 189.219531205 379.612293202 l 1
 189.029096309 380.601556983 l 1
 188.838528067 381.591513583 l 1
 188.647827516 382.582157613 l 1
 188.456995692 383.573483692 l 1
 188.266033629 384.565486448 l 1
 188.07494236 385.558160518 l 1
 187.883722915 386.551500547 l 1
 187.692376323 387.545501186 l 1
 187.500903612 388.540157096 l 1
 187.309305809 389.535462946 l 1
 187.117583939 390.53141341 l 1
 186.925739024 391.528003172 l 1
 186.733772087 392.525226922 l 1
 186.541684149 393.523079358 l 1
 186.349476228 394.521555183 l 1
 186.157149344 395.52064911 l 1
 185.964704511 396.520355856 l 1
 185.772142747 397.520670145 l 1
 185.579465065 398.521586709 l 1
 185.386672478 399.523100284 l 1
 185.193765998 400.525205615 l 1
 185.000746635 401.527897451 l 1
 184.8076154 402.531170546 l 1
 184.6143733 403.535019663 l 1
 184.421021343 404.539439567 l 1
 184.227560534 405.544425031 l 1
 184.033991881 406.549970833 l 1
 183.840316385 407.556071754 l 1
 183.646535052 408.562722584 l 1
 183.452648882 409.569918113 l 1
 183.258658878 410.57765314 l 1
 183.064566041 411.585922467 l 1
 182.870371369 412.5947209 l 1
 182.676075861 413.60404325 l 1
 182.481680516 414.613884333 l 1
 182.287186331 415.624238968 l 1
 182.092594301 416.635101978 l 1
 181.897905424 417.646468189 l 1
 181.703120693 418.658332434 l 1
 181.508241104 419.670689546 l 1
 181.313267649 420.683534363 l 1
 181.118201322 421.696861726 l 1
 180.923043115 422.710666479 l 1
 180.72779402 423.724943471 l 1
 180.532455028 424.739687549 l 1
 180.33702713 425.754893569 l 1
 180.141511316 426.770556385 l 1
 179.945908576 427.786670855 l 1
 179.750219899 428.803231839 l 1
 179.554446274 429.820234201 l 1
 179.35858869 430.837672805 l 1
 179.162648134 431.855542517 l 1
 178.966625594 432.873838206 l 1
 178.770522058 433.892554743 l 1
 178.574338513 434.911686997 l 1
 178.378075946 435.931229844 l 1
 178.181735343 436.951178157 l 1
 177.98531769 437.971526811 l 1
 177.788823975 438.992270684 l 1
 177.592255182 440.013404651 l 1
 177.395612298 441.034923593 l 1
 177.198896309 442.056822386 l 1
 177.002108199 443.079095911 l 1
 176.805248956 444.101739047 l 1
 176.608319564 445.124746673 l 1
 176.411321008 446.148113669 l 1
 176.214254276 447.171834916 l 1
 176.017120351 448.195905291 l 1
 175.819920221 449.220319675 l 1
 175.622654869 450.245072946 l 1
 175.425325284 451.270159981 l 1
 175.22793245 452.295575659 l 1
 175.030477354 453.321314855 l 1
 174.832960982 454.347372445 l 1
 174.635384321 455.373743302 l 1
 174.437748357 456.4004223 l 1
 174.240054079 457.42740431 l 1
 174.042302473 458.454684201 l 1
 173.844494528 459.482256841 l 1
 173.64663123 460.510117097 l 1
 173.44871357 461.538259833 l 1
 173.250742536 462.566679911 l 1
 173.052719118 463.595372189 l 1
 172.854644305 464.624331527 l 1
 172.656519087 465.653552777 l 1
 172.458344457 466.683030792 l 1
 172.260121404 467.712760422 l 1
 172.061850922 468.742736512 l 1
 171.863534002 469.772953905 l 1
 171.665171639 470.803407441 l 1
 171.466764825 471.834091956 l 1
 171.268314556 472.865002283 l 1
 171.069821828 473.896133251 l 1
 170.871287635 474.927479685 l 1
 170.672712975 475.959036405 l 1
 170.474098846 476.99079823 l 1
 170.275446246 478.02275997 l 1
 170.076756174 479.054916436 l 1
 169.878029631 480.08726243 l 1
 169.679267618 481.11979275 l 1
 169.480471137 482.152502192 l 1
 169.28164119 483.185385544 l 1
 169.082778783 484.21843759 l 1
 168.883884919 485.251653108 l 1
 168.684960606 486.28502687 l 1
 168.48600685 487.318553646 l 1
 168.28702466 488.352228194 l 1
 168.088015045 489.386045273 l 1
 167.888979016 490.41999963 l 1
 167.689917584 491.454086008 l 1
 167.490831763 492.488299146 l 1
 167.291722567 493.522633772 l 1
 167.092591013 494.557084611 l 1
 166.893438115 495.591646379 l 1
 166.694264894 496.626313785 l 1
 166.495072369 497.661081532 l 1
 166.29586156 498.695944315 l 1
 166.096633491 499.730896822 l 1
 165.897389185 500.765933732 l 1
 165.698129669 501.801049717 l 1
 165.498855968 502.836239441 l 1
 165.299569113 503.87149756 l 1
 165.100270132 504.906818722 l 1
 164.900960058 505.942197566 l 1
 164.701639925 506.977628722 l 1
 164.502310768 508.013106811 l 1
 164.302973624 509.048626446 l 1
 164.103629531 510.08418223 l 1
 163.90427953 511.119768759 l 1
 163.704924664 512.155380615 l 1
 163.505565976 513.191012374 l 1
 163.306204514 514.226658601 l 1
 163.106841324 515.262313851 l 1
 162.907477458 516.297972669 l 1
 162.708113966 517.333629589 l 1
 162.508751904 518.369279135 l 1
 162.309392327 519.40491582 l 1
 162.110036293 520.440534147 l 1
 161.910684864 521.476128607 l 1
 161.7113391 522.511693679 l 1
 161.512000068 523.547223832 l 1
 161.312668834 524.582713523 l 1
 161.113346467 525.618157198 l 1
 160.914034039 526.653549288 l 1
 160.714732624 527.688884214 l 1
 160.515443298 528.724156386 l 1
 160.31616714 529.759360199 l 1
 160.116905231 530.794490035 l 1
 159.917658654 531.829540266 l 1
 159.718428496 532.864505249 l 1
 159.519215846 533.899379325 l 1
 159.320021795 534.934156827 l 1
 159.120847437 535.96883207 l 1
 158.921693868 537.003399357 l 1
 158.722562189 538.037852975 l 1
 158.523453501 539.072187199 l 1
 158.324368909 540.106396288 l 1
 158.125309521 541.140474487 l 1
 157.926276448 542.174416026 l 1
 157.727270803 543.208215118 l 1
 157.528293704 544.241865963 l 1
 157.329346269 545.275362745 l 1
 157.130429621 546.30869963 l 1
 156.931544887 547.341870772 l 1
 156.732693194 548.374870304 l 1
 156.533875675 549.407692347 l 1
 156.335093465 550.440331002 l 1
 156.136347702 551.472780355 l 1
 155.937639529 552.505034474 l 1
 155.73897009 553.53708741 l 1
 155.540340534 554.568933196 l 1
 155.341752013 555.600565848 l 1
 155.143205682 556.631979362 l 1
 154.9447027 557.66316772 l 1
 154.74624423 558.69412488 l 1
 154.547831438 559.724844785 l 1
 154.349465493 560.755321358 l 1
 154.151147569 561.785548502 l 1
 153.952878843 562.815520102 l 1
 153.754660496 563.845230022 l 1
 153.556493713 564.874672107 l 1
 153.358379683 565.903840181 l 1
 153.160319598 566.932728048 l 1
 152.962314655 567.961329491 l 1
 152.764366055 568.989638271 l 1
 152.566475002 570.017648131 l 1
 152.368642706 571.045352788 l 1
 152.170870379 572.072745942 l 1
 151.973159239 573.099821267 l 1
 151.775510508 574.126572416 l 1
 151.577925412 575.152993021 l 1
 151.38040518 576.179076688 l 1
 151.182951048 577.204817003 l 1
 150.985564256 578.230207528 l 1
 150.788246046 579.255241798 l 1
 150.590997669 580.279913329 l 1
 150.393820376 581.304215609 l 1
 150.196715426 582.328142104 l 1
 149.999684081 583.351686252 l 1
 149.802727609 584.37484147 l 1
 149.605847284 585.397601146 l 1
 149.409044381 586.419958643 l 1
 149.212320183 587.4419073 l 1
 149.015675978 588.463440428 l 1
 148.819113059 589.48455131 l 1
 148.622632723 590.505233205 l 1
 148.426236274 591.525479343 l 1
 148.229925019 592.545282927 l 1
 148.033700273 593.56463713 l 1
 147.837563355 594.583535101 l 1
 147.641515589 595.601969955 l 1
 147.445558306 596.619934783 l 1
 147.249692842 597.637422643 l 1
 147.053920539 598.654426566 l 1
 146.858242743 599.670939552 l 1
 146.662660808 600.686954571 l 1
 146.467176093 601.702464561 l 1
 146.271789964 602.71746243 l 1
 146.07650379 603.731941056 l 1
 145.881318951 604.745893283 l 1
 145.686236829 605.759311924 l 1
 145.491258813 606.772189759 l 1
 145.2963863 607.784519536 l 1
 145.101620692 608.796293969 l 1
 144.906963398 609.807505738 l 1
 144.712415834 610.818147491 l 1
 144.517979421 611.82821184 l 1
 144.323655589 612.837691362 l 1
 144.129445772 613.846578599 l 1
 143.935351413 614.854866058 l 1
 143.741373962 615.862546209 l 1
 143.547514874 616.869611488 l 1
 143.353775613 617.876054291 l 1
 143.16015765 618.881866978 l 1
 142.966662462 619.887041872 l 1
 142.773291535 620.891571258 l 1
 142.580046362 621.89544738 l 1
 142.386928441 622.898662446 l 1
 142.193939281 623.901208623 l 1
 142.001080398 624.903078039 l 1
 141.808353314 625.904262779 l 1
 141.480334239 627.608266633 l 1
 141.264876356 628.72753405 l 1
 141.049518008 629.846284394 l 1
 140.834261216 630.964507174 l 1
 140.619108015 632.082191817 l 1
 140.404060454 633.199327671 l 1
 140.1891206 634.315904001 l 1
 139.974290535 635.431909989 l 1
 139.759572359 636.547334732 l 1
 139.544968186 637.662167241 l 1
 139.330480147 638.776396441 l 1
 139.116110393 639.890011167 l 1
 138.90186109 641.003000165 l 1
 138.68773442 642.11535209 l 1
 138.473732586 643.227055505 l 1
 138.259857807 644.338098878 l 1
 138.046112322 645.448470582 l 1
 137.832498386 646.558158894 l 1
 137.619018276 647.667151992 l 1
 137.405674285 648.775437954 l 1
 137.192468729 649.88300476 l 1
 136.979403941 650.989840282 l 1
 136.766482275 652.095932291 l 1
 136.553706106 653.201268453 l 1
 136.341077828 654.305836323 l 1
 136.128599858 655.409623349 l 1
 135.916274633 656.512616869 l 1
 135.704104612 657.614804106 l 1
 135.492092278 658.71617217 l 1
 135.280240132 659.816708054 l 1
 135.068550702 660.916398634 l 1
 134.857026537 662.015230666 l 1
 134.645670209 663.113190783 l 1
 134.434484316 664.210265495 l 1
 134.223471477 665.306441186 l 1
 134.012634339 666.401704114 l 1
 133.801975572 667.496040405 l 1
 133.591497871 668.589436055 l 1
 133.381203958 669.681876925 l 1
 133.171096581 670.773348739 l 1
 132.961178514 671.863837086 l 1
 132.751452558 672.95332741 l 1
 132.541921543 674.041805015 l 1
 132.332588325 675.12925506 l 1
 132.123455789 676.215662555 l 1
 131.914526849 677.301012361 l 1
 131.705804449 678.385289186 l 1
 131.497291563 679.468477582 l 1
 131.288991194 680.550561945 l 1
 131.080906376 681.63152651 l 1
 130.873040175 682.711355349 l 1
 130.66539569 683.790032369 l 1
 130.457976049 684.867541307 l 1
 130.250784418 685.943865729 l 1
 130.043823992 687.018989027 l 1
 129.837098003 688.092894416 l 1
 129.630609715 689.16556493 l 1
 129.424362431 690.23698342 l 1
 129.218359486 691.307132549 l 1
 129.012604256 692.375994792 l 1
 128.807100149 693.443552429 l 1
 128.601850615 694.509787544 l 1
 128.396859141 695.57468202 l 1
 128.192129254 696.638217539 l 1
 127.987664519 697.700375572 l 1
 127.783468543 698.761137381 l 1
 127.579544975 699.820484013 l 1
 127.375897505 700.878396295 l 1
 127.172529866 701.934854834 l 1
 126.969445836 702.989840007 l 1
 126.766649234 704.043331961 l 1
 126.564143928 705.095310611 l 1
 126.361933831 706.145755627 l 1
 126.160022902 707.19464644 l 1
 125.958415149 708.241962229 l 1
 125.757114628 709.287681922 l 1
 125.556125444 710.331784189 l 1
 125.355451754 711.374247435 l 1
 125.155097767 712.415049801 l 1
 124.955067742 713.454169151 l 1
 124.755365993 714.491583074 l 1
 124.555996889 715.527268873 l 1
 124.356964855 716.561203566 l 1
 124.158274371 717.593363871 l 1
 123.959929976 718.623726211 l 1
 123.761936267 719.652266698 l 1
 123.564297903 720.678961135 l 1
 123.367019602 721.703785006 l 1
 123.170106147 722.726713468 l 1
 122.973562381 723.74772135 l 1
 122.777393217 724.76678314 l 1
 122.58160363 725.783872982 l 1
 122.386198666 726.798964669 l 1
 122.191183438 727.812031634 l 1
 121.99656313 728.823046943 l 1
 121.802342999 729.831983289 l 1
 121.608528375 730.838812981 l 1
 121.415124662 731.843507942 l 1
 121.222137342 732.846039691 l 1
 121 734 l 1,0,0
 26 734 l 1,0,0
EndSplineSet
EndChar

StartChar: X
Encoding: 88 88 59
Width: 573
VWidth: 1000
Flags: W
LayerCount: 2
Fore
SplineSet
231 379 m 1,0,0
 17 0 l 1,0,0
 114 0 l 1,0,0
 220 198 l 2,0,0
 258 272 258 272 279 316 c 1,0,0
 283 316 l 1,0,0
 324 241 324 241 346 198 c 2,0,0
 454 0 l 1,0,0
 556 0 l 1,0,0
 342 374 l 1,0,0
 542 734 l 1,0,0
 445 734 l 1,0,0
 347 546 l 2,0,0
 337 526 337 526 295 439 c 1,0,0
 291 439 l 1,0,0
 278 462 278 462 259.5 497 c 0
 241 532 241 532 233 546 c 0,0,0
 218 574 218 574 199.5 608.5 c 0
 181 643 181 643 160.5 681.5 c 0
 140 720 140 720 133 734 c 1,0,0
 31 734 l 1,0,0
 231 379 l 1,0,0
EndSplineSet
EndChar

StartChar: Y
Encoding: 89 89 60
Width: 531
VWidth: 1000
Flags: W
LayerCount: 2
Fore
SplineSet
219 285 m 1,0,0
 219 0 l 1,0,0
 312 0 l 1,0,0
 312 285 l 1,0,0
 532 734 l 1,0,0
 436 734 l 1,0,0
 341 526 l 2,0,0
 325 486 325 486 268 366 c 1,0,0
 264 366 l 1,0,0
 249 397 249 397 192 526 c 2,0,0
 98 734 l 1,0,0
 -1 734 l 1,0,0
 219 285 l 1,0,0
EndSplineSet
EndChar

StartChar: Z
Encoding: 90 90 61
Width: 603
VWidth: 1000
Flags: W
LayerCount: 2
Fore
SplineSet
50 55 m 1,0,0
 50 0 l 1,0,0
 555 0 l 1,0,0
 555 79 l 1,0,0
 164 79 l 1,0,0
 551 679 l 1,0,0
 551 734 l 1,0,0
 85 734 l 1,0,0
 85 655 l 1,0,0
 437 655 l 1,0,0
 50 55 l 1,0,0
EndSplineSet
EndChar

StartChar: bracketleft
Encoding: 91 91 62
Width: 338
VWidth: 1000
Flags: W
LayerCount: 2
Fore
SplineSet
105 791 m 1,0,0
 105 -170 l 1,0,0
 304 -170 l 1,0,0
 304 -118 l 1,0,0
 174 -118 l 1,0,0
 174 740 l 1,0,0
 304 740 l 1,0,0
 304 791 l 1,0,0
 105 791 l 1,0,0
EndSplineSet
EndChar

StartChar: backslash
Encoding: 92 92 63
Width: 392
VWidth: 1000
Flags: W
LayerCount: 2
Fore
SplineSet
15 794 m 1,0,0
 315 -179 l 1,0,0
 380 -179 l 1,0,0
 81 794 l 1,0,0
 15 794 l 1,0,0
EndSplineSet
EndChar

StartChar: bracketright
Encoding: 93 93 64
Width: 338
VWidth: 1000
Flags: W
LayerCount: 2
Fore
SplineSet
34 -118 m 1,0,0
 34 -170 l 1,0,0
 233 -170 l 1,0,0
 233 791 l 1,0,0
 34 791 l 1,0,0
 34 740 l 1,0,0
 164 740 l 1,0,0
 164 -118 l 1,0,0
 34 -118 l 1,0,0
EndSplineSet
EndChar

StartChar: asciicircum
Encoding: 94 94 65
Width: 555
VWidth: 1000
Flags: W
LayerCount: 2
Fore
SplineSet
237 749 m 1,0,0
 67 317 l 1,0,0
 147 317 l 1,0,0
 220 515 l 1,0,0
 275 664 l 1,0,0
 280 664 l 1,0,0
 334 515 l 1,0,0
 408 317 l 1,0,0
 488 317 l 1,0,0
 318 749 l 1,0,0
 237 749 l 1,0,0
EndSplineSet
EndChar

StartChar: underscore
Encoding: 95 95 66
Width: 559
VWidth: 1000
Flags: W
LayerCount: 2
Fore
SplineSet
13 -79 m 1,0,0
 13 -140 l 1,0,0
 545 -140 l 1,0,0
 545 -79 l 1,0,0
 13 -79 l 1,0,0
EndSplineSet
EndChar

StartChar: grave
Encoding: 96 96 67
Width: 606
VWidth: 1000
Flags: W
LayerCount: 2
Fore
SplineSet
144 811 m 1,0,0
 319 641 l 1,0,0
 366 686 l 1,0,0
 208 872 l 1,0,0
 144 811 l 1,0,0
EndSplineSet
EndChar

StartChar: a
Encoding: 97 97 68
Width: 564
VWidth: 1000
Flags: W
LayerCount: 2
Fore
SplineSet
58 141 m 0,0,0
 58 69 58 69 102.5 28 c 0
 147 -13 147 -13 217 -13 c 0,0,0
 303 -13 303 -13 397 65 c 1,0,0
 400 65 l 1,0,0
 408 0 l 1,0,0
 483 0 l 1,0,0
 483 334 l 2,0,0
 483 439 483 439 437 498 c 0
 391 557 391 557 295 557 c 0,0,0
 192 557 192 557 81 486 c 1,0,0
 117 423 l 1,0,0
 203 481 203 481 280 481 c 0,0,0
 392 481 392 481 392 344 c 1,0,0
 217 324 217 324 137.5 276.5 c 0
 58 229 58 229 58 141 c 0,0,0
392 132 m 1,0,0
 311 60 311 60 243 60 c 0,0,0
 200 60 200 60 173.5 81.5 c 0
 147 103 147 103 147 147 c 0,0,0
 147 202 147 202 203 235 c 0
 259 268 259 268 392 284 c 1,0,0
 392 132 l 1,0,0
EndSplineSet
EndChar

StartChar: b
Encoding: 98 98 69
Width: 618
VWidth: 1000
Flags: W
LayerCount: 2
Fore
SplineSet
177 56 m 1,0,0
 252 -13 252 -13 331 -13 c 0,0,0
 429 -13 429 -13 498 66.5 c 0
 567 146 567 146 567 281 c 0,0,0
 567 408 567 408 510.5 482.5 c 0
 454 557 454 557 350 557 c 0,0,0
 268 557 268 557 180 480 c 1,0,0
 180.029147404 480.952157816 l 1
 180.058411846 481.908138495 l 1
 180.087790314 482.867843684 l 1
 180.11727983 483.83117606 l 1
 180.146877443 484.798039273 l 1
 180.176580233 485.768337907 l 1
 180.206385304 486.741977428 l 1
 180.23628979 487.718864144 l 1
 180.266290846 488.698905155 l 1
 180.296385651 489.682008319 l 1
 180.326571406 490.668082198 l 1
 180.356845332 491.657036026 l 1
 180.38720467 492.648779663 l 1
 180.417646677 493.643223554 l 1
 180.448168629 494.640278691 l 1
 180.478767817 495.639856573 l 1
 180.509441546 496.641869166 l 1
 180.540187133 497.646228864 l 1
 180.571001908 498.652848453 l 1
 180.601883213 499.661641068 l 1
 180.632828397 500.672520161 l 1
 180.66383482 501.685399459 l 1
 180.694899848 502.700192927 l 1
 180.726020852 503.716814732 l 1
 180.757195211 504.735179207 l 1
 180.788420305 505.755200807 l 1
 180.819693518 506.776794079 l 1
 180.851012237 507.799873622 l 1
 180.882373846 508.824354046 l 1
 180.913775731 509.850149939 l 1
 180.945215275 510.877175827 l 1
 180.976689859 511.905346135 l 1
 181.008196858 512.934575147 l 1
 181.039733642 513.964776973 l 1
 181.071297577 514.995865501 l 1
 181.102886017 516.027754364 l 1
 181.13449631 517.060356897 l 1
 181.166125791 518.093586095 l 1
 181.197771786 519.127354572 l 1
 181.229431607 520.161574518 l 1
 181.26110255 521.19615766 l 1
 181.292781899 522.231015209 l 1
 181.324466917 523.266057826 l 1
 181.356154852 524.301195567 l 1
 181.38784293 525.336337842 l 1
 181.419528356 526.371393361 l 1
 181.451208313 527.406270093 l 1
 181.482879958 528.440875207 l 1
 181.514540425 529.475115025 l 1
 181.546186818 530.508894969 l 1
 181.577816211 531.542119502 l 1
 181.60942565 532.574692075 l 1
 181.641012145 533.606515067 l 1
 181.672572673 534.637489726 l 1
 181.704104176 535.667516106 l 1
 181.735603554 536.696493001 l 1
 181.767067668 537.724317881 l 1
 181.798493337 538.750886823 l 1
 181.829877336 539.776094436 l 1
 181.861216389 540.799833792 l 1
 181.892507174 541.821996343 l 1
 181.923746317 542.842471846 l 1
 181.954930388 543.861148277 l 1
 181.986055899 544.877911744 l 1
 182.017119305 545.892646398 l 1
 182.048116996 546.905234336 l 1
 182.079045297 547.915555507 l 1
 182.109900463 548.923487603 l 1
 182.140678679 549.928905957 l 1
 182.171376051 550.931683427 l 1
 182.202062468 551.934103036 l 1
 182.236241319 553.050608444 l 1
 182.270350168 554.164827124 l 1
 182.304383466 555.276577811 l 1
 182.338335481 556.385673337 l 1
 182.372200294 557.491920257 l 1
 182.405971776 558.59511846 l 1
 182.439643586 559.695060744 l 1
 182.473209148 560.791532365 l 1
 182.506661643 561.884310541 l 1
 182.539993989 562.97316393 l 1
 182.573198823 564.057852055 l 1
 182.606268485 565.138124688 l 1
 182.639194995 566.21372118 l 1
 182.671970034 567.284369736 l 1
 182.704584914 568.349786625 l 1
 182.737030559 569.409675322 l 1
 182.769297469 570.463725569 l 1
 182.801375696 571.511612355 l 1
 182.833254803 572.552994795 l 1
 182.864923831 573.587514901 l 1
 182.896371256 574.614796234 l 1
 182.927584943 575.634442421 l 1
 182.958552098 576.646035516 l 1
 183 578 l 1,0,0
 183 796 l 1,0,0
 92 796 l 1,0,0
 92 0 l 1,0,0
 165 0 l 1,0,0
 173 56 l 1,0,0
 177 56 l 1,0,0
472 279 m 0,0,0
 472 180 472 180 428.5 121.5 c 0
 385 63 385 63 316 63 c 0,0,0
 248 63 248 63 183 120 c 1,0,0
 183 405 l 1,0,0
 263 480 263 480 329 480 c 0,0,0
 472 480 472 480 472 279 c 0,0,0
EndSplineSet
EndChar

StartChar: c
Encoding: 99 99 70
Width: 509
VWidth: 1000
Flags: W
LayerCount: 2
Fore
SplineSet
51 271 m 0,0,0
 51 139 51 139 123 63 c 0
 195 -13 195 -13 306 -13 c 0,0,0
 405 -13 405 -13 482 56 c 1,0,0
 476 65 476 65 468.5 76.5 c 0
 461 88 461 88 453 100 c 0
 445 112 445 112 442 117 c 1,0,0
 383 63 383 63 314 63 c 0,0,0
 239 63 239 63 192.5 120 c 0
 146 177 146 177 146 271 c 0,0,0
 146 364 146 364 194 422.5 c 0
 242 481 242 481 317 481 c 0,0,0
 370 481 370 481 425 433 c 1,0,0
 472 493 l 1,0,0
 399 557 399 557 313 557 c 0,0,0
 204 557 204 557 127.5 479.5 c 0
 51 402 51 402 51 271 c 0,0,0
EndSplineSet
EndChar

StartChar: d
Encoding: 100 100 71
Width: 620
VWidth: 1000
Flags: W
LayerCount: 2
Fore
SplineSet
53 271 m 0,0,0
 53 137 53 137 113.5 62 c 0
 174 -13 174 -13 277 -13 c 0,0,0
 363 -13 363 -13 442 64 c 1,0,0
 445 64 l 1,0,0
 453 0 l 1,0,0
 527 0 l 1,0,0
 527 796 l 1,0,0
 437 796 l 1,0,0
 437 587 l 1,0,0
 441 493 l 1,0,0
 401 526 401 526 367 541.5 c 0
 333 557 333 557 288 557 c 0,0,0
 191 557 191 557 122 478 c 0
 53 399 53 399 53 271 c 0,0,0
437 138 m 1,0,0
 368 63 368 63 297 63 c 0,0,0
 225 63 225 63 186 118 c 0
 147 173 147 173 147 272 c 0,0,0
 147 364 147 364 192 422 c 0
 237 480 237 480 304 480 c 0,0,0
 372 480 372 480 437 423 c 1,0,0
 437 138 l 1,0,0
EndSplineSet
EndChar

StartChar: e
Encoding: 101 101 72
Width: 554
VWidth: 1000
Flags: W
LayerCount: 2
Fore
SplineSet
51 271 m 0,0,0
 51 141 51 141 125 64 c 0
 199 -13 199 -13 311 -13 c 0,0,0
 404 -13 404 -13 491 43 c 1,0,0
 458 103 l 1,0,0
 394 60 394 60 322 60 c 0,0,0
 245 60 245 60 195.5 111.5 c 0
 146 163 146 163 142 250 c 1,0,0
 508 250 l 1,0,0
 512 276 512 276 512 302 c 0,0,0
 512 420 512 420 455 488.5 c 0
 398 557 398 557 296 557 c 0,0,0
 197 557 197 557 124 477.5 c 0
 51 398 51 398 51 271 c 0,0,0
432 316 m 1,0,0
 141 316 l 1,0,0
 149 393 149 393 193 438.5 c 0
 237 484 237 484 297 484 c 0,0,0
 361 484 361 484 396.5 440.5 c 0
 432 397 432 397 432 316 c 1,0,0
EndSplineSet
EndChar

StartChar: f
Encoding: 102 102 73
Width: 325
VWidth: 1000
Flags: W
LayerCount: 2
Fore
SplineSet
107 469 m 1,0,0
 107 0 l 1,0,0
 198 0 l 1,0,0
 198 469 l 1,0,0
 313 469 l 1,0,0
 313 543 l 1,0,0
 198 543 l 1,0,0
 198 629 l 2,0,0
 198 736 198 736 275 736 c 0,0,0
 305 736 305 736 336 722 c 1,0,0
 339 732 339 732 342.5 745 c 0
 346 758 346 758 350.5 772 c 0
 355 786 355 786 356 791 c 1,0,0
 315 809 315 809 265 809 c 0,0,0
 186 809 186 809 146.5 762 c 0
 107 715 107 715 107 630 c 2,0,0
 107 543 l 1,0,0
 33 538 l 1,0,0
 33 469 l 1,0,0
 107 469 l 1,0,0
EndSplineSet
EndChar

StartChar: g
Encoding: 103 103 74
Width: 563
VWidth: 1000
Flags: W
LayerCount: 2
Fore
SplineSet
51 -104 m 0,0,0
 51 -173 51 -173 112 -211.5 c 0
 173 -250 173 -250 275 -250 c 0,0,0
 398 -250 398 -250 474 -195 c 0
 550 -140 550 -140 550 -62 c 0,0,0
 550 67 550 67 360 67 c 2,0,0
 254 67 l 2,0,0
 159 67 159 67 159 126 c 0,0,0
 159 161 159 161 194 191 c 1,0,0
 232 172 232 172 275 172 c 0,0,0
 360 172 360 172 416.5 224 c 0
 473 276 473 276 473 361 c 0,0,0
 473 431 473 431 429 473 c 1,0,0
 540 473 l 1,0,0
 540 543 l 1,0,0
 351 543 l 1,0,0
 313 557 313 557 275 557 c 0,0,0
 190 557 190 557 130.5 503.5 c 0
 71 450 71 450 71 363 c 0,0,0
 71 274 71 274 142 217 c 1,0,0
 142 213 l 1,0,0
 81 169 81 169 81 112 c 0,0,0
 81 52 81 52 131 23 c 1,0,0
 131 19 l 1,0,0
 51 -33 51 -33 51 -104 c 0,0,0
391 363 m 0,0,0
 391 305 391 305 357 269.5 c 0
 323 234 323 234 275 234 c 0,0,0
 226 234 226 234 192.5 269.5 c 0
 159 305 159 305 159 363 c 0,0,0
 159 421 159 421 192 455.5 c 0
 225 490 225 490 275 490 c 0,0,0
 324 490 324 490 357.5 455.5 c 0
 391 421 391 421 391 363 c 0,0,0
461 -76 m 0,0,0
 461 -121 461 -121 412 -154.5 c 0
 363 -188 363 -188 288 -188 c 0,0,0
 215 -188 215 -188 173 -162 c 0
 131 -136 131 -136 131 -92 c 0,0,0
 131 -39 131 -39 186 0 c 1,0,0
 222 -9 222 -9 256 -9 c 2,0,0
 350 -9 l 2,0,0
 406 -9 406 -9 433.5 -24.5 c 0
 461 -40 461 -40 461 -76 c 0,0,0
EndSplineSet
EndChar

StartChar: h
Encoding: 104 104 75
Width: 607
VWidth: 1000
Flags: W
LayerCount: 2
Fore
SplineSet
92 796 m 1,0,0
 92 0 l 1,0,0
 183 0 l 1,0,0
 183 394 l 1,0,0
 228 439 228 439 260 458 c 0
 292 477 292 477 332 477 c 0,0,0
 386 477 386 477 410.5 442.5 c 0
 435 408 435 408 435 332 c 2,0,0
 435 0 l 1,0,0
 526 0 l 1,0,0
 526 344 l 2,0,0
 526 557 526 557 360 557 c 0,0,0
 271 557 271 557 180 466 c 1,0,0
 180.025496454 466.951859464 l 1
 180.051082855 467.907077259 l 1
 180.076757184 468.865577952 l 1
 180.102517438 469.827286802 l 1
 180.128361634 470.792129735 l 1
 180.154287804 471.760033317 l 1
 180.180293999 472.730924722 l 1
 180.206378282 473.704731712 l 1
 180.232538735 474.681382606 l 1
 180.258773451 475.660806254 l 1
 180.285080538 476.642932016 l 1
 180.311458118 477.627689733 l 1
 180.337904324 478.615009702 l 1
 180.364417299 479.604822657 l 1
 180.390995201 480.597059737 l 1
 180.417636194 481.591652471 l 1
 180.444338455 482.588532747 l 1
 180.471100168 483.587632794 l 1
 180.497919526 484.588885155 l 1
 180.524794731 485.592222668 l 1
 180.551723991 486.597578442 l 1
 180.578705522 487.604885833 l 1
 180.605737543 488.614078423 l 1
 180.632818282 489.62509 l 1
 180.659945969 490.637854531 l 1
 180.687118842 491.652306144 l 1
 180.714335138 492.668379105 l 1
 180.741593101 493.686007794 l 1
 180.768890975 494.705126688 l 1
 180.796227007 495.725670333 l 1
 180.823599446 496.747573327 l 1
 180.851006541 497.770770295 l 1
 180.87844654 498.795195867 l 1
 180.905917692 499.820784658 l 1
 180.933418245 500.847471244 l 1
 180.960946445 501.87519014 l 1
 180.988500536 502.903875778 l 1
 181.016078759 503.93346248 l 1
 181.043679351 504.963884444 l 1
 181.071300545 505.995075711 l 1
 181.098940571 507.026970148 l 1
 181.126597651 508.059501421 l 1
 181.154270003 509.092602972 l 1
 181.181955837 510.126207995 l 1
 181.209653357 511.160249412 l 1
 181.237360758 512.194659844 l 1
 181.265076227 513.229371591 l 1
 181.29279794 514.264316601 l 1
 181.320524066 515.299426447 l 1
 181.348252761 516.334632299 l 1
 181.375982169 517.369864895 l 1
 181.403710423 518.405054515 l 1
 181.431435643 519.440130951 l 1
 181.459155934 520.47502348 l 1
 181.486869388 521.509660829 l 1
 181.514574079 522.543971149 l 1
 181.542268068 523.577881983 l 1
 181.569949395 524.611320232 l 1
 181.597616086 525.644212122 l 1
 181.625266146 526.67648317 l 1
 181.652897558 527.70805815 l 1
 181.680508289 528.738861057 l 1
 181.708096279 529.768815068 l 1
 181.735659449 530.797842507 l 1
 181.763195693 531.825864803 l 1
 181.790702883 532.852802449 l 1
 181.818178863 533.878574963 l 1
 181.84562145 534.903100842 l 1
 181.873028431 535.926297519 l 1
 181.900397567 536.948081316 l 1
 181.927726584 537.968367395 l 1
 181.955013178 538.987069712 l 1
 181.982255011 540.00410096 l 1
 182.009449708 541.019372521 l 1
 182.03659486 542.032794408 l 1
 182.063688018 543.04427521 l 1
 182.090726694 544.053722028 l 1
 182.117708358 545.061040417 l 1
 182.144630438 546.066134321 l 1
 182.171490315 547.068906003 l 1
 182.202062468 548.210269716 l 1
 182.231981153 549.327237221 l 1
 182.261846933 550.442229613 l 1
 182.291656114 551.555108945 l 1
 182.321404896 552.665733371 l 1
 182.351089371 553.77395693 l 1
 182.380705511 554.879629325 l 1
 182.41024917 555.982595685 l 1
 182.439716069 557.082696306 l 1
 182.469101795 558.179766387 l 1
 182.498401788 559.273635737 l 1
 182.527611338 560.364128465 l 1
 182.556725572 561.451062652 l 1
 182.585739447 562.534249994 l 1
 182.614647738 563.613495425 l 1
 182.643445027 564.688596709 l 1
 182.672125695 565.759343998 l 1
 182.700683904 566.825519365 l 1
 182.729113587 567.886896295 l 1
 182.757408432 568.943239135 l 1
 182.785561868 569.994302505 l 1
 182.813567042 571.039830652 l 1
 182.84141681 572.079556764 l 1
 182.869103708 573.113202209 l 1
 182.896619935 574.140475724 l 1
 182.923957327 575.161072519 l 1
 182.951107333 576.17467331 l 1
 183 578 l 1,0,0
 183 796 l 1,0,0
 92 796 l 1,0,0
EndSplineSet
EndChar

StartChar: i
Encoding: 105 105 76
Width: 275
VWidth: 1000
Flags: W
LayerCount: 2
Fore
SplineSet
92 543 m 1,0,0
 92 0 l 1,0,0
 183 0 l 1,0,0
 183 543 l 1,0,0
 92 543 l 1,0,0
77 716 m 0,0,0
 77 688 77 688 94 671.5 c 0
 111 655 111 655 138 655 c 0,0,0
 165 655 165 655 182 671.5 c 0
 199 688 199 688 199 716 c 0,0,0
 199 742 199 742 182 758.5 c 0
 165 775 165 775 138 775 c 0,0,0
 111 775 111 775 94 758.5 c 0
 77 742 77 742 77 716 c 0,0,0
EndSplineSet
EndChar

StartChar: j
Encoding: 106 106 77
Width: 276
VWidth: 1000
Flags: W
LayerCount: 2
Fore
SplineSet
-44 -229 m 1,0,0
 -6 -243 -6 -243 36 -243 c 0,0,0
 184 -243 184 -243 184 -62 c 2,0,0
 184 543 l 1,0,0
 93 543 l 1,0,0
 93 -62 l 2,0,0
 93 -116 93 -116 78.5 -142.5 c 0
 64 -169 64 -169 26 -169 c 0,0,0
 2 -169 2 -169 -26 -159 c 1,0,0
 -44 -229 l 1,0,0
77 716 m 0,0,0
 77 688 77 688 94 671.5 c 0
 111 655 111 655 138 655 c 0,0,0
 164 655 164 655 181 671.5 c 0
 198 688 198 688 198 716 c 0,0,0
 198 742 198 742 181 758.5 c 0
 164 775 164 775 138 775 c 0,0,0
 111 775 111 775 94 758.5 c 0
 77 742 77 742 77 716 c 0,0,0
EndSplineSet
EndChar

StartChar: k
Encoding: 107 107 78
Width: 552
VWidth: 1000
Flags: W
LayerCount: 2
Fore
SplineSet
92 796 m 1,0,0
 92 0 l 1,0,0
 182 0 l 1,0,0
 182 143 l 1,0,0
 284 262 l 1,0,0
 443 0 l 1,0,0
 542 0 l 1,0,0
 337 324 l 1,0,0
 518 543 l 1,0,0
 416 543 l 1,0,0
 185 256 l 1,0,0
 182 256 l 1,0,0
 182 796 l 1,0,0
 92 796 l 1,0,0
EndSplineSet
EndChar

StartChar: l
Encoding: 108 108 79
Width: 285
VWidth: 1000
Flags: W
LayerCount: 2
Fore
SplineSet
92 108 m 2,0,0
 92 -13 92 -13 188 -13 c 0,0,0
 220 -13 220 -13 241 -5 c 1,0,0
 228 65 l 1,0,0
 218 63 218 63 209 63 c 0,0,0
 183 63 183 63 183 102 c 2,0,0
 183 796 l 1,0,0
 92 796 l 1,0,0
 92 108 l 2,0,0
EndSplineSet
EndChar

StartChar: m
Encoding: 109 109 80
Width: 926
VWidth: 1000
Flags: W
LayerCount: 2
Fore
SplineSet
92 543 m 1,0,0
 92 0 l 1,0,0
 183 0 l 1,0,0
 183 394 l 1,0,0
 257 477 257 477 320 477 c 0,0,0
 372 477 372 477 396.5 442.5 c 0
 421 408 421 408 421 332 c 2,0,0
 421 0 l 1,0,0
 512 0 l 1,0,0
 512 394 l 1,0,0
 588 477 588 477 649 477 c 0,0,0
 701 477 701 477 725.5 442.5 c 0
 750 408 750 408 750 332 c 2,0,0
 750 0 l 1,0,0
 841 0 l 1,0,0
 841 344 l 2,0,0
 841 557 841 557 676 557 c 0,0,0
 592 557 592 557 497 453 c 1,0,0
 461 557 461 557 347 557 c 0,0,0
 262 557 262 557 178 464 c 1,0,0
 175 464 l 1,0,0
 167 543 l 1,0,0
 92 543 l 1,0,0
EndSplineSet
EndChar

StartChar: n
Encoding: 110 110 81
Width: 611
VWidth: 1000
Flags: W
LayerCount: 2
Fore
SplineSet
92 543 m 1,0,0
 92 0 l 1,0,0
 183 0 l 1,0,0
 183 394 l 1,0,0
 228 439 228 439 260 458 c 0
 292 477 292 477 332 477 c 0,0,0
 386 477 386 477 410.5 442.5 c 0
 435 408 435 408 435 332 c 2,0,0
 435 0 l 1,0,0
 526 0 l 1,0,0
 526 344 l 2,0,0
 526 557 526 557 360 557 c 0,0,0
 272 557 272 557 178 465 c 1,0,0
 175 465 l 1,0,0
 167 543 l 1,0,0
 92 543 l 1,0,0
EndSplineSet
EndChar

StartChar: o
Encoding: 111 111 82
Width: 606
VWidth: 1000
Flags: W
LayerCount: 2
Fore
SplineSet
51 271 m 0,0,0
 51 141 51 141 124.5 64 c 0
 198 -13 198 -13 303 -13 c 0,0,0
 408 -13 408 -13 481.5 64 c 0
 555 141 555 141 555 271 c 0,0,0
 555 402 555 402 481.5 479.5 c 0
 408 557 408 557 303 557 c 0,0,0
 198 557 198 557 124.5 479.5 c 0
 51 402 51 402 51 271 c 0,0,0
461 271 m 0,0,0
 461 177 461 177 417.5 120 c 0
 374 63 374 63 303 63 c 0,0,0
 232 63 232 63 189 120 c 0
 146 177 146 177 146 271 c 0,0,0
 146 365 146 365 189.5 423 c 0
 233 481 233 481 303 481 c 0,0,0
 374 481 374 481 417.5 423 c 0
 461 365 461 365 461 271 c 0,0,0
EndSplineSet
EndChar

StartChar: p
Encoding: 112 112 83
Width: 620
VWidth: 1000
Flags: W
LayerCount: 2
Fore
SplineSet
92 543 m 1,0,0
 92 -229 l 1,0,0
 183 -229 l 1,0,0
 183 -45 l 1,0,0
 181 50 l 1,0,0
 258 -13 258 -13 331 -13 c 0,0,0
 429 -13 429 -13 498 66.5 c 0
 567 146 567 146 567 280 c 0,0,0
 567 408 567 408 510.5 482.5 c 0
 454 557 454 557 351 557 c 0,0,0
 271 557 271 557 178 481 c 1,0,0
 175 481 l 1,0,0
 167 543 l 1,0,0
 92 543 l 1,0,0
472 279 m 0,0,0
 472 180 472 180 428.5 121.5 c 0
 385 63 385 63 316 63 c 0,0,0
 250 63 250 63 183 120 c 1,0,0
 183 405 l 1,0,0
 264 480 264 480 329 480 c 0,0,0
 472 480 472 480 472 279 c 0,0,0
EndSplineSet
EndChar

StartChar: q
Encoding: 113 113 84
Width: 620
VWidth: 1000
Flags: W
LayerCount: 2
Fore
SplineSet
437 -36 m 1,0,0
 437 -229 l 1,0,0
 527 -229 l 1,0,0
 527 543 l 1,0,0
 455 543 l 1,0,0
 446 491 l 1,0,0
 443 491 l 1,0,0
 371 557 371 557 288 557 c 0,0,0
 191 557 191 557 122 478 c 0
 53 399 53 399 53 271 c 0,0,0
 53 137 53 137 113.5 62 c 0
 174 -13 174 -13 277 -13 c 0,0,0
 363 -13 363 -13 441 63 c 1,0,0
 437 -36 l 1,0,0
437 138 m 1,0,0
 368 63 368 63 297 63 c 0,0,0
 225 63 225 63 186 118 c 0
 147 173 147 173 147 272 c 0,0,0
 147 364 147 364 192 422 c 0
 237 480 237 480 304 480 c 0,0,0
 372 480 372 480 437 423 c 1,0,0
 437 138 l 1,0,0
EndSplineSet
EndChar

StartChar: r
Encoding: 114 114 85
Width: 388
VWidth: 1000
Flags: W
LayerCount: 2
Fore
SplineSet
92 543 m 1,0,0
 92 0 l 1,0,0
 183 0 l 1,0,0
 183 349 l 1,0,0
 208 414 208 414 245 444 c 0
 282 474 282 474 320 474 c 0,0,0
 350 474 350 474 373 465 c 1,0,0
 390 545 l 1,0,0
 367 557 367 557 332 557 c 0,0,0
 287 557 287 557 247 527 c 0
 207 497 207 497 178 444 c 1,0,0
 175 444 l 1,0,0
 167 543 l 1,0,0
 92 543 l 1,0,0
EndSplineSet
EndChar

StartChar: s
Encoding: 115 115 86
Width: 468
VWidth: 1000
Flags: W
LayerCount: 2
Fore
SplineSet
31 62 m 1,0,0
 122 -13 122 -13 234 -13 c 0,0,0
 327 -13 327 -13 379.5 33 c 0
 432 79 432 79 432 148 c 0,0,0
 432 178 432 178 421 202.5 c 0
 410 227 410 227 397 242 c 0
 384 257 384 257 357.5 272 c 0
 331 287 331 287 315 294 c 0
 299 301 299 301 266 313 c 0,0,0
 238 323 238 323 229 327 c 0
 220 331 220 331 199.5 341 c 0
 179 351 179 351 171.5 358.5 c 0
 164 366 164 366 156.5 379 c 0
 149 392 149 392 149 407 c 0,0,0
 149 441 149 441 175 463 c 0
 201 485 201 485 250 485 c 0,0,0
 310 485 310 485 373 437 c 1,0,0
 380 446 380 446 388 457 c 0
 396 468 396 468 405 480 c 0
 414 492 414 492 417 496 c 1,0,0
 339 557 339 557 249 557 c 0,0,0
 163 557 163 557 112 513 c 0
 61 469 61 469 61 403 c 0,0,0
 61 370 61 370 74 344 c 0
 87 318 87 318 113 299.5 c 0
 139 281 139 281 162 270 c 0
 185 259 185 259 220 246 c 0,0,0
 245 237 245 237 257 232 c 0
 269 227 269 227 289 216.5 c 0
 309 206 309 206 318.5 196.5 c 0
 328 187 328 187 336 173 c 0
 344 159 344 159 344 143 c 0,0,0
 344 106 344 106 316.5 82 c 0
 289 58 289 58 237 58 c 0,0,0
 155 58 155 58 76 122 c 1,0,0
 31 62 l 1,0,0
EndSplineSet
EndChar

StartChar: t
Encoding: 116 116 87
Width: 377
VWidth: 1000
Flags: W
LayerCount: 2
Fore
SplineSet
108 168 m 2,0,0
 108 -13 108 -13 263 -13 c 0,0,0
 301 -13 301 -13 363 7 c 1,0,0
 345 75 l 1,0,0
 309 61 309 61 283 61 c 0,0,0
 237 61 237 61 218 87 c 0
 199 113 199 113 199 166 c 2,0,0
 199 469 l 1,0,0
 346 469 l 1,0,0
 346 543 l 1,0,0
 199 543 l 1,0,0
 199 696 l 1,0,0
 123 696 l 1,0,0
 112 543 l 1,0,0
 27 538 l 1,0,0
 27 469 l 1,0,0
 108 469 l 1,0,0
 108 168 l 2,0,0
EndSplineSet
EndChar

StartChar: u
Encoding: 117 117 88
Width: 607
VWidth: 1000
Flags: W
LayerCount: 2
Fore
SplineSet
85 199 m 2,0,0
 85 -13 85 -13 250 -13 c 0,0,0
 345 -13 345 -13 430 85 c 1,0,0
 433 85 l 1,0,0
 440 0 l 1,0,0
 516 0 l 1,0,0
 516 543 l 1,0,0
 425 543 l 1,0,0
 425 158 l 1,0,0
 385 108 385 108 352 87 c 0
 319 66 319 66 278 66 c 0,0,0
 224 66 224 66 200 100 c 0
 176 134 176 134 176 210 c 2,0,0
 176 543 l 1,0,0
 85 543 l 1,0,0
 85 199 l 2,0,0
EndSplineSet
EndChar

StartChar: v
Encoding: 118 118 89
Width: 521
VWidth: 1000
Flags: W
LayerCount: 2
Fore
SplineSet
13 543 m 1,0,0
 209 0 l 1,0,0
 315 0 l 1,0,0
 508 543 l 1,0,0
 418 543 l 1,0,0
 315 234 l 2,0,0
 283 128 283 128 265 74 c 1,0,0
 261 74 l 1,0,0
 251 104 251 104 232.5 162.5 c 0
 214 221 214 221 210 234 c 2,0,0
 108 543 l 1,0,0
 13 543 l 1,0,0
EndSplineSet
EndChar

StartChar: w
Encoding: 119 119 90
Width: 802
VWidth: 1000
Flags: W
LayerCount: 2
Fore
SplineSet
27 543 m 1,0,0
 178 0 l 1,0,0
 285 0 l 1,0,0
 361 291 l 2,0,0
 374 341 374 341 398 449 c 1,0,0
 403 449 l 1,0,0
 439 296 439 296 440 293 c 2,0,0
 519 0 l 1,0,0
 629 0 l 1,0,0
 775 543 l 1,0,0
 689 543 l 1,0,0
 609 229 l 2,0,0
 604 205 604 205 592.5 154.5 c 0
 581 104 581 104 575 77 c 1,0,0
 571 77 l 1,0,0
 533 229 l 2,0,0
 520 276 520 276 504.5 334 c 0
 489 392 489 392 471.5 456 c 0
 454 520 454 520 448 543 c 1,0,0
 359 543 l 1,0,0
 275 229 l 2,0,0
 266 198 266 198 238 77 c 1,0,0
 233 77 l 1,0,0
 231 87 231 87 201 229 c 1,0,0
 200.754785159 229.950588865 l 1
 200.50925597 230.902396272 l 1
 200.26341493 231.855412552 l 1
 200.017264524 232.809628067 l 1
 199.770807229 233.765033212 l 1
 199.524045515 234.721618415 l 1
 199.276981844 235.679374134 l 1
 199.029618669 236.638290859 l 1
 198.781958434 237.598359112 l 1
 198.534003578 238.559569443 l 1
 198.28575653 239.521912433 l 1
 197.788395542 241.44995886 l 1
 197.539286423 242.415643604 l 1
 197.289894757 243.38242362 l 1
 197.040222937 244.35028963 l 1
 196.79027335 245.319232386 l 1
 196.540048374 246.289242665 l 1
 196.289550382 247.260311269 l 1
 196.03878174 248.232429029 l 1
 195.787744806 249.205586799 l 1
 195.536441933 250.179775459 l 1
 195.284875469 251.154985914 l 1
 195.033047752 252.131209093 l 1
 194.780961117 253.108435947 l 1
 194.528617891 254.086657453 l 1
 194.276020397 255.06586461 l 1
 194.023170951 256.046048439 l 1
 193.770071863 257.027199984 l 1
 193.516725438 258.009310311 l 1
 193.263133976 258.992370506 l 1
 193.009299769 259.976371678 l 1
 192.755225108 260.961304954 l 1
 192.500912274 261.947161484 l 1
 192.246363547 262.933932436 l 1
 191.991581199 263.921608998 l 1
 191.736567499 264.910182376 l 1
 191.481324711 265.899643796 l 1
 191.225855093 266.889984503 l 1
 190.970160899 267.881195757 l 1
 190.714244379 268.873268839 l 1
 190.458107779 269.866195043 l 1
 190.201753339 270.859965684 l 1
 189.945183296 271.854572091 l 1
 189.688399882 272.850005609 l 1
 189.431405327 273.846257599 l 1
 189.174201855 274.843319437 l 1
 188.916791686 275.841182515 l 1
 188.659177038 276.839838238 l 1
 188.401360124 277.839278026 l 1
 188.143343154 278.839493313 l 1
 187.885128334 279.840475544 l 1
 187.626717868 280.842216182 l 1
 187.368113955 281.844706697 l 1
 187.109318792 282.847938575 l 1
 186.850334572 283.851903312 l 1
 186.591163487 284.856592418 l 1
 186.331807722 285.861997411 l 1
 186.072269465 286.868109822 l 1
 185.812550895 287.874921193 l 1
 185.552654194 288.882423074 l 1
 185.292581538 289.890607026 l 1
 185.032335102 290.899464619 l 1
 184.771917057 291.908987433 l 1
 184.511329575 292.919167056 l 1
 184.250574822 293.929995085 l 1
 183.989654965 294.941463123 l 1
 183.728572168 295.953562782 l 1
 183.467328591 296.966285683 l 1
 183.205926396 297.979623451 l 1
 182.944367741 298.993567718 l 1
 182.682654783 300.008110125 l 1
 182.420789678 301.023242316 l 1
 182.158774578 302.038955941 l 1
 181.896611637 303.055242655 l 1
 181.634303005 304.07209412 l 1
 181.371850835 305.089501999 l 1
 181.109257273 306.107457962 l 1
 180.84652447 307.125953681 l 1
 180.583654571 308.144980832 l 1
 180.320649724 309.164531094 l 1
 180.057512074 310.184596149 l 1
 179.794243767 311.20516768 l 1
 179.530846947 312.226237374 l 1
 179.267323759 313.247796917 l 1
 179.003676347 314.269838 l 1
 178.739906854 315.292352311 l 1
 178.476017425 316.31533154 l 1
 178.212010202 317.338767378 l 1
 177.94788733 318.362651514 l 1
 177.683650953 319.38697564 l 1
 177.419303213 320.411731442 l 1
 177.154846257 321.436910609 l 1
 176.890282228 322.462504826 l 1
 176.625613272 323.488505777 l 1
 176.360841535 324.514905144 l 1
 176.095969164 325.541694604 l 1
 175.830998305 326.568865835 l 1
 175.565931107 327.596410507 l 1
 175.30076972 328.62432029 l 1
 175.035516293 329.652586847 l 1
 174.770172979 330.681201839 l 1
 174.50474193 331.710156919 l 1
 174.2392253 332.739443738 l 1
 173.973625245 333.769053938 l 1
 173.707943923 334.798979159 l 1
 173.442183491 335.82921103 l 1
 173.176346111 336.859741176 l 1
 172.910433944 337.890561216 l 1
 172.644449157 338.921662758 l 1
 172.378393913 339.953037404 l 1
 172.112270384 340.984676749 l 1
 171.846080739 342.016572376 l 1
 171.579827151 343.048715862 l 1
 171.313511796 344.081098773 l 1
 171.047136852 345.113712665 l 1
 170.7807045 346.146549084 l 1
 170.514216924 347.179599567 l 1
 170.24767631 348.212855637 l 1
 169.981084847 349.246308807 l 1
 169.714444728 350.279950579 l 1
 169.447758148 351.313772442 l 1
 169.181027306 352.347765871 l 1
 168.914254405 353.381922331 l 1
 168.647441649 354.416233271 l 1
 168.380591249 355.450690127 l 1
 168.113705417 356.48528432 l 1
 167.846786369 357.520007258 l 1
 167.579836327 358.554850332 l 1
 167.312857515 359.589804919 l 1
 167.045852162 360.624862379 l 1
 166.778822501 361.660014055 l 1
 166.511770769 362.695251275 l 1
 166.244699208 363.730565349 l 1
 165.977610064 364.765947569 l 1
 165.710505588 365.801389209 l 1
 165.443388037 366.836881524 l 1
 165.17625967 367.872415751 l 1
 164.909122753 368.907983107 l 1
 164.641979558 369.943574788 l 1
 164.374832361 370.979181972 l 1
 164.107683442 372.014795813 l 1
 163.84053509 373.050407448 l 1
 163.573389596 374.086007989 l 1
 163.306249258 375.121588525 l 1
 163.039116382 376.157140126 l 1
 162.771993277 377.192653835 l 1
 162.50488226 378.228120674 l 1
 162.237785652 379.26353164 l 1
 161.970705784 380.298877705 l 1
 161.703644989 381.334149816 l 1
 161.436605611 382.369338895 l 1
 161.169589997 383.404435837 l 1
 160.902600504 384.439431511 l 1
 160.635639494 385.474316758 l 1
 160.368709336 386.509082393 l 1
 160.101812407 387.543719201 l 1
 159.834951092 388.57821794 l 1
 159.568127783 389.612569338 l 1
 159.301344879 390.646764092 l 1
 159.034604788 391.680792871 l 1
 158.767909925 392.714646311 l 1
 158.501262713 393.748315019 l 1
 158.234665584 394.781789567 l 1
 157.968120978 395.815060498 l 1
 157.701631344 396.848118319 l 1
 157.435199139 397.880953504 l 1
 157.168826829 398.913556495 l 1
 156.902516889 399.945917696 l 1
 156.636271803 400.978027477 l 1
 156.370094065 402.009876172 l 1
 156.103986178 403.04145408 l 1
 155.837950653 404.07275146 l 1
 155.571990015 405.103758534 l 1
 155.306106794 406.134465487 l 1
 155.040303533 407.164862463 l 1
 154.774582785 408.194939568 l 1
 154.508947112 409.224686867 l 1
 154.243399087 410.254094383 l 1
 153.977941297 411.283152099 l 1
 153.712576334 412.311849954 l 1
 153.447306806 413.340177846 l 1
 153.18213533 414.368125628 l 1
 152.917064535 415.395683109 l 1
 152.652097062 416.422840052 l 1
 152.387235562 417.449586176 l 1
 152.122482701 418.475911152 l 1
 151.857841155 419.501804605 l 1
 151.593313613 420.527256111 l 1
 151.328902776 421.552255199 l 1
 151.064611358 422.576791346 l 1
 150.800442087 423.600853981 l 1
 150.536397702 424.624432482 l 1
 150.272480959 425.647516174 l 1
 150.008694622 426.67009433 l 1
 149.745041474 427.69215617 l 1
 149.48152431 428.713690861 l 1
 149.218145937 429.734687513 l 1
 148.954909181 430.755135181 l 1
 148.691816878 431.775022865 l 1
 148.428871881 432.794339505 l 1
 148.166077058 433.813073984 l 1
 147.903435293 434.831215127 l 1
 147.640949483 435.848751698 l 1
 147.378622543 436.865672399 l 1
 147.116457403 437.881965872 l 1
 146.85445701 438.897620694 l 1
 146.592624326 439.912625382 l 1
 146.330962331 440.926968386 l 1
 146.06947402 441.940638089 l 1
 145.808162409 442.95362281 l 1
 145.547030526 443.965910801 l 1
 145.286081422 444.977490243 l 1
 145.025318162 445.988349248 l 1
 144.764743831 446.99847586 l 1
 144.504361533 448.007858049 l 1
 144.244174389 449.016483713 l 1
 143.98418554 450.024340676 l 1
 143.724398146 451.031416687 l 1
 143.464815388 452.037699422 l 1
 143.205440464 453.043176476 l 1
 142.946276594 454.047835369 l 1
 142.687327019 455.051663539 l 1
 142.428594999 456.054648347 l 1
 142.170083817 457.056777068 l 1
 141.911796776 458.058036899 l 1
 141.544313367 459.482600724 l 1
 141.255647836 460.601623959 l 1
 140.967153476 461.719983644 l 1
 140.678834692 462.837662701 l 1
 140.390695934 463.954643881 l 1
 140.102741695 465.070909769 l 1
 139.814976511 466.186442777 l 1
 139.527404966 467.30122514 l 1
 139.240031687 468.415238914 l 1
 138.952861352 469.528465975 l 1
 138.665898683 470.640888009 l 1
 138.379148454 471.752486515 l 1
 138.092615487 472.863242799 l 1
 137.806304656 473.97313797 l 1
 137.520220885 475.082152935 l 1
 137.234369153 476.190268397 l 1
 136.948754491 477.297464852 l 1
 136.663381985 478.40372258 l 1
 136.378256779 479.509021648 l 1
 136.093384072 480.6133419 l 1
 135.808769121 481.716662954 l 1
 135.524417244 482.818964199 l 1
 135.240333817 483.92022479 l 1
 134.95652428 485.020423643 l 1
 134.672994136 486.119539428 l 1
 134.389748949 487.217550568 l 1
 134.106794352 488.314435233 l 1
 133.824136044 489.410171332 l 1
 133.541779791 490.50473651 l 1
 133.259731429 491.598108144 l 1
 132.977996865 492.690263334 l 1
 132.69658208 493.7811789 l 1
 132.415493126 494.870831376 l 1
 132.134736134 495.959197002 l 1
 131.854317308 497.046251719 l 1
 131.574242935 498.131971165 l 1
 131.294519379 499.216330665 l 1
 131.015153087 500.299305226 l 1
 130.736150591 501.380869531 l 1
 130.457518507 502.460997929 l 1
 130.17926354 503.539664434 l 1
 129.901392482 504.61684271 l 1
 129.623912219 505.692506068 l 1
 129.346829728 506.766627461 l 1
 129.070152083 507.839179467 l 1
 128.793886454 508.910134291 l 1
 128.518040111 509.979463749 l 1
 128.242620426 511.047139266 l 1
 127.967634875 512.113131859 l 1
 127.693091041 513.177412137 l 1
 127.418996615 514.239950285 l 1
 127.145359399 515.300716057 l 1
 126.872187309 516.359678766 l 1
 126.599488377 517.416807273 l 1
 126.327270757 518.472069978 l 1
 126.055542721 519.525434808 l 1
 125.784312669 520.576869206 l 1
 125.513589125 521.626340121 l 1
 125.243380748 522.673813995 l 1
 124.973696327 523.71925675 l 1
 124.704544791 524.762633778 l 1
 124.435935208 525.803909927 l 1
 124.167876789 526.843049487 l 1
 123.900378894 527.880016176 l 1
 123.633451032 528.914773131 l 1
 123.36710287 529.947282885 l 1
 123.101344228 530.977507361 l 1
 122.836185094 532.005407848 l 1
 122.571635619 533.030944993 l 1
 122.307706126 534.05407878 l 1
 122.044407113 535.074768514 l 1
 121.781749256 536.092972804 l 1
 121.519743419 537.108649544 l 1
 121.258400652 538.121755896 l 1
 120.9977322 539.13224827 l 1
 120.737749506 540.140082303 l 1
 120.478464219 541.145212841 l 1
 120 543 l 1,0,0
 27 543 l 1,0,0
EndSplineSet
EndChar

StartChar: x
Encoding: 120 120 91
Width: 498
VWidth: 1000
Flags: W
LayerCount: 2
Fore
SplineSet
194 283 m 1,0,0
 15 0 l 1,0,0
 111 0 l 1,0,0
 184 127 l 2,0,0
 237 220 237 220 240 224 c 1,0,0
 245 224 l 1,0,0
 278 173 278 173 303 127 c 0,0,0
 315 108 315 108 329.5 84.5 c 0
 344 61 344 61 360.5 35 c 0
 377 9 377 9 383 0 c 1,0,0
 483 0 l 1,0,0
 304 274 l 1,0,0
 469 543 l 1,0,0
 374 543 l 1,0,0
 307 424 l 2,0,0
 281 373 281 373 258 333 c 1,0,0
 254 333 l 1,0,0
 206 412 206 412 200 424 c 2,0,0
 127 543 l 1,0,0
 29 543 l 1,0,0
 194 283 l 1,0,0
EndSplineSet
EndChar

StartChar: y
Encoding: 121 121 92
Width: 521
VWidth: 1000
Flags: W
LayerCount: 2
Fore
SplineSet
37 -223 m 1,0,0
 64 -234 64 -234 101 -234 c 0,0,0
 238 -234 238 -234 303 -45 c 2,0,0
 508 543 l 1,0,0
 419 543 l 1,0,0
 322 241 l 2,0,0
 314 214 314 214 298 161 c 0
 282 108 282 108 276 89 c 1,0,0
 271 89 l 1,0,0
 257 128 257 128 219 241 c 2,0,0
 218.650602034 241.950617338 l 1
 218.300738558 242.90250116 l 1
 217.950413413 243.855641015 l 1
 217.599630428 244.810026486 l 1
 217.248393418 245.765647194 l 1
 216.896706184 246.722492798 l 1
 216.544572515 247.680552989 l 1
 216.191996186 248.639817496 l 1
 215.83898096 249.60027608 l 1
 215.485530589 250.561918537 l 1
 215.13164881 251.524734697 l 1
 214.422605923 253.453847603 l 1
 214.067452232 254.42012417 l 1
 213.711881968 255.387534079 l 1
 213.355898811 256.356067318 l 1
 212.99950643 257.325713904 l 1
 212.642708484 258.296463888 l 1
 212.285508618 259.268307345 l 1
 211.92791047 260.241234381 l 1
 211.569917666 261.215235132 l 1
 211.211533822 262.190299759 l 1
 210.852762543 263.166418452 l 1
 210.493607426 264.143581427 l 1
 210.134072058 265.121778927 l 1
 209.774160014 266.10100122 l 1
 209.413874863 267.0812386 l 1
 209.053220163 268.062481386 l 1
 208.692199464 269.044719921 l 1
 208.330816306 270.027944572 l 1
 207.96907422 271.012145731 l 1
 207.606976731 271.997313811 l 1
 207.244527354 272.983439248 l 1
 206.881729595 273.970512501 l 1
 206.518586953 274.958524051 l 1
 206.155102921 275.947464398 l 1
 205.791280981 276.937324066 l 1
 205.42712461 277.928093597 l 1
 205.062637275 278.919763553 l 1
 204.69782244 279.912324517 l 1
 204.332683559 280.905767088 l 1
 203.967224079 281.900081889 l 1
 203.601447442 282.895259554 l 1
 203.235357082 283.891290741 l 1
 202.868956428 284.888166122 l 1
 202.502248901 285.885876386 l 1
 202.135237919 286.884412239 l 1
 201.767926891 287.883764403 l 1
 201.400319221 288.883923616 l 1
 201.03241831 289.884880629 l 1
 200.66422755 290.88662621 l 1
 200.295750329 291.88915114 l 1
 199.926990032 292.892446215 l 1
 199.557950036 293.896502243 l 1
 199.188633715 294.901310045 l 1
 198.819044438 295.906860456 l 1
 198.44918557 296.913144321 l 1
 198.079060471 297.920152499 l 1
 197.708672496 298.927875859 l 1
 197.338024999 299.936305281 l 1
 196.967121327 300.945431655 l 1
 196.595964825 301.955245882 l 1
 196.224558834 302.965738873 l 1
 195.852906691 303.976901545 l 1
 195.481011731 304.988724829 l 1
 195.108877286 306.001199659 l 1
 194.736506684 307.014316981 l 1
 194.363903249 308.028067746 l 1
 193.991070307 309.042442913 l 1
 193.618011177 310.057433449 l 1
 193.244729177 311.073030325 l 1
 192.871227623 312.08922452 l 1
 192.49750983 313.106007016 l 1
 192.12357911 314.123368803 l 1
 191.749438774 315.141300872 l 1
 191.375092129 316.159794222 l 1
 191.000542485 317.178839854 l 1
 190.625793147 318.198428773 l 1
 190.250847421 319.218551984 l 1
 189.875708611 320.2392005 l 1
 189.50038002 321.260365331 l 1
 189.124864952 322.282037492 l 1
 188.749166708 323.304207999 l 1
 188.373288592 324.326867866 l 1
 187.997233904 325.350008111 l 1
 187.621005947 326.37361975 l 1
 187.244608022 327.3976938 l 1
 186.868043433 328.422221276 l 1
 186.491315481 329.447193193 l 1
 186.114427471 330.472600562 l 1
 185.737382706 331.498434396 l 1
 185.360184491 332.524685701 l 1
 184.982836132 333.551345483 l 1
 184.605340938 334.578404744 l 1
 184.227702215 335.605854482 l 1
 183.849923275 336.633685692 l 1
 183.47200743 337.661889362 l 1
 183.093957993 338.690456477 l 1
 182.715778279 339.719378016 l 1
 182.337471608 340.748644951 l 1
 181.959041299 341.77824825 l 1
 181.580490675 342.808178873 l 1
 181.201823061 343.838427771 l 1
 180.823041786 344.86898589 l 1
 180.444150181 345.899844167 l 1
 180.065151579 346.930993531 l 1
 179.68604932 347.9624249 l 1
 179.306846744 348.994129184 l 1
 178.927547195 350.026097284 l 1
 178.548154022 351.05832009 l 1
 178.168670578 352.09078848 l 1
 177.789100219 353.123493322 l 1
 177.409446306 354.156425471 l 1
 177.029712206 355.189575773 l 1
 176.649901287 356.222935057 l 1
 176.270016924 357.256494143 l 1
 175.890062498 358.290243834 l 1
 175.510041393 359.324174921 l 1
 175.129957 360.35827818 l 1
 174.749812715 361.392544372 l 1
 174.369611939 362.426964243 l 1
 173.98935808 363.461528522 l 1
 173.609054551 364.496227922 l 1
 173.228704771 365.53105314 l 1
 172.848312167 366.565994854 l 1
 172.467880172 367.601043726 l 1
 172.087412224 368.636190397 l 1
 171.70691177 369.671425492 l 1
 171.326382264 370.706739614 l 1
 170.945827167 371.742123348 l 1
 170.565249946 372.777567257 l 1
 170.184654079 373.813061885 l 1
 169.804043048 374.848597753 l 1
 169.423420345 375.88416536 l 1
 169.042789472 376.919755183 l 1
 168.662153937 377.955357676 l 1
 168.281517257 378.990963269 l 1
 167.900882958 380.026562369 l 1
 167.520254577 381.062145355 l 1
 167.139635657 382.097702585 l 1
 166.759029753 383.133224389 l 1
 166.378440428 384.168701071 l 1
 165.997871257 385.204122908 l 1
 165.617325823 386.23948015 l 1
 165.23680772 387.274763018 l 1
 164.856320554 388.309961705 l 1
 164.475867938 389.345066374 l 1
 164.0954535 390.38006716 l 1
 163.715080878 391.414954167 l 1
 163.334753719 392.449717465 l 1
 162.954475686 393.484347098 l 1
 162.574250449 394.518833072 l 1
 162.194081694 395.553165364 l 1
 161.813973117 396.587333916 l 1
 161.433928428 397.621328636 l 1
 161.053951348 398.655139399 l 1
 160.674045613 399.688756041 l 1
 160.294214972 400.722168365 l 1
 159.914463185 401.755366136 l 1
 159.534794028 402.788339083 l 1
 159.155211291 403.821076895 l 1
 158.775718778 404.853569224 l 1
 158.396320307 405.885805681 l 1
 158.01701971 406.917775839 l 1
 157.637820836 407.949469229 l 1
 157.258727548 408.980875339 l 1
 156.879743724 410.011983619 l 1
 156.500873259 411.042783471 l 1
 156.122120064 412.073264257 l 1
 155.743488064 413.103415294 l 1
 155.364981204 414.133225852 l 1
 154.986603444 415.162685157 l 1
 154.608358761 416.191782389 l 1
 154.230251151 417.220506677 l 1
 153.852284624 418.248847106 l 1
 153.474463213 419.276792709 l 1
 153.096790967 420.30433247 l 1
 152.719271951 421.331455324 l 1
 152.341910254 422.358150153 l 1
 151.964709981 423.384405785 l 1
 151.587675256 424.410211 l 1
 151.210810225 425.435554518 l 1
 150.834119053 426.460425008 l 1
 150.457605925 427.484811082 l 1
 150.081275049 428.508701297 l 1
 149.705130651 429.53208415 l 1
 149.329176981 430.55494808 l 1
 148.953418309 431.577281469 l 1
 148.577858928 432.599072636 l 1
 148.202503155 433.620309841 l 1
 147.827355326 434.64098128 l 1
 147.452419804 435.661075087 l 1
 147.077700975 436.680579332 l 1
 146.703203246 437.699482018 l 1
 146.328931051 438.717771085 l 1
 145.954888849 439.735434403 l 1
 145.581081122 440.752459775 l 1
 145.207512379 441.768834936 l 1
 144.834187154 442.784547548 l 1
 144.461110008 443.799585203 l 1
 144.088285528 444.813935421 l 1
 143.715718329 445.827585648 l 1
 143.343413052 446.840523256 l 1
 142.971374367 447.852735538 l 1
 142.599606972 448.864209715 l 1
 142.228115594 449.874932925 l 1
 141.856904988 450.884892229 l 1
 141.485979941 451.894074608 l 1
 141.115345267 452.902466959 l 1
 140.745005814 453.910056097 l 1
 140.374966458 454.916828754 l 1
 140.005232108 455.922771573 l 1
 139.635807705 456.927871113 l 1
 139.266698222 457.932113844 l 1
 138.897908665 458.935486145 l 1
 138.529444074 459.937974306 l 1
 138.161309522 460.939564523 l 1
 137.523688688 462.674350853 l 1
 137.112408187 463.793329018 l 1
 136.701381608 464.911616335 l 1
 136.290615741 466.029194328 l 1
 135.880117445 467.146044335 l 1
 135.469893651 468.262147502 l 1
 135.05995136 469.377484781 l 1
 134.650297646 470.492036925 l 1
 134.240939657 471.605784486 l 1
 133.831884618 472.71870781 l 1
 133.423139829 473.83078703 l 1
 133.014712672 474.942002069 l 1
 132.606610607 476.052332626 l 1
 132.198841177 477.161758182 l 1
 131.791412009 478.270257987 l 1
 131.384330813 479.37781106 l 1
 130.977605389 480.484396182 l 1
 130.571243625 481.589991894 l 1
 130.165253499 482.69457649 l 1
 129.759643082 483.79812801 l 1
 129.354420538 484.90062424 l 1
 128.949594131 486.002042702 l 1
 128.54517222 487.102360652 l 1
 128.141163265 488.201555071 l 1
 127.73757583 489.299602661 l 1
 127.334418582 490.396479841 l 1
 126.931700296 491.492162738 l 1
 126.529429855 492.586627183 l 1
 126.127616255 493.679848702 l 1
 125.726268605 494.771802513 l 1
 125.325396129 495.862463516 l 1
 124.925008173 496.95180629 l 1
 124.525114201 498.039805082 l 1
 124.125723803 499.126433801 l 1
 123.726846695 500.211666015 l 1
 123.328492723 501.295474935 l 1
 122.930671865 502.377833416 l 1
 122.533394234 503.458713941 l 1
 122.136670082 504.538088619 l 1
 121.740509801 505.615929175 l 1
 121.34492393 506.692206939 l 1
 120.949923153 507.76689284 l 1
 120.555518308 508.839957393 l 1
 120.161720386 509.911370696 l 1
 119.768540537 510.981102414 l 1
 119.375990072 512.049121771 l 1
 118.984080467 513.115397542 l 1
 118.592823371 514.17989804 l 1
 118.202230603 515.242591106 l 1
 117.812314161 516.303444098 l 1
 117.423086226 517.362423877 l 1
 117.034559162 518.419496801 l 1
 116.646745526 519.474628707 l 1
 116.259658071 520.527784901 l 1
 115.873309749 521.578930144 l 1
 115.487713716 522.628028641 l 1
 115.10288334 523.675044024 l 1
 114.718832203 524.71993934 l 1
 114.335574107 525.762677036 l 1
 113.953123082 526.803218945 l 1
 113.571493389 527.841526266 l 1
 113.190699525 528.877559554 l 1
 112.810756234 529.911278699 l 1
 112.431678508 530.942642912 l 1
 112.053481597 531.971610704 l 1
 111.676181012 532.998139871 l 1
 111.299792537 534.022187473 l 1
 110.924332232 535.043709815 l 1
 110.549816441 536.062662429 l 1
 110.176261803 537.079000049 l 1
 109.803685254 538.092676593 l 1
 109.432104041 539.103645139 l 1
 109.061535728 540.111857903 l 1
 108.691998203 541.117266216 l 1
 108 543 l 1,0,0
 13 543 l 1,0,0
 231 -1 l 1,0,0
 219 -42 l 2,0,0
 181 -159 181 -159 96 -159 c 0,0,0
 80 -159 80 -159 55 -150 c 1,0,0
 37 -223 l 1,0,0
EndSplineSet
EndChar

StartChar: z
Encoding: 122 122 93
Width: 448
VWidth: 1000
Flags: W
LayerCount: 2
Fore
SplineSet
9.080078125 49 m 1,0,0
 9.080078125 0 l 1,0,0
 420.080078125 0 l 1,0,0
 420.080078125 74 l 1,0,0
 124.080078125 74 l 1,0,0
 410.080078125 494 l 1,0,0
 410.080078125 543 l 1,0,0
 40.080078125 543 l 1,0,0
 40.080078125 469 l 1,0,0
 295.080078125 469 l 1,0,0
 9.080078125 49 l 1,0,0
EndSplineSet
EndChar

StartChar: braceleft
Encoding: 123 123 94
Width: 338
VWidth: 1000
Flags: W
LayerCount: 2
Fore
SplineSet
124 -21 m 0,0,0
 124 -105 124 -105 155 -137.5 c 0
 186 -170 186 -170 255 -170 c 2,0,0
 304 -170 l 1,0,0
 304 -118 l 1,0,0
 275 -118 l 2,0,0
 231 -118 231 -118 215 -95 c 0
 199 -72 199 -72 199 -16 c 0,0,0
 199 17 199 17 202 82.5 c 0
 205 148 205 148 205 187 c 0,0,0
 205 241 205 241 189.5 270 c 0
 174 299 174 299 138 309 c 1,0,0
 138 313 l 1,0,0
 174 323 174 323 189.5 351 c 0
 205 379 205 379 205 434 c 0,0,0
 205 474 205 474 202 539 c 0
 199 604 199 604 199 637 c 0,0,0
 199 693 199 693 215 716.5 c 0
 231 740 231 740 275 740 c 2,0,0
 304 740 l 1,0,0
 304 791 l 1,0,0
 255 791 l 2,0,0
 186 791 186 791 155 758.5 c 0
 124 726 124 726 124 642 c 0,0,0
 124 601 124 601 129 532 c 0
 134 463 134 463 134 426 c 0,0,0
 134 340 134 340 38 339 c 1,0,0
 38 282 l 1,0,0
 134 281 134 281 134 194 c 0,0,0
 134 157 134 157 129 88.5 c 0
 124 20 124 20 124 -21 c 0,0,0
EndSplineSet
EndChar

StartChar: bar
Encoding: 124 124 95
Width: 269
VWidth: 1000
Flags: W
LayerCount: 2
Fore
SplineSet
103 838 m 1,0,0
 103 -279 l 1,0,0
 167 -279 l 1,0,0
 167 838 l 1,0,0
 103 838 l 1,0,0
EndSplineSet
EndChar

StartChar: braceright
Encoding: 125 125 96
Width: 338
VWidth: 1000
Flags: W
LayerCount: 2
Fore
SplineSet
34 -118 m 1,0,0
 34 -170 l 1,0,0
 84 -170 l 2,0,0
 153 -170 153 -170 183.5 -137.5 c 0
 214 -105 214 -105 214 -21 c 0,0,0
 214 20 214 20 209.5 88.5 c 0
 205 157 205 157 205 194 c 0,0,0
 205 281 205 281 300 282 c 1,0,0
 300 339 l 1,0,0
 205 340 205 340 205 426 c 0,0,0
 205 463 205 463 209.5 532 c 0
 214 601 214 601 214 642 c 0,0,0
 214 726 214 726 183.5 758.5 c 0
 153 791 153 791 84 791 c 2,0,0
 34 791 l 1,0,0
 34 740 l 1,0,0
 63 740 l 2,0,0
 107 740 107 740 123 716.5 c 0
 139 693 139 693 139 637 c 0,0,0
 139 604 139 604 136.5 539 c 0
 134 474 134 474 134 434 c 0,0,0
 134 379 134 379 149 351 c 0
 164 323 164 323 200 313 c 1,0,0
 200 309 l 1,0,0
 164 299 164 299 149 270 c 0
 134 241 134 241 134 187 c 0,0,0
 134 148 134 148 136.5 82.5 c 0
 139 17 139 17 139 -16 c 0,0,0
 139 -72 139 -72 123 -95 c 0
 107 -118 107 -118 63 -118 c 2,0,0
 34 -118 l 1,0,0
EndSplineSet
EndChar

StartChar: asciitilde
Encoding: 126 126 97
Width: 555
VWidth: 1000
Flags: W
LayerCount: 2
Fore
SplineSet
177 382 m 0,0,0
 203 382 203 382 234.5 358 c 0
 266 334 266 334 302.5 310.5 c 0
 339 287 339 287 376 287 c 0,0,0
 456 287 456 287 515 387 c 1,0,0
 463 424 l 1,0,0
 428 356 428 356 378 356 c 0,0,0
 352 356 352 356 321 379.5 c 0
 290 403 290 403 253.5 426.5 c 0
 217 450 217 450 180 450 c 0,0,0
 99 450 99 450 40 350 c 1,0,0
 91 314 l 1,0,0
 128 382 128 382 177 382 c 0,0,0
EndSplineSet
EndChar

StartChar: exclamdown
Encoding: 161 161 98
Width: 323
VWidth: 1000
Flags: W
LayerCount: 2
Fore
SplineSet
118 -101 m 1,0,0
 115 -205 l 1,0,0
 208 -205 l 1,0,0
 205 -101 l 1,0,0
 193 322 l 1,0,0
 130 322 l 1,0,0
 118 -101 l 1,0,0
95 487 m 0,0,0
 95 457 95 457 114.5 437 c 0
 134 417 134 417 161 417 c 0,0,0
 189 417 189 417 208 437 c 0
 227 457 227 457 227 487 c 0,0,0
 227 517 227 517 208 537 c 0
 189 557 189 557 161 557 c 0,0,0
 134 557 134 557 114.5 537 c 0
 95 517 95 517 95 487 c 0,0,0
EndSplineSet
EndChar

StartChar: cent
Encoding: 162 162 99
Width: 555
VWidth: 1000
Flags: W
LayerCount: 2
Fore
SplineSet
293 80 m 1,0,0
 293 -37 l 1,0,0
 350 -37 l 1,0,0
 350 79 l 1,0,0
 438 85 438 85 508 149 c 1,0,0
 502 157 502 157 494.5 168 c 0
 487 179 487 179 478.5 190.5 c 0
 470 202 470 202 467 206 c 1,0,0
 408 157 408 157 350 153 c 1,0,0
 350 539 l 1,0,0
 405 536 405 536 452 492 c 1,0,0
 497 549 l 1,0,0
 433 611 433 611 350 615 c 1,0,0
 350 730 l 1,0,0
 293 730 l 1,0,0
 293 612 l 1,0,0
 194 598 194 598 131 528 c 0
 68 458 68 458 68 346 c 0,0,0
 68 231 68 231 129 161.5 c 0
 190 92 190 92 293 80 c 1,0,0
293 158 m 1,0,0
 230 172 230 172 194 222 c 0
 158 272 158 272 158 346 c 0,0,0
 158 419 158 419 194 469 c 0
 230 519 230 519 293 534 c 1,0,0
 293 158 l 1,0,0
EndSplineSet
EndChar

StartChar: sterling
Encoding: 163 163 100
Width: 555
VWidth: 1000
Flags: W
LayerCount: 2
Fore
SplineSet
60 56 m 1,0,0
 60 0 l 1,0,0
 506 0 l 1,0,0
 506 79 l 1,0,0
 191 79 l 1,0,0
 191 83 l 1,0,0
 260 152 260 152 260 256 c 0,0,0
 260 289 260 289 254 319 c 1,0,0
 419 319 l 1,0,0
 419 381 l 1,0,0
 240 381 l 1,0,0
 213 479 213 479 213 519 c 0,0,0
 213 579 213 579 246 614.5 c 0
 279 650 279 650 338 650 c 0,0,0
 404 650 404 650 451 591 c 1,0,0
 505 642 l 1,0,0
 436 726 436 726 332 726 c 0,0,0
 238 726 238 726 181 671 c 0
 124 616 124 616 124 522 c 0,0,0
 124 475 124 475 154 381 c 1,0,0
 134 381 l 1,0,0
 59 377 l 1,0,0
 59 319 l 1,0,0
 171 319 l 1,0,0
 178 284 178 284 178 257 c 0,0,0
 178 193 178 193 147 139.5 c 0
 116 86 116 86 60 56 c 1,0,0
EndSplineSet
EndChar

StartChar: currency
Encoding: 164 164 101
Width: 555
VWidth: 1000
Flags: W
LayerCount: 2
Fore
SplineSet
30 165 m 1,0,0
 78 115 l 1,0,0
 154 192 l 1,0,0
 208 150 208 150 278 150 c 0,0,0
 347 150 347 150 401 192 c 1,0,0
 477 115 l 1,0,0
 525 165 l 1,0,0
 453 238 l 1,0,0
 494 293 494 293 494 368 c 0,0,0
 494 444 494 444 453 498 c 1,0,0
 525 572 l 1,0,0
 477 622 l 1,0,0
 401 544 l 1,0,0
 347 586 347 586 278 586 c 0,0,0
 207 586 207 586 154 544 c 1,0,0
 143 556 143 556 129 570 c 0
 115 584 115 584 99.5 600 c 0
 84 616 84 616 78 622 c 1,0,0
 30 572 l 1,0,0
 101 498 l 1,0,0
 61 446 61 446 61 368 c 0,0,0
 61 292 61 292 101 238 c 1,0,0
 90 227 90 227 77 213.5 c 0
 64 200 64 200 49.5 185 c 0
 35 170 35 170 30 165 c 1,0,0
410 368 m 0,0,0
 410 302 410 302 371.5 260 c 0
 333 218 333 218 278 218 c 0,0,0
 222 218 222 218 183.5 260 c 0
 145 302 145 302 145 368 c 0,0,0
 145 433 145 433 183.5 475.5 c 0
 222 518 222 518 278 518 c 0,0,0
 333 518 333 518 371.5 475.5 c 0
 410 433 410 433 410 368 c 0,0,0
EndSplineSet
EndChar

StartChar: yen
Encoding: 165 165 102
Width: 555
VWidth: 1000
Flags: W
LayerCount: 2
Fore
SplineSet
231 177 m 1,0,0
 231 0 l 1,0,0
 322 0 l 1,0,0
 322 177 l 1,0,0
 504 177 l 1,0,0
 504 230 l 1,0,0
 322 230 l 1,0,0
 322 303 l 1,0,0
 504 303 l 1,0,0
 504 355 l 1,0,0
 345 355 l 1,0,0
 529 713 l 1,0,0
 437 713 l 1,0,0
 349 521 l 2,0,0
 336 493 336 493 311.5 438.5 c 0
 287 384 287 384 281 370 c 1,0,0
 276 370 l 1,0,0
 263 399 263 399 241 449.5 c 0
 219 500 219 500 209 521 c 2,0,0
 122 713 l 1,0,0
 26 713 l 1,0,0
 208 355 l 1,0,0
 51 355 l 1,0,0
 51 303 l 1,0,0
 231 303 l 1,0,0
 231 230 l 1,0,0
 51 230 l 1,0,0
 51 177 l 1,0,0
 231 177 l 1,0,0
EndSplineSet
EndChar

StartChar: brokenbar
Encoding: 166 166 103
Width: 269
VWidth: 1000
Flags: W
LayerCount: 2
Fore
SplineSet
103 838 m 1,0,0
 103 325 l 1,0,0
 167 325 l 1,0,0
 167 838 l 1,0,0
 103 838 l 1,0,0
103 239 m 1,0,0
 103 -279 l 1,0,0
 167 -279 l 1,0,0
 167 239 l 1,0,0
 103 239 l 1,0,0
EndSplineSet
EndChar

StartChar: section
Encoding: 167 167 104
Width: 1000
VWidth: 1000
Flags: W
LayerCount: 2
Fore
SplineSet
508 713 m 0,0,0
 604 713 604 713 669 669 c 1,0,0
 694 731 l 1,0,0
 616 776 616 776 518 776 c 0,0,0
 422 776 422 776 363 730 c 0
 304 684 304 684 304 614 c 0,0,0
 303 589 303 589 314.5 563 c 0
 326 537 326 537 344 523 c 1,0,0
 306 495 306 495 286.5 459.5 c 0
 267 424 267 424 267 392 c 0,0,0
 267 326 267 326 315.5 287.5 c 0
 364 249 364 249 469 218 c 0,0,0
 560 191 560 191 593 165.5 c 0
 626 140 626 140 626 100 c 0,0,0
 626 56 626 56 588 27 c 0
 550 -2 550 -2 486 -2 c 0,0,0
 387 -2 387 -2 325 47 c 1,0,0
 297 -14 l 1,0,0
 362 -64 362 -64 484 -64 c 0,0,0
 579 -64 579 -64 643.5 -16 c 0
 708 32 708 32 708 109 c 0,0,0
 708 140 708 140 695.5 167.5 c 0
 683 195 683 195 666 208 c 1,0,0
 732 262 732 262 732 349 c 0,0,0
 732 414 732 414 683.5 453.5 c 0
 635 493 635 493 539 519 c 0,0,0
 460 540 460 540 422 562.5 c 0
 384 585 384 585 384 626 c 0,0,0
 384 660 384 660 419 686.5 c 0
 454 713 454 713 508 713 c 0,0,0
478 295 m 0,0,0
 395 322 395 322 368.5 346.5 c 0
 342 371 342 371 342 404 c 0,0,0
 342 452 342 452 391 492 c 1,0,0
 416 478 416 478 491.5 456 c 0
 567 434 567 434 612 406 c 0
 657 378 657 378 657 331 c 0,0,0
 657 275 657 275 618 241 c 1,0,0
 590 258 590 258 478 295 c 0,0,0
EndSplineSet
EndChar

StartChar: dieresis
Encoding: 168 168 105
Width: 606
VWidth: 1000
Flags: W
LayerCount: 2
Fore
SplineSet
140 711 m 0,0,0
 140 688 140 688 156 672 c 0
 172 656 172 656 196 656 c 0,0,0
 220 656 220 656 235.5 672 c 0
 251 688 251 688 251 711 c 0,0,0
 251 735 251 735 235.5 751 c 0
 220 767 220 767 196 767 c 0,0,0
 172 767 172 767 156 751 c 0
 140 735 140 735 140 711 c 0,0,0
355 711 m 0,0,0
 355 688 355 688 370.5 672 c 0
 386 656 386 656 410 656 c 0,0,0
 434 656 434 656 449.5 672 c 0
 465 688 465 688 465 711 c 0,0,0
 465 735 465 735 449.5 751 c 0
 434 767 434 767 410 767 c 0,0,0
 386 767 386 767 370.5 751 c 0
 355 735 355 735 355 711 c 0,0,0
EndSplineSet
EndChar

StartChar: copyright
Encoding: 169 169 106
Width: 832
VWidth: 1000
Flags: W
LayerCount: 2
Fore
SplineSet
55 361 m 0,0,0
 55 195 55 195 160.5 91.5 c 0
 266 -12 266 -12 416 -12 c 0,0,0
 566 -12 566 -12 671.5 91.5 c 0
 777 195 777 195 777 361 c 0,0,0
 777 526 777 526 672 628 c 0
 567 730 567 730 416 730 c 0,0,0
 265 730 265 730 160 628 c 0
 55 526 55 526 55 361 c 0,0,0
725 361 m 0,0,0
 725 218 725 218 635 126 c 0
 545 34 545 34 416 34 c 0,0,0
 287 34 287 34 197 126 c 0
 107 218 107 218 107 361 c 0,0,0
 107 504 107 504 197 594 c 0
 287 684 287 684 416 684 c 0,0,0
 545 684 545 684 635 594 c 0
 725 504 725 504 725 361 c 0,0,0
222 361 m 0,0,0
 222 260 222 260 279.5 200 c 0
 337 140 337 140 424 140 c 0,0,0
 505 140 505 140 575 203 c 1,0,0
 542 251 l 1,0,0
 483 201 483 201 428 201 c 0,0,0
 367 201 367 201 331 244.5 c 0
 295 288 295 288 295 361 c 0,0,0
 295 427 295 427 332.5 469 c 0
 370 511 370 511 431 511 c 0,0,0
 480 511 480 511 529 465 c 1,0,0
 567 509 l 1,0,0
 506 572 506 572 428 572 c 0,0,0
 344 572 344 572 283 513.5 c 0
 222 455 222 455 222 361 c 0,0,0
EndSplineSet
EndChar

StartChar: ordfeminine
Encoding: 170 170 107
Width: 385
VWidth: 1000
Flags: W
LayerCount: 2
Fore
SplineSet
42 537 m 0,0,0
 42 490 42 490 72 461 c 0
 102 432 102 432 152 432 c 0,0,0
 208 432 208 432 265 483 c 1,0,0
 269 483 l 1,0,0
 278 441 l 1,0,0
 332 441 l 1,0,0
 332 660 l 2,0,0
 332 809 332 809 205 809 c 0,0,0
 130 809 130 809 56 762 c 1,0,0
 60 755 60 755 64.5 746.5 c 0
 69 738 69 738 74.5 728 c 0
 80 718 80 718 82 715 c 0,0,0
 140 753 140 753 195 753 c 0,0,0
 262 753 262 753 264 670 c 1,0,0
 148 659 148 659 95 627.5 c 0
 42 596 42 596 42 537 c 0,0,0
264 533 m 1,0,0
 216 488 216 488 173 488 c 0,0,0
 109 488 109 488 109 543 c 0,0,0
 109 576 109 576 145 597 c 0
 181 618 181 618 264 627 c 1,0,0
 264 533 l 1,0,0
EndSplineSet
EndChar

StartChar: guillemotleft
Encoding: 171 171 108
Width: 479
VWidth: 1000
Flags: W
LayerCount: 2
Fore
SplineSet
50 248 m 1,0,0
 203 74 l 1,0,0
 242 105 l 1,0,0
 110 282 l 1,0,0
 242 456 l 1,0,0
 203 490 l 1,0,0
 50 316 l 1,0,0
 50 248 l 1,0,0
227 248 m 1,0,0
 379 74 l 1,0,0
 418 105 l 1,0,0
 287 282 l 1,0,0
 418 456 l 1,0,0
 379 490 l 1,0,0
 227 316 l 1,0,0
 227 248 l 1,0,0
EndSplineSet
EndChar

StartChar: logicalnot
Encoding: 172 172 109
Width: 555
VWidth: 1000
Flags: W
LayerCount: 2
Fore
SplineSet
444 335 m 1,0,0
 444 116 l 1,0,0
 517 116 l 1,0,0
 517 403 l 1,0,0
 38 403 l 1,0,0
 38 335 l 1,0,0
 444 335 l 1,0,0
EndSplineSet
EndChar

StartChar: uni00AD
Encoding: 173 173 110
Width: 347
VWidth: 1000
Flags: W
LayerCount: 2
Fore
SplineSet
46 315 m 1,0,0
 46 245 l 1,0,0
 302 245 l 1,0,0
 302 315 l 1,0,0
 46 315 l 1,0,0
EndSplineSet
EndChar

StartChar: registered
Encoding: 174 174 111
Width: 473
VWidth: 1000
Flags: W
LayerCount: 2
Fore
SplineSet
26 577 m 0,0,0
 26 481 26 481 87 419 c 0
 148 357 148 357 236 357 c 0,0,0
 324 357 324 357 385 419 c 0
 446 481 446 481 446 577 c 0,0,0
 446 673 446 673 385 735 c 0
 324 797 324 797 236 797 c 0,0,0
 148 797 148 797 87 735 c 0
 26 673 26 673 26 577 c 0,0,0
402 577 m 0,0,0
 402 498 402 498 354.5 447.5 c 0
 307 397 307 397 236 397 c 0,0,0
 165 397 165 397 117.5 447.5 c 0
 70 498 70 498 70 577 c 0,0,0
 70 655 70 655 117.5 706 c 0
 165 757 165 757 236 757 c 0,0,0
 307 757 307 757 354.5 706 c 0
 402 655 402 655 402 577 c 0,0,0
155 694 m 1,0,0
 155 466 l 1,0,0
 201 466 l 1,0,0
 201 545 l 1,0,0
 246 545 l 1,0,0
 286 466 l 1,0,0
 337 466 l 1,0,0
 285 559 l 1,0,0
 304 566 304 566 316 583.5 c 0
 328 601 328 601 328 621 c 0,0,0
 328 658 328 658 303 676 c 0
 278 694 278 694 240 694 c 2,0,0
 155 694 l 1,0,0
230 580 m 2,0,0
 201 580 l 1,0,0
 201 655 l 1,0,0
 232 655 l 2,0,0
 278 655 278 655 278 618 c 0,0,0
 278 580 278 580 230 580 c 2,0,0
EndSplineSet
EndChar

StartChar: macron
Encoding: 175 175 112
Width: 606
VWidth: 1000
Flags: W
LayerCount: 2
Fore
SplineSet
155 735 m 1,0,0
 155 671 l 1,0,0
 451 671 l 1,0,0
 451 735 l 1,0,0
 155 735 l 1,0,0
EndSplineSet
EndChar

StartChar: degree
Encoding: 176 176 113
Width: 370
VWidth: 1000
Flags: W
LayerCount: 2
Fore
SplineSet
45 622 m 0,0,0
 45 559 45 559 86.5 519.5 c 0
 128 480 128 480 185 480 c 0,0,0
 243 480 243 480 284 519.5 c 0
 325 559 325 559 325 622 c 0,0,0
 325 685 325 685 284 725 c 0
 243 765 243 765 185 765 c 0,0,0
 127 765 127 765 86 725 c 0
 45 685 45 685 45 622 c 0,0,0
269 622 m 0,0,0
 269 582 269 582 245.5 556.5 c 0
 222 531 222 531 185 531 c 0,0,0
 148 531 148 531 124.5 556.5 c 0
 101 582 101 582 101 622 c 0,0,0
 101 663 101 663 124.5 688.5 c 0
 148 714 148 714 185 714 c 0,0,0
 222 714 222 714 245.5 688.5 c 0
 269 663 269 663 269 622 c 0,0,0
EndSplineSet
EndChar

StartChar: plusminus
Encoding: 177 177 114
Width: 1000
VWidth: 1000
Flags: W
LayerCount: 2
Fore
SplineSet
534 461 m 1,0,0
 863 461 l 1,0,0
 863 530 l 1,0,0
 534 530 l 1,0,0
 534 804 l 1,0,0
 466 804 l 1,0,0
 466 530 l 1,0,0
 137 530 l 1,0,0
 137 461 l 1,0,0
 466 461 l 1,0,0
 466 186 l 1,0,0
 534 186 l 1,0,0
 534 461 l 1,0,0
867 18 m 1,0,0
 867 87 l 1,0,0
 137 87 l 1,0,0
 137 18 l 1,0,0
 867 18 l 1,0,0
EndSplineSet
EndChar

StartChar: uni00B2
Encoding: 178 178 115
Width: 410
VWidth: 1000
Flags: W
LayerCount: 2
Fore
SplineSet
58 482 m 1,0,0
 58 441 l 1,0,0
 357 441 l 1,0,0
 357 502 l 1,0,0
 173 502 l 1,0,0
 234 564 234 564 260 593 c 0
 286 622 286 622 310.5 666 c 0
 335 710 335 710 335 749 c 0,0,0
 335 817 335 817 296 854 c 0
 257 891 257 891 191 891 c 0,0,0
 102 891 102 891 44 806 c 1,0,0
 87 767 l 1,0,0
 131 831 131 831 181 831 c 0,0,0
 220 831 220 831 242.5 806.5 c 0
 265 782 265 782 265 739 c 0,0,0
 265 693 265 693 219 639 c 0
 173 585 173 585 58 482 c 1,0,0
EndSplineSet
EndChar

StartChar: uni00B3
Encoding: 179 179 116
Width: 410
VWidth: 1000
Flags: W
LayerCount: 2
Fore
SplineSet
40 513 m 1,0,0
 66 475 66 475 108.5 451.5 c 0
 151 428 151 428 202 428 c 0,0,0
 267 428 267 428 311.5 464 c 0
 356 500 356 500 356 558 c 0,0,0
 356 599 356 599 329 627 c 0
 302 655 302 655 262 666 c 1,0,0
 339 702 339 702 339 773 c 0,0,0
 339 826 339 826 298.5 858.5 c 0
 258 891 258 891 200 891 c 0,0,0
 118 891 118 891 58 819 c 1,0,0
 100 781 l 1,0,0
 144 834 144 834 189 834 c 0,0,0
 225 834 225 834 246.5 815 c 0
 268 796 268 796 268 765 c 0,0,0
 268 730 268 730 236 708 c 0
 204 686 204 686 149 686 c 1,0,0
 149 641 l 1,0,0
 214 641 214 641 249.5 620.5 c 0
 285 600 285 600 285 562 c 0,0,0
 285 526 285 526 259.5 505 c 0
 234 484 234 484 197 484 c 0,0,0
 129 484 129 484 87 549 c 1,0,0
 80 544 80 544 71.5 537 c 0
 63 530 63 530 53 523 c 0
 43 516 43 516 40 513 c 1,0,0
EndSplineSet
EndChar

StartChar: acute
Encoding: 180 180 117
Width: 606
VWidth: 1000
Flags: W
LayerCount: 2
Fore
SplineSet
240 686 m 1,0,0
 287 641 l 1,0,0
 462 811 l 1,0,0
 398 872 l 1,0,0
 240 686 l 1,0,0
EndSplineSet
EndChar

StartChar: mu
Encoding: 181 181 118
Width: 628
VWidth: 1000
Flags: W
LayerCount: 2
Fore
SplineSet
92 543 m 1,0,0
 92 -199 l 1,0,0
 184 -199 l 1,0,0
 177 -105 177 -105 176 41 c 1,0,0
 207 -11 207 -11 282 -11 c 0,0,0
 374 -11 374 -11 433 92 c 1,0,0
 435 92 l 1,0,0
 440 37 440 37 463.5 12 c 0
 487 -13 487 -13 533 -13 c 0,0,0
 570 -13 570 -13 598 0 c 1,0,0
 586 69 l 1,0,0
 565 63 565 63 553 63 c 0,0,0
 513 63 513 63 513 106 c 0,0,0
 513 164 513 164 514 237 c 0
 515 310 515 310 516.5 401.5 c 0
 518 493 518 493 519 543 c 1,0,0
 427 543 l 1,0,0
 427 171 l 1,0,0
 392 109 392 109 358.5 87.5 c 0
 325 66 325 66 283 66 c 0,0,0
 231 66 231 66 207 101.5 c 0
 183 137 183 137 183 210 c 2,0,0
 183 543 l 1,0,0
 92 543 l 1,0,0
EndSplineSet
EndChar

StartChar: paragraph
Encoding: 182 182 119
Width: 1000
VWidth: 1000
Flags: W
LayerCount: 2
Fore
SplineSet
242 512 m 0,0,0
 242.356897262 458.822307968 242.356897262 458.822307968 264.253765766 415.527676328 c 0
 286.150634269 372.233044688 286.150634269 372.233044688 320.387500104 346.675448672 c 0
 354.624365938 321.117852656 354.624365938 321.117852656 392.910687152 307.558926328 c 0
 431.197008367 294 431.197008367 294 468.000976562 294 c 2,0,0
 477.000976562 294 l 1,0,0
 477.000976562 -57 l 1,0,0
 541.000976562 -57 l 1,0,0
 541.000976562 701 l 1,0,0
 626.000976562 701 l 1,0,0
 626.000976562 -57 l 1,0,0
 690.000976562 -57 l 1,0,0
 690.000976562 755 l 1,0,0
 651.000976562 764 651.000976562 764 558.000976562 764 c 0,0,0
 485.925202296 764 485.925202296 764 429.692920882 749.323561698 c 0
 373.460639469 734.647123396 373.460639469 734.647123396 338.788563493 710.958891427 c 0
 304.116487516 687.270659458 304.116487516 687.270659458 281.695108382 654.288842948 c 0
 259.273729249 621.307026438 259.273729249 621.307026438 250.615204118 587.917766427 c 0
 241.956678986 554.528506416 241.956678986 554.528506416 241.956054688 517.228515625 c 0,0,0
 241.956054688 514.609375 241.956054688 514.609375 242 512 c 0,0,0
EndSplineSet
EndChar

StartChar: periodcentered
Encoding: 183 183 120
Width: 1000
VWidth: 1000
Flags: W
LayerCount: 2
Fore
SplineSet
606 380 m 0,0,0
 606 424 606 424 575 455 c 0
 544 486 544 486 500 486 c 0,0,0
 456 486 456 486 425 455 c 0
 394 424 394 424 394 380 c 0,0,0
 394 336 394 336 425 305 c 0
 456 274 456 274 500 274 c 0,0,0
 544 274 544 274 575 305 c 0
 606 336 606 336 606 380 c 0,0,0
EndSplineSet
EndChar

StartChar: cedilla
Encoding: 184 184 121
Width: 606
VWidth: 1000
Flags: W
LayerCount: 2
Fore
SplineSet
205 -208 m 1,0,0
 214 -253 l 1,0,0
 397 -244 397 -244 397 -150 c 0,0,0
 397 -91 397 -91 316 -72 c 1,0,0
 321 -61 321 -61 327 -47 c 0
 333 -33 333 -33 339.5 -18 c 0
 346 -3 346 -3 348 3 c 1,0,0
 288 3 l 1,0,0
 240 -98 l 1,0,0
 287 -105 287 -105 306.5 -118 c 0
 326 -131 326 -131 326 -152 c 0,0,0
 326 -177 326 -177 299.5 -190 c 0
 273 -203 273 -203 205 -208 c 1,0,0
EndSplineSet
EndChar

StartChar: uni00B9
Encoding: 185 185 122
Width: 410
VWidth: 1000
Flags: W
LayerCount: 2
Fore
SplineSet
192 786 m 1,0,0
 192 441 l 1,0,0
 264 441 l 1,0,0
 264 877 l 1,0,0
 205 877 l 1,0,0
 162 844 162 844 98 832 c 1,0,0
 98 786 l 1,0,0
 192 786 l 1,0,0
EndSplineSet
EndChar

StartChar: ordmasculine
Encoding: 186 186 123
Width: 407
VWidth: 1000
Flags: W
LayerCount: 2
Fore
SplineSet
33 621 m 0,0,0
 33 535 33 535 82 483.5 c 0
 131 432 131 432 203 432 c 0,0,0
 275 432 275 432 324 483.5 c 0
 373 535 373 535 373 621 c 0,0,0
 373 707 373 707 324 758 c 0
 275 809 275 809 203 809 c 0,0,0
 131 809 131 809 82 758 c 0
 33 707 33 707 33 621 c 0,0,0
302 621 m 0,0,0
 302 562 302 562 275.5 525.5 c 0
 249 489 249 489 203 489 c 0,0,0
 157 489 157 489 130.5 525.5 c 0
 104 562 104 562 104 621 c 0,0,0
 104 681 104 681 130.5 717 c 0
 157 753 157 753 203 753 c 0,0,0
 249 753 249 753 275.5 717 c 0
 302 681 302 681 302 621 c 0,0,0
EndSplineSet
EndChar

StartChar: guillemotright
Encoding: 187 187 124
Width: 479
VWidth: 1000
Flags: W
LayerCount: 2
Fore
SplineSet
60 105 m 1,0,0
 99 74 l 1,0,0
 252 248 l 1,0,0
 252 316 l 1,0,0
 99 490 l 1,0,0
 60 456 l 1,0,0
 192 282 l 1,0,0
 60 105 l 1,0,0
237 105 m 1,0,0
 276 74 l 1,0,0
 429 248 l 1,0,0
 429 316 l 1,0,0
 276 490 l 1,0,0
 237 456 l 1,0,0
 369 282 l 1,0,0
 237 105 l 1,0,0
EndSplineSet
EndChar

StartChar: onequarter
Encoding: 188 188 125
Width: 872
VWidth: 1000
Flags: W
LayerCount: 2
Fore
SplineSet
166 642 m 1,0,0
 166 298 l 1,0,0
 236 298 l 1,0,0
 236 734 l 1,0,0
 178 734 l 1,0,0
 135 701 135 701 71 689 c 1,0,0
 71 642 l 1,0,0
 166 642 l 1,0,0
606 747 m 1,0,0
 202 -13 l 1,0,0
 263 -13 l 1,0,0
 668 747 l 1,0,0
 606 747 l 1,0,0
707 167 m 1,0,0
 583 167 l 1,0,0
 652 277 l 1,0,0
 708 368 l 1,0,0
 713 368 l 1,0,0
 707 247 l 1,0,0
 707 167 l 1,0,0
707 117 m 1,0,0
 707 0 l 1,0,0
 772 0 l 1,0,0
 772 117 l 1,0,0
 837 117 l 1,0,0
 837 167 l 1,0,0
 772 167 l 1,0,0
 772 436 l 1,0,0
 692 436 l 1,0,0
 509 153 l 1,0,0
 509 117 l 1,0,0
 707 117 l 1,0,0
EndSplineSet
EndChar

StartChar: onehalf
Encoding: 189 189 126
Width: 903
VWidth: 1000
Flags: W
LayerCount: 2
Fore
SplineSet
166 642 m 1,0,0
 166 298 l 1,0,0
 236 298 l 1,0,0
 236 734 l 1,0,0
 178 734 l 1,0,0
 135 701 135 701 71 689 c 1,0,0
 71 642 l 1,0,0
 166 642 l 1,0,0
583 747 m 1,0,0
 179 -13 l 1,0,0
 240 -13 l 1,0,0
 645 747 l 1,0,0
 583 747 l 1,0,0
551 41 m 1,0,0
 551 0 l 1,0,0
 850 0 l 1,0,0
 850 61 l 1,0,0
 665 61 l 1,0,0
 713 110 713 110 732 130.5 c 0
 751 151 751 151 779 186.5 c 0
 807 222 807 222 817 250 c 0
 827 278 827 278 827 308 c 0,0,0
 827 376 827 376 788 412.5 c 0
 749 449 749 449 682 449 c 0,0,0
 639 449 639 449 600.5 426 c 0
 562 403 562 403 537 365 c 1,0,0
 580 326 l 1,0,0
 623 390 623 390 673 390 c 0,0,0
 712 390 712 390 734.5 365 c 0
 757 340 757 340 757 298 c 0,0,0
 757 252 757 252 711.5 198.5 c 0
 666 145 666 145 551 41 c 1,0,0
EndSplineSet
EndChar

StartChar: threequarters
Encoding: 190 190 127
Width: 889
VWidth: 1000
Flags: W
LayerCount: 2
Fore
SplineSet
38 369 m 1,0,0
 64 331 64 331 106.5 307.5 c 0
 149 284 149 284 200 284 c 0,0,0
 265 284 265 284 309.5 320 c 0
 354 356 354 356 354 415 c 0,0,0
 354 456 354 456 327.5 484 c 0
 301 512 301 512 261 523 c 1,0,0
 337 558 337 558 337 630 c 0,0,0
 337 683 337 683 297 715 c 0
 257 747 257 747 198 747 c 0,0,0
 117 747 117 747 56 675 c 1,0,0
 62 669 62 669 70 662 c 0
 78 655 78 655 87 647.5 c 0
 96 640 96 640 99 637 c 1,0,0
 141 691 141 691 188 691 c 0,0,0
 223 691 223 691 245 671.5 c 0
 267 652 267 652 267 621 c 0,0,0
 267 586 267 586 235 564 c 0
 203 542 203 542 148 542 c 1,0,0
 148 497 l 1,0,0
 283 497 283 497 283 419 c 0,0,0
 283 383 283 383 258 362 c 0
 233 341 233 341 196 341 c 0,0,0
 129 341 129 341 85 406 c 1,0,0
 38 369 l 1,0,0
649 747 m 1,0,0
 244 -13 l 1,0,0
 305 -13 l 1,0,0
 710 747 l 1,0,0
 649 747 l 1,0,0
724 167 m 1,0,0
 600 167 l 1,0,0
 669 277 l 1,0,0
 725 368 l 1,0,0
 730 368 l 1,0,0
 724 247 l 1,0,0
 724 167 l 1,0,0
724 117 m 1,0,0
 724 0 l 1,0,0
 788 0 l 1,0,0
 788 117 l 1,0,0
 853 117 l 1,0,0
 853 167 l 1,0,0
 788 167 l 1,0,0
 788 436 l 1,0,0
 709 436 l 1,0,0
 526 153 l 1,0,0
 526 117 l 1,0,0
 724 117 l 1,0,0
EndSplineSet
EndChar

StartChar: questiondown
Encoding: 191 191 128
Width: 474
VWidth: 1000
Flags: W
LayerCount: 2
Fore
SplineSet
53 -41 m 0,0,0
 53 -123 53 -123 104 -171 c 0
 155 -219 155 -219 240 -219 c 0,0,0
 349 -219 349 -219 432 -127 c 1,0,0
 424 -120 424 -120 414.5 -111 c 0
 405 -102 405 -102 394 -92.5 c 0
 383 -83 383 -83 379 -79 c 1,0,0
 322 -144 322 -144 250 -144 c 0,0,0
 199 -144 199 -144 170.5 -113 c 0
 142 -82 142 -82 142 -34 c 0,0,0
 142 -2 142 -2 160 31 c 0
 178 64 178 64 203 93 c 0
 228 122 228 122 252 154.5 c 0
 276 187 276 187 289.5 230.5 c 0
 303 274 303 274 296 322 c 1,0,0
 215 322 l 1,0,0
 220 279 220 279 205 239 c 0
 190 199 190 199 165.5 167.5 c 0
 141 136 141 136 115.5 105.5 c 0
 90 75 90 75 71.5 37 c 0
 53 -1 53 -1 53 -41 c 0,0,0
187 487 m 0,0,0
 187 457 187 457 206.5 437 c 0
 226 417 226 417 253 417 c 0,0,0
 281 417 281 417 300 437 c 0
 319 457 319 457 319 487 c 0,0,0
 319 517 319 517 300 537 c 0
 281 557 281 557 253 557 c 0,0,0
 226 557 226 557 206.5 537 c 0
 187 517 187 517 187 487 c 0,0,0
EndSplineSet
EndChar

StartChar: Agrave
Encoding: 192 192 129
Width: 607
VWidth: 1000
Flags: W
LayerCount: 2
Fore
SplineSet
191 298 m 1,0,0
 227 410 l 2,0,0
 273 556 273 556 300 658 c 1,0,0
 304 658 l 1,0,0
 348 503 348 503 378 410 c 2,0,0
 413 298 l 1,0,0
 191 298 l 1,0,0
252 734 m 1,0,0
 3 0 l 1,0,0
 97 0 l 1,0,0
 168 224 l 1,0,0
 436 224 l 1,0,0
 506 0 l 1,0,0
 604 0 l 1,0,0
 355 734 l 1,0,0
 252 734 l 1,0,0
153 907 m 1,0,0
 322 779 l 1,0,0
 363 825 l 1,0,0
 205 969 l 1,0,0
 153 907 l 1,0,0
EndSplineSet
EndChar

StartChar: Aacute
Encoding: 193 193 130
Width: 607
VWidth: 1000
Flags: W
LayerCount: 2
Fore
SplineSet
191 298 m 1,0,0
 227 410 l 2,0,0
 273 556 273 556 300 658 c 1,0,0
 304 658 l 1,0,0
 348 503 348 503 378 410 c 2,0,0
 413 298 l 1,0,0
 191 298 l 1,0,0
252 734 m 1,0,0
 3 0 l 1,0,0
 97 0 l 1,0,0
 168 224 l 1,0,0
 436 224 l 1,0,0
 506 0 l 1,0,0
 604 0 l 1,0,0
 355 734 l 1,0,0
 252 734 l 1,0,0
243 825 m 1,0,0
 284 779 l 1,0,0
 453 907 l 1,0,0
 401 969 l 1,0,0
 243 825 l 1,0,0
EndSplineSet
EndChar

StartChar: Adieresis
Encoding: 196 196 131
Width: 607
VWidth: 1000
Flags: W
LayerCount: 2
Fore
SplineSet
191 298 m 1,0,0
 227 410 l 2,0,0
 273 556 273 556 300 658 c 1,0,0
 304 658 l 1,0,0
 348 503 348 503 378 410 c 2,0,0
 413 298 l 1,0,0
 191 298 l 1,0,0
252 734 m 1,0,0
 3 0 l 1,0,0
 97 0 l 1,0,0
 168 224 l 1,0,0
 436 224 l 1,0,0
 506 0 l 1,0,0
 604 0 l 1,0,0
 355 734 l 1,0,0
 252 734 l 1,0,0
134 854 m 0,0,0
 134 830 134 830 149.5 815 c 0
 165 800 165 800 188 800 c 0,0,0
 212 800 212 800 227.5 815 c 0
 243 830 243 830 243 854 c 0,0,0
 243 878 243 878 227 893.5 c 0
 211 909 211 909 188 909 c 0,0,0
 165 909 165 909 149.5 893.5 c 0
 134 878 134 878 134 854 c 0,0,0
363 854 m 0,0,0
 363 830 363 830 378.5 815 c 0
 394 800 394 800 418 800 c 0,0,0
 441 800 441 800 456.5 815 c 0
 472 830 472 830 472 854 c 0,0,0
 472 878 472 878 456.5 893.5 c 0
 441 909 441 909 418 909 c 0,0,0
 394 909 394 909 378.5 893.5 c 0
 363 878 363 878 363 854 c 0,0,0
EndSplineSet
EndChar

StartChar: Aring
Encoding: 197 197 132
Width: 607
VWidth: 1000
Flags: W
LayerCount: 2
Fore
SplineSet
191 298 m 1,0,0
 227 410 l 2,0,0
 273 556 273 556 300 658 c 1,0,0
 304 658 l 1,0,0
 348 503 348 503 378 410 c 2,0,0
 413 298 l 1,0,0
 191 298 l 1,0,0
252 734 m 1,0,0
 3 0 l 1,0,0
 97 0 l 1,0,0
 168 224 l 1,0,0
 436 224 l 1,0,0
 506 0 l 1,0,0
 604 0 l 1,0,0
 355 734 l 1,0,0
 252 734 l 1,0,0
360 882 m 0,0,0
 360 854 360 854 343.5 837.5 c 0
 327 821 327 821 303 821 c 0,0,0
 278 821 278 821 261.5 837.5 c 0
 245 854 245 854 245 882 c 0,0,0
 245 909 245 909 261.5 926 c 0
 278 943 278 943 303 943 c 0,0,0
 326 943 326 943 343 926 c 0
 360 909 360 909 360 882 c 0,0,0
195 882 m 0,0,0
 195 837 195 837 225 809 c 0
 255 781 255 781 303 781 c 0,0,0
 350 781 350 781 380.5 809 c 0
 411 837 411 837 411 882 c 0,0,0
 411 928 411 928 380.5 955.5 c 0
 350 983 350 983 303 983 c 0,0,0
 255 983 255 983 225 955.5 c 0
 195 928 195 928 195 882 c 0,0,0
EndSplineSet
EndChar

StartChar: AE
Encoding: 198 198 133
Width: 918
VWidth: 1000
Flags: W
LayerCount: 2
Fore
SplineSet
256 288 m 1,0,0
 324 420 l 2,0,0
 337 447 337 447 362 496 c 0
 387 545 387 545 407 585 c 0
 427 625 427 625 444 660 c 1,0,0
 449 660 l 1,0,0
 449 288 l 1,0,0
 256 288 l 1,0,0
395 734 m 1,0,0
 10 0 l 1,0,0
 107 0 l 1,0,0
 218 215 l 1,0,0
 449 215 l 1,0,0
 449 0 l 1,0,0
 864 0 l 1,0,0
 864 79 l 1,0,0
 542 79 l 1,0,0
 542 346 l 1,0,0
 802 346 l 1,0,0
 802 425 l 1,0,0
 542 425 l 1,0,0
 542 655 l 1,0,0
 853 655 l 1,0,0
 853 734 l 1,0,0
 395 734 l 1,0,0
EndSplineSet
EndChar

StartChar: Ccedilla
Encoding: 199 199 134
Width: 638
VWidth: 1000
Flags: W
LayerCount: 2
Fore
SplineSet
278 -208 m 1,0,0
 287 -253 l 1,0,0
 470 -244 470 -244 470 -150 c 0,0,0
 470 -118 470 -118 449.5 -100 c 0
 429 -82 429 -82 389 -72 c 1,0,0
 416 -11 l 1,0,0
 524 2 524 2 602 92 c 1,0,0
 594 101 594 101 585 111.5 c 0
 576 122 576 122 565.5 134 c 0
 555 146 555 146 551 150 c 1,0,0
 475 68 475 68 381 68 c 0,0,0
 276 68 276 68 214.5 149 c 0
 153 230 153 230 153 369 c 0,0,0
 153 505 153 505 216 585.5 c 0
 279 666 279 666 384 666 c 0,0,0
 469 666 469 666 534 596 c 1,0,0
 541 605 541 605 550.5 616 c 0
 560 627 560 627 570 639.5 c 0
 580 652 580 652 584 656 c 1,0,0
 503 747 503 747 383 747 c 0,0,0
 241 747 241 747 149.5 643.5 c 0
 58 540 58 540 58 366 c 0,0,0
 58 199 58 199 141 97.5 c 0
 224 -4 224 -4 355 -12 c 1,0,0
 349 -25 349 -25 341 -41 c 0
 333 -57 333 -57 324.5 -74.5 c 0
 316 -92 316 -92 313 -98 c 1,0,0
 360 -105 360 -105 379.5 -118 c 0
 399 -131 399 -131 399 -152 c 0,0,0
 399 -177 399 -177 372.5 -190 c 0
 346 -203 346 -203 278 -208 c 1,0,0
EndSplineSet
EndChar

StartChar: Egrave
Encoding: 200 200 135
Width: 588
VWidth: 1000
Flags: W
LayerCount: 2
Fore
SplineSet
100 734 m 1,0,0
 100 0 l 1,0,0
 534 0 l 1,0,0
 534 79 l 1,0,0
 193 79 l 1,0,0
 193 346 l 1,0,0
 471 346 l 1,0,0
 471 425 l 1,0,0
 193 425 l 1,0,0
 193 655 l 1,0,0
 523 655 l 1,0,0
 523 734 l 1,0,0
 100 734 l 1,0,0
174 907 m 1,0,0
 343 779 l 1,0,0
 384 825 l 1,0,0
 226 969 l 1,0,0
 174 907 l 1,0,0
EndSplineSet
EndChar

StartChar: Eacute
Encoding: 201 201 136
Width: 588
VWidth: 1000
Flags: W
LayerCount: 2
Fore
SplineSet
100 734 m 1,0,0
 100 0 l 1,0,0
 534 0 l 1,0,0
 534 79 l 1,0,0
 193 79 l 1,0,0
 193 346 l 1,0,0
 471 346 l 1,0,0
 471 425 l 1,0,0
 193 425 l 1,0,0
 193 655 l 1,0,0
 523 655 l 1,0,0
 523 734 l 1,0,0
 100 734 l 1,0,0
264 825 m 1,0,0
 305 779 l 1,0,0
 474 907 l 1,0,0
 422 969 l 1,0,0
 264 825 l 1,0,0
EndSplineSet
EndChar

StartChar: Igrave
Encoding: 204 204 137
Width: 293
VWidth: 1000
Flags: W
LayerCount: 2
Fore
SplineSet
100 734 m 1,0,0
 100 0 l 1,0,0
 193 0 l 1,0,0
 193 734 l 1,0,0
 100 734 l 1,0,0
-3 907 m 1,0,0
 166 779 l 1,0,0
 207 825 l 1,0,0
 49 969 l 1,0,0
 -3 907 l 1,0,0
EndSplineSet
EndChar

StartChar: Iacute
Encoding: 205 205 138
Width: 293
VWidth: 1000
Flags: W
LayerCount: 2
Fore
SplineSet
100 734 m 1,0,0
 100 0 l 1,0,0
 193 0 l 1,0,0
 193 734 l 1,0,0
 100 734 l 1,0,0
88 825 m 1,0,0
 128 779 l 1,0,0
 298 907 l 1,0,0
 246 969 l 1,0,0
 88 825 l 1,0,0
EndSplineSet
EndChar

StartChar: Ograve
Encoding: 210 210 139
Width: 742
VWidth: 1000
Flags: W
LayerCount: 2
Fore
SplineSet
58 369 m 0,0,0
 58 195 58 195 144.5 91 c 0
 231 -13 231 -13 371 -13 c 0,0,0
 511 -13 511 -13 597.5 91 c 0
 684 195 684 195 684 369 c 0,0,0
 684 543 684 543 597.5 645 c 0
 511 747 511 747 371 747 c 0,0,0
 231 747 231 747 144.5 645 c 0
 58 543 58 543 58 369 c 0,0,0
589 369 m 0,0,0
 589 232 589 232 529.5 150 c 0
 470 68 470 68 371 68 c 0,0,0
 272 68 272 68 212.5 150 c 0
 153 232 153 232 153 369 c 0,0,0
 153 506 153 506 212 586 c 0
 271 666 271 666 371 666 c 0,0,0
 470 666 470 666 529.5 586 c 0
 589 506 589 506 589 369 c 0,0,0
221 907 m 1,0,0
 390 779 l 1,0,0
 431 825 l 1,0,0
 273 969 l 1,0,0
 221 907 l 1,0,0
EndSplineSet
EndChar

StartChar: Oacute
Encoding: 211 211 140
Width: 742
VWidth: 1000
Flags: W
LayerCount: 2
Fore
SplineSet
58 369 m 0,0,0
 58 195 58 195 144.5 91 c 0
 231 -13 231 -13 371 -13 c 0,0,0
 511 -13 511 -13 597.5 91 c 0
 684 195 684 195 684 369 c 0,0,0
 684 543 684 543 597.5 645 c 0
 511 747 511 747 371 747 c 0,0,0
 231 747 231 747 144.5 645 c 0
 58 543 58 543 58 369 c 0,0,0
589 369 m 0,0,0
 589 232 589 232 529.5 150 c 0
 470 68 470 68 371 68 c 0,0,0
 272 68 272 68 212.5 150 c 0
 153 232 153 232 153 369 c 0,0,0
 153 506 153 506 212 586 c 0
 271 666 271 666 371 666 c 0,0,0
 470 666 470 666 529.5 586 c 0
 589 506 589 506 589 369 c 0,0,0
311 825 m 1,0,0
 352 779 l 1,0,0
 521 907 l 1,0,0
 470 969 l 1,0,0
 311 825 l 1,0,0
EndSplineSet
EndChar

StartChar: multiply
Encoding: 215 215 141
Width: 1000
VWidth: 1000
Flags: W
LayerCount: 2
Fore
SplineSet
500 328 m 1,0,0
 774 54 l 1,0,0
 822 102 l 1,0,0
 549 376 l 1,0,0
 822 650 l 1,0,0
 774 698 l 1,0,0
 500 424 l 1,0,0
 227 698 l 1,0,0
 178 649 l 1,0,0
 452 376 l 1,0,0
 178 102 l 1,0,0
 227 54 l 1,0,0
 500 328 l 1,0,0
EndSplineSet
EndChar

StartChar: Oslash
Encoding: 216 216 142
Width: 742
VWidth: 1000
Flags: W
LayerCount: 2
Fore
SplineSet
56 6 m 1,0,0
 107 -33 l 1,0,0
 178 59 l 1,0,0
 259 -13 259 -13 374 -13 c 0,0,0
 514 -13 514 -13 600.5 91 c 0
 687 195 687 195 687 369 c 0,0,0
 687 525 687 525 614 627 c 1,0,0
 625 642 625 642 639.5 660.5 c 0
 654 679 654 679 669.5 699.5 c 0
 685 720 685 720 691 727 c 1,0,0
 640 766 l 1,0,0
 571 676 l 1,0,0
 489 747 489 747 374 747 c 0,0,0
 234 747 234 747 147.5 645 c 0
 61 543 61 543 61 369 c 0,0,0
 61 211 61 211 134 108 c 1,0,0
 56 6 l 1,0,0
194 186 m 1,0,0
 156 262 156 262 156 369 c 0,0,0
 156 506 156 506 215.5 586 c 0
 275 666 275 666 374 666 c 0,0,0
 461 666 461 666 516 605 c 1,0,0
 468 543 468 543 408.5 465.5 c 0
 349 388 349 388 283.5 302.5 c 0
 218 217 218 217 194 186 c 1,0,0
592 369 m 0,0,0
 592 232 592 232 532.5 150 c 0
 473 68 473 68 374 68 c 0,0,0
 289 68 289 68 232 130 c 1,0,0
 232.730909551 130.950405846 l 1
 233.462521378 131.901724893 l 1
 234.194831318 132.85395173 l 1
 234.927835221 133.807080961 l 1
 235.661528948 134.761107201 l 1
 236.395908368 135.716025081 l 1
 237.130969362 136.671829244 l 1
 237.866707822 137.628514348 l 1
 238.603119648 138.586075061 l 1
 239.340200751 139.544506068 l 1
 240.077947052 140.503802064 l 1
 240.816354483 141.463957758 l 1
 241.555418983 142.424967871 l 1
 242.295136503 143.386827137 l 1
 243.035503002 144.349530302 l 1
 243.776514449 145.313072123 l 1
 244.518166822 146.277447372 l 1
 245.260456109 147.24265083 l 1
 246.003378305 148.208677292 l 1
 246.746929417 149.175521562 l 1
 247.491105457 150.143178458 l 1
 248.23590245 151.111642808 l 1
 248.981316426 152.080909452 l 1
 249.727343426 153.05097324 l 1
 250.473979498 154.021829034 l 1
 251.221220698 154.993471707 l 1
 251.969063092 155.965896141 l 1
 252.717502752 156.939097231 l 1
 253.466535761 157.91306988 l 1
 254.216158206 158.887809003 l 1
 254.966366185 159.863309524 l 1
 255.717155803 160.839566379 l 1
 256.468523171 161.816574511 l 1
 257.220464409 162.794328875 l 1
 257.972975644 163.772824435 l 1
 258.726053011 164.752056165 l 1
 259.479692652 165.732019047 l 1
 260.233890715 166.712708074 l 1
 260.988643356 167.694118246 l 1
 261.743946739 168.676244576 l 1
 262.499797032 169.65908208 l 1
 263.256190412 170.642625789 l 1
 264.013123063 171.626870738 l 1
 264.770591173 172.611811973 l 1
 265.52859094 173.597444547 l 1
 266.287118565 174.583763522 l 1
 267.046170257 175.570763969 l 1
 267.805742231 176.558440966 l 1
 268.565830709 177.546789598 l 1
 269.326431917 178.53580496 l 1
 270.087542088 179.525482154 l 1
 270.849157461 180.515816287 l 1
 271.611274281 181.506802478 l 1
 273.136997266 183.490711533 l 1
 273.900595948 184.483624667 l 1
 274.66468111 185.477170396 l 1
 275.429249023 186.471343872 l 1
 276.194295966 187.466140255 l 1
 276.959818219 188.46155471 l 1
 277.72581207 189.457582408 l 1
 278.49227381 190.454218528 l 1
 279.259199737 191.451458254 l 1
 280.026586152 192.449296777 l 1
 280.79442936 193.447729294 l 1
 281.562725674 194.446751008 l 1
 282.331471407 195.446357127 l 1
 283.10066288 196.446542865 l 1
 283.870296416 197.447303441 l 1
 284.640368344 198.448634082 l 1
 285.410874995 199.450530018 l 1
 286.181812705 200.452986484 l 1
 286.953177815 201.455998721 l 1
 287.724966669 202.459561976 l 1
 288.497175615 203.463671499 l 1
 289.269801003 204.468322546 l 1
 290.042839189 205.473510377 l 1
 290.816286532 206.479230257 l 1
 291.590139393 207.485477455 l 1
 292.364394137 208.492247245 l 1
 293.139047134 209.499534905 l 1
 293.914094754 210.507335717 l 1
 294.689533373 211.515644966 l 1
 295.465359368 212.524457943 l 1
 296.24156912 213.53376994 l 1
 297.018159012 214.543576256 l 1
 297.795125431 215.553872192 l 1
 298.572464765 216.56465305 l 1
 299.350173405 217.57591414 l 1
 300.128247746 218.587650772 l 1
 300.906684184 219.599858259 l 1
 301.685479118 220.612531919 l 1
 302.464628947 221.625667072 l 1
 303.244130075 222.63925904 l 1
 304.023978907 223.653303147 l 1
 304.80417185 224.667794723 l 1
 305.584705313 225.682729098 l 1
 306.365575706 226.698101603 l 1
 307.146779441 227.713907573 l 1
 307.928312933 228.730142346 l 1
 308.710172597 229.746801261 l 1
 309.492354849 230.763879657 l 1
 310.274856108 231.781372878 l 1
 311.057672794 232.799276268 l 1
 311.840801327 233.817585173 l 1
 312.624238129 234.836294939 l 1
 313.407979623 235.855400916 l 1
 314.192022232 236.874898453 l 1
 314.976362382 237.894782901 l 1
 315.760996498 238.915049612 l 1
 316.545921006 239.935693938 l 1
 317.331132332 240.956711233 l 1
 318.116626905 241.978096852 l 1
 318.902401151 242.999846149 l 1
 319.688451498 244.021954479 l 1
 320.474774375 245.044417198 l 1
 321.261366211 246.067229661 l 1
 322.048223433 247.090387225 l 1
 322.83534247 248.113885246 l 1
 323.622719751 249.137719078 l 1
 324.410351704 250.161884078 l 1
 325.198234756 251.1863756 l 1
 325.986365336 252.211189001 l 1
 326.774739871 253.236319632 l 1
 327.563354787 254.261762849 l 1
 328.35220651 255.287514004 l 1
 329.141291466 256.313568448 l 1
 329.93060608 257.339921533 l 1
 330.720146774 258.366568608 l 1
 331.509909973 259.393505021 l 1
 332.299892097 260.42072612 l 1
 333.090089566 261.44822725 l 1
 333.880498802 262.476003754 l 1
 334.671116221 263.504050976 l 1
 335.46193824 264.532364256 l 1
 336.252961274 265.560938932 l 1
 337.044181738 266.589770341 l 1
 337.835596042 267.618853817 l 1
 338.627200597 268.648184691 l 1
 339.418991812 269.677758295 l 1
 340.210966092 270.707569954 l 1
 341.003119842 271.737614994 l 1
 341.795449465 272.767888736 l 1
 342.58795136 273.798386498 l 1
 343.380621925 274.829103598 l 1
 344.173457556 275.860035347 l 1
 344.966454645 276.891177055 l 1
 345.759609583 277.922524028 l 1
 346.552918757 278.95407157 l 1
 347.346378553 279.985814978 l 1
 348.139985352 281.01774955 l 1
 348.933735533 282.049870576 l 1
 349.727625473 283.082173344 l 1
 350.521651545 284.114653137 l 1
 351.315810118 285.147305236 l 1
 352.110097558 286.180124916 l 1
 352.904510229 287.213107446 l 1
 353.69904449 288.246248093 l 1
 354.493696697 289.279542119 l 1
 355.288463203 290.312984781 l 1
 356.083340355 291.346571329 l 1
 356.878324498 292.380297011 l 1
 357.673411974 293.414157068 l 1
 358.468599117 294.448146737 l 1
 359.263882261 295.482261248 l 1
 360.059257734 296.516495826 l 1
 360.854721859 297.550845692 l 1
 361.650270955 298.585306057 l 1
 362.445901337 299.619872131 l 1
 363.241609315 300.654539115 l 1
 364.037391194 301.689302205 l 1
 364.833243274 302.724156588 l 1
 365.62916185 303.759097449 l 1
 366.425143214 304.794119964 l 1
 367.221183649 305.8292193 l 1
 368.017279435 306.864390622 l 1
 368.813426848 307.899629084 l 1
 369.609622155 308.934929834 l 1
 370.40586162 309.970288014 l 1
 371.2021415 311.005698757 l 1
 371.998458048 312.04115719 l 1
 372.794807509 313.07665843 l 1
 373.591186123 314.112197589 l 1
 374.387590123 315.147769768 l 1
 375.184015738 316.183370062 l 1
 375.980459188 317.218993558 l 1
 376.776916688 318.254635333 l 1
 377.573384446 319.290290457 l 1
 378.369858664 320.32595399 l 1
 379.166335536 321.361620984 l 1
 379.96281125 322.397286482 l 1
 380.759281986 323.432945517 l 1
 381.55574392 324.468593115 l 1
 382.352193216 325.50422429 l 1
 383.148626034 326.539834048 l 1
 383.945038527 327.575417385 l 1
 384.741426836 328.610969287 l 1
 385.5377871 329.646484729 l 1
 386.334115447 330.681958678 l 1
 387.130407997 331.71738609 l 1
 387.926660863 332.752761908 l 1
 388.72287015 333.788081069 l 1
 389.519031953 334.823338495 l 1
 390.315142361 335.858529099 l 1
 391.111197452 336.893647784 l 1
 391.907193298 337.928689439 l 1
 392.703125959 338.963648944 l 1
 393.49899149 339.998521166 l 1
 394.294785934 341.03330096 l 1
 395.090505325 342.067983172 l 1
 395.886145689 343.102562633 l 1
 396.681703043 344.137034162 l 1
 397.477173393 345.171392566 l 1
 398.272552736 346.205632641 l 1
 399.067837058 347.239749168 l 1
 399.863022338 348.273736916 l 1
 400.658104543 349.307590642 l 1
 401.453079628 350.341305088 l 1
 402.247943542 351.374874983 l 1
 403.042692221 352.408295044 l 1
 403.837321589 353.441559972 l 1
 404.631827563 354.474664455 l 1
 405.426206045 355.507603168 l 1
 406.22045293 356.540370769 l 1
 407.014564099 357.572961905 l 1
 407.808535422 358.605371205 l 1
 408.60236276 359.637593286 l 1
 409.396041959 360.669622747 l 1
 410.189568856 361.701454175 l 1
 410.982939275 362.733082139 l 1
 411.776149027 363.764501193 l 1
 412.569193913 364.795705877 l 1
 413.362069721 365.826690712 l 1
 414.154772225 366.857450206 l 1
 414.947297189 367.887978847 l 1
 415.739640362 368.91827111 l 1
 416.531797481 369.948321451 l 1
 417.323764269 370.978124309 l 1
 418.115536438 372.007674108 l 1
 418.907109686 373.036965251 l 1
 419.698479694 374.065992128 l 1
 420.489642134 375.094749106 l 1
 421.280592662 376.123230538 l 1
 422.07132692 377.151430758 l 1
 422.861840536 378.179344079 l 1
 423.652129124 379.206964799 l 1
 424.442188281 380.234287194 l 1
 425.232013594 381.261305523 l 1
 426.021600632 382.288014025 l 1
 426.810944948 383.314406919 l 1
 427.600042082 384.340478405 l 1
 428.388887559 385.366222662 l 1
 429.177476886 386.39163385 l 1
 429.965805556 387.416706107 l 1
 430.753869046 388.441433552 l 1
 431.541662816 389.465810282 l 1
 432.329182311 390.489830373 l 1
 433.116422958 391.51348788 l 1
 433.903380169 392.536776835 l 1
 434.690049337 393.55969125 l 1
 435.476425841 394.582225114 l 1
 436.262505039 395.604372393 l 1
 437.048282276 396.626127031 l 1
 437.833752875 397.647482949 l 1
 438.618912144 398.668434045 l 1
 439.403755372 399.688974193 l 1
 440.18827783 400.709097244 l 1
 440.97247477 401.728797024 l 1
 441.756341427 402.748067336 l 1
 442.539873016 403.766901958 l 1
 443.323064732 404.785294643 l 1
 444.105911752 405.80323912 l 1
 444.888409233 406.820729091 l 1
 445.670552314 407.837758233 l 1
 446.452336111 408.854320199 l 1
 447.233755723 409.870408612 l 1
 448.014806226 410.886017073 l 1
 448.795482678 411.901139152 l 1
 449.575780114 412.915768396 l 1
 450.355693548 413.929898321 l 1
 451.135217975 414.943522417 l 1
 451.914348367 415.956634147 l 1
 452.693079673 416.969226944 l 1
 453.471406822 417.981294214 l 1
 454.249324721 418.992829332 l 1
 455.026828253 420.003825647 l 1
 455.803912279 421.014276475 l 1
 456.580571637 422.024175105 l 1
 457.356801142 423.033514793 l 1
 458.132595586 424.042288767 l 1
 458.907949735 425.050490224 l 1
 459.682858334 426.058112328 l 1
 460.457316102 427.065148213 l 1
 461.231317734 428.07159098 l 1
 462.004857901 429.0774337 l 1
 462.777931246 430.082669408 l 1
 463.550532392 431.087291109 l 1
 464.32265593 432.091291774 l 1
 465.09429643 433.09466434 l 1
 465.865448434 434.097401709 l 1
 466.636106458 435.099496751 l 1
 467.406264991 436.100942299 l 1
 468.175918494 437.101731153 l 1
 469.088788128 438.288745504 l 1
 469.949589538 439.408054976 l 1
 470.810012712 440.526872624 l 1
 471.670050338 441.645188938 l 1
 472.529695046 442.762994337 l 1
 473.388939417 443.880279173 l 1
 474.247775975 444.997033723 l 1
 475.106197189 446.113248197 l 1
 475.964195473 447.228912729 l 1
 476.821763182 448.344017379 l 1
 477.678892617 449.458552135 l 1
 478.535576017 450.572506906 l 1
 479.391805565 451.685871526 l 1
 480.247573382 452.79863575 l 1
 481.102871527 453.910789254 l 1
 481.957692001 455.022321634 l 1
 482.812026738 456.133222403 l 1
 483.665867612 457.243480994 l 1
 484.519206429 458.353086753 l 1
 485.372034934 459.462028944 l 1
 486.224344801 460.570296743 l 1
 487.07612764 461.677879238 l 1
 487.927374992 462.784765429 l 1
 488.778078327 463.890944226 l 1
 489.628229046 464.996404448 l 1
 490.477818478 466.101134819 l 1
 491.326837882 467.205123971 l 1
 492.17527844 468.30836044 l 1
 493.023131262 469.410832665 l 1
 493.87038738 470.512528986 l 1
 494.717037752 471.613437644 l 1
 495.563073256 472.713546777 l 1
 496.408484691 473.812844423 l 1
 497.253262777 474.911318512 l 1
 498.097398151 476.008956872 l 1
 498.940881369 477.105747219 l 1
 499.7837029 478.201677164 l 1
 500.625853132 479.296734203 l 1
 501.467322362 480.390905724 l 1
 502.308100802 481.484178997 l 1
 503.148178574 482.576541176 l 1
 503.987545708 483.667979301 l 1
 504.826192145 484.758480287 l 1
 505.66410773 485.848030931 l 1
 506.501282213 486.936617907 l 1
 507.33770525 488.02422776 l 1
 508.173366396 489.110846912 l 1
 509.008255109 490.196461653 l 1
 509.842360744 491.281058141 l 1
 510.675672555 492.364622404 l 1
 511.508179691 493.447140331 l 1
 512.339871196 494.528597674 l 1
 513.170736004 495.608980047 l 1
 514.000762943 496.68827292 l 1
 514.829940727 497.766461619 l 1
 515.658257959 498.843531324 l 1
 516.485703126 499.919467063 l 1
 517.312264599 500.994253716 l 1
 518.13793063 502.067876006 l 1
 518.962689352 503.140318502 l 1
 519.786528774 504.211565612 l 1
 520.609436781 505.281601583 l 1
 521.431401132 506.350410495 l 1
 522.252409456 507.417976265 l 1
 523.072449252 508.484282637 l 1
 523.891507887 509.549313182 l 1
 524.70957259 510.613051296 l 1
 525.526630457 511.675480196 l 1
 526.342668439 512.736582918 l 1
 527.157673347 513.79634231 l 1
 527.971631849 514.854741036 l 1
 528.784530463 515.911761565 l 1
 529.596355558 516.967386173 l 1
 530.407093352 518.021596937 l 1
 531.216729906 519.074375733 l 1
 532.025251124 520.125704233 l 1
 532.832642751 521.175563897 l 1
 533.638890365 522.223935976 l 1
 534.443979381 523.270801502 l 1
 535.247895045 524.31614129 l 1
 536.050622427 525.359935927 l 1
 536.852146425 526.402165776 l 1
 537.652451758 527.442810965 l 1
 538.451522962 528.481851386 l 1
 539.249344388 529.519266691 l 1
 540.0459002 530.555036288 l 1
 540.841174368 531.589139332 l 1
 541.635150668 532.621554726 l 1
 542.427812676 533.652261114 l 1
 543.219143764 534.681236876 l 1
 544.0091271 535.708460122 l 1
 544.797745639 536.733908689 l 1
 545.584982122 537.757560135 l 1
 546.370819072 538.779391734 l 1
 547.155238788 539.799380468 l 1
 547.938223342 540.817503026 l 1
 548.719754575 541.833735794 l 1
 549.499814091 542.848054853 l 1
 550.278383254 543.860435968 l 1
 551.055443182 544.870854587 l 1
 551.830974742 545.879285832 l 1
 552.604958548 546.885704492 l 1
 553.377374951 547.89008502 l 1
 554.148204038 548.89240152 l 1
 555 550 l 1,0,0
 592 476 592 476 592 369 c 0,0,0
EndSplineSet
EndChar

StartChar: Ugrave
Encoding: 217 217 143
Width: 721
VWidth: 1000
Flags: W
LayerCount: 2
Fore
SplineSet
97 303 m 2,0,0
 97 136 97 136 168 61.5 c 0
 239 -13 239 -13 360 -13 c 0,0,0
 482 -13 482 -13 553 61.5 c 0
 624 136 624 136 624 303 c 2,0,0
 624 734 l 1,0,0
 535 734 l 1,0,0
 535 300 l 2,0,0
 535 68 535 68 360 68 c 0,0,0
 190 68 190 68 190 300 c 2,0,0
 190 734 l 1,0,0
 97 734 l 1,0,0
 97 303 l 2,0,0
210 907 m 1,0,0
 379 779 l 1,0,0
 419 825 l 1,0,0
 262 969 l 1,0,0
 210 907 l 1,0,0
EndSplineSet
EndChar

StartChar: Uacute
Encoding: 218 218 144
Width: 721
VWidth: 1000
Flags: W
LayerCount: 2
Fore
SplineSet
97 303 m 2,0,0
 97 136 97 136 168 61.5 c 0
 239 -13 239 -13 360 -13 c 0,0,0
 482 -13 482 -13 553 61.5 c 0
 624 136 624 136 624 303 c 2,0,0
 624 734 l 1,0,0
 535 734 l 1,0,0
 535 300 l 2,0,0
 535 68 535 68 360 68 c 0,0,0
 190 68 190 68 190 300 c 2,0,0
 190 734 l 1,0,0
 97 734 l 1,0,0
 97 303 l 2,0,0
300 825 m 1,0,0
 341 779 l 1,0,0
 510 907 l 1,0,0
 458 969 l 1,0,0
 300 825 l 1,0,0
EndSplineSet
EndChar

StartChar: Udieresis
Encoding: 220 220 145
Width: 721
VWidth: 1000
Flags: W
LayerCount: 2
Fore
SplineSet
97 303 m 2,0,0
 97 136 97 136 168 61.5 c 0
 239 -13 239 -13 360 -13 c 0,0,0
 482 -13 482 -13 553 61.5 c 0
 624 136 624 136 624 303 c 2,0,0
 624 734 l 1,0,0
 535 734 l 1,0,0
 535 300 l 2,0,0
 535 68 535 68 360 68 c 0,0,0
 190 68 190 68 190 300 c 2,0,0
 190 734 l 1,0,0
 97 734 l 1,0,0
 97 303 l 2,0,0
191 854 m 0,0,0
 191 830 191 830 206.5 815 c 0
 222 800 222 800 245 800 c 0,0,0
 269 800 269 800 284.5 815 c 0
 300 830 300 830 300 854 c 0,0,0
 300 878 300 878 284.5 893.5 c 0
 269 909 269 909 245 909 c 0,0,0
 222 909 222 909 206.5 893.5 c 0
 191 878 191 878 191 854 c 0,0,0
420 854 m 0,0,0
 420 830 420 830 435.5 815 c 0
 451 800 451 800 475 800 c 0,0,0
 498 800 498 800 513.5 815 c 0
 529 830 529 830 529 854 c 0,0,0
 529 878 529 878 513.5 893.5 c 0
 498 909 498 909 475 909 c 0,0,0
 451 909 451 909 435.5 893.5 c 0
 420 878 420 878 420 854 c 0,0,0
EndSplineSet
EndChar

StartChar: Thorn
Encoding: 222 222 146
Width: 652
VWidth: 1000
Flags: W
LayerCount: 2
Fore
SplineSet
100 734 m 1,0,0
 100 0 l 1,0,0
 193 0 l 1,0,0
 193 168 l 1,0,0
 325 168 l 2,0,0
 450 168 450 168 523 225 c 0
 596 282 596 282 596 394 c 0,0,0
 596 610 596 610 325 610 c 2,0,0
 193 610 l 1,0,0
 193 734 l 1,0,0
 100 734 l 1,0,0
313 243 m 2,0,0
 193 243 l 1,0,0
 193 535 l 1,0,0
 313 535 l 2,0,0
 412 535 412 535 457.5 503.5 c 0
 503 472 503 472 503 394 c 0,0,0
 503 316 503 316 456.5 279.5 c 0
 410 243 410 243 313 243 c 2,0,0
EndSplineSet
EndChar

StartChar: germandbls
Encoding: 223 223 147
Width: 642
VWidth: 1000
Flags: W
LayerCount: 2
Fore
SplineSet
275 42 m 1,0,0
 348 -13 348 -13 432 -13 c 0,0,0
 513 -13 513 -13 562 34 c 0
 611 81 611 81 611 152 c 0,0,0
 611 202 611 202 588 238 c 0
 565 274 565 274 532.5 293.5 c 0
 500 313 500 313 468 329 c 0
 436 345 436 345 413 366.5 c 0
 390 388 390 388 390 418 c 0,0,0
 390 443 390 443 406 470 c 0
 422 497 422 497 441 518 c 0
 460 539 460 539 476 573 c 0
 492 607 492 607 492 644 c 0,0,0
 492 714 492 714 443.5 760.5 c 0
 395 807 395 807 310 807 c 0,0,0
 207 807 207 807 149.5 744.5 c 0
 92 682 92 682 92 576 c 2,0,0
 92 0 l 1,0,0
 182 0 l 1,0,0
 182 559 l 2,0,0
 182 645 182 645 215.5 689 c 0
 249 733 249 733 309 733 c 0,0,0
 354 733 354 733 378.5 706 c 0
 403 679 403 679 403 635 c 0,0,0
 403 604 403 604 387.5 574 c 0
 372 544 372 544 353.5 523.5 c 0
 335 503 335 503 319.5 472 c 0
 304 441 304 441 304 408 c 0,0,0
 304 365 304 365 327 334 c 0
 350 303 350 303 382 285.5 c 0
 414 268 414 268 446.5 251.5 c 0
 479 235 479 235 502 209.5 c 0
 525 184 525 184 525 148 c 0,0,0
 525 110 525 110 500 84 c 0
 475 58 475 58 430 58 c 0,0,0
 370 58 370 58 311 105 c 1,0,0
 275 42 l 1,0,0
EndSplineSet
EndChar

StartChar: agrave
Encoding: 224 224 148
Width: 564
VWidth: 1000
Flags: W
LayerCount: 2
Fore
SplineSet
58 141 m 0,0,0
 58 69 58 69 102.5 28 c 0
 147 -13 147 -13 217 -13 c 0,0,0
 303 -13 303 -13 397 65 c 1,0,0
 400 65 l 1,0,0
 408 0 l 1,0,0
 483 0 l 1,0,0
 483 334 l 2,0,0
 483 439 483 439 437 498 c 0
 391 557 391 557 295 557 c 0,0,0
 192 557 192 557 81 486 c 1,0,0
 117 423 l 1,0,0
 203 481 203 481 280 481 c 0,0,0
 392 481 392 481 392 344 c 1,0,0
 217 324 217 324 137.5 276.5 c 0
 58 229 58 229 58 141 c 0,0,0
392 132 m 1,0,0
 311 60 311 60 243 60 c 0,0,0
 200 60 200 60 173.5 81.5 c 0
 147 103 147 103 147 147 c 0,0,0
 147 202 147 202 203 235 c 0
 259 268 259 268 392 284 c 1,0,0
 392 132 l 1,0,0
140 811 m 1,0,0
 315 641 l 1,0,0
 362 686 l 1,0,0
 204 872 l 1,0,0
 140 811 l 1,0,0
EndSplineSet
EndChar

StartChar: aacute
Encoding: 225 225 149
Width: 564
VWidth: 1000
Flags: W
LayerCount: 2
Fore
SplineSet
58 141 m 0,0,0
 58 69 58 69 102.5 28 c 0
 147 -13 147 -13 217 -13 c 0,0,0
 303 -13 303 -13 397 65 c 1,0,0
 400 65 l 1,0,0
 408 0 l 1,0,0
 483 0 l 1,0,0
 483 334 l 2,0,0
 483 439 483 439 437 498 c 0
 391 557 391 557 295 557 c 0,0,0
 192 557 192 557 81 486 c 1,0,0
 117 423 l 1,0,0
 203 481 203 481 280 481 c 0,0,0
 392 481 392 481 392 344 c 1,0,0
 217 324 217 324 137.5 276.5 c 0
 58 229 58 229 58 141 c 0,0,0
392 132 m 1,0,0
 311 60 311 60 243 60 c 0,0,0
 200 60 200 60 173.5 81.5 c 0
 147 103 147 103 147 147 c 0,0,0
 147 202 147 202 203 235 c 0
 259 268 259 268 392 284 c 1,0,0
 392 132 l 1,0,0
236 686 m 1,0,0
 283 641 l 1,0,0
 458 811 l 1,0,0
 394 872 l 1,0,0
 236 686 l 1,0,0
EndSplineSet
EndChar

StartChar: adieresis
Encoding: 228 228 150
Width: 564
VWidth: 1000
Flags: W
LayerCount: 2
Fore
SplineSet
58 141 m 0,0,0
 58 69 58 69 102.5 28 c 0
 147 -13 147 -13 217 -13 c 0,0,0
 303 -13 303 -13 397 65 c 1,0,0
 400 65 l 1,0,0
 408 0 l 1,0,0
 483 0 l 1,0,0
 483 334 l 2,0,0
 483 439 483 439 437 498 c 0
 391 557 391 557 295 557 c 0,0,0
 192 557 192 557 81 486 c 1,0,0
 117 423 l 1,0,0
 203 481 203 481 280 481 c 0,0,0
 392 481 392 481 392 344 c 1,0,0
 217 324 217 324 137.5 276.5 c 0
 58 229 58 229 58 141 c 0,0,0
392 132 m 1,0,0
 311 60 311 60 243 60 c 0,0,0
 200 60 200 60 173.5 81.5 c 0
 147 103 147 103 147 147 c 0,0,0
 147 202 147 202 203 235 c 0
 259 268 259 268 392 284 c 1,0,0
 392 132 l 1,0,0
136 711 m 0,0,0
 136 688 136 688 152 672 c 0
 168 656 168 656 191 656 c 0,0,0
 215 656 215 656 231 672 c 0
 247 688 247 688 247 711 c 0,0,0
 247 735 247 735 231 751 c 0
 215 767 215 767 191 767 c 0,0,0
 168 767 168 767 152 751 c 0
 136 735 136 735 136 711 c 0,0,0
351 711 m 0,0,0
 351 688 351 688 366.5 672 c 0
 382 656 382 656 406 656 c 0,0,0
 430 656 430 656 445.5 672 c 0
 461 688 461 688 461 711 c 0,0,0
 461 735 461 735 445.5 751 c 0
 430 767 430 767 406 767 c 0,0,0
 382 767 382 767 366.5 751 c 0
 351 735 351 735 351 711 c 0,0,0
EndSplineSet
EndChar

StartChar: aring
Encoding: 229 229 151
Width: 564
VWidth: 1000
Flags: W
LayerCount: 2
Fore
SplineSet
58 141 m 0,0,0
 58 69 58 69 102.5 28 c 0
 147 -13 147 -13 217 -13 c 0,0,0
 303 -13 303 -13 397 65 c 1,0,0
 400 65 l 1,0,0
 408 0 l 1,0,0
 483 0 l 1,0,0
 483 334 l 2,0,0
 483 439 483 439 437 498 c 0
 391 557 391 557 295 557 c 0,0,0
 192 557 192 557 81 486 c 1,0,0
 117 423 l 1,0,0
 203 481 203 481 280 481 c 0,0,0
 392 481 392 481 392 344 c 1,0,0
 217 324 217 324 137.5 276.5 c 0
 58 229 58 229 58 141 c 0,0,0
392 132 m 1,0,0
 311 60 311 60 243 60 c 0,0,0
 200 60 200 60 173.5 81.5 c 0
 147 103 147 103 147 147 c 0,0,0
 147 202 147 202 203 235 c 0
 259 268 259 268 392 284 c 1,0,0
 392 132 l 1,0,0
177 729 m 0,0,0
 177 680 177 680 210 649.5 c 0
 243 619 243 619 299 619 c 0,0,0
 355 619 355 619 388 649.5 c 0
 421 680 421 680 421 729 c 0,0,0
 421 778 421 778 388 808.5 c 0
 355 839 355 839 299 839 c 0,0,0
 243 839 243 839 210 808.5 c 0
 177 778 177 778 177 729 c 0,0,0
363 729 m 0,0,0
 363 698 363 698 344.5 679 c 0
 326 660 326 660 299 660 c 0,0,0
 271 660 271 660 253 679 c 0
 235 698 235 698 235 729 c 0,0,0
 235 760 235 760 253 779 c 0
 271 798 271 798 299 798 c 0,0,0
 326 798 326 798 344.5 779 c 0
 363 760 363 760 363 729 c 0,0,0
EndSplineSet
EndChar

StartChar: ae
Encoding: 230 230 152
Width: 877
VWidth: 1000
Flags: W
LayerCount: 2
Fore
SplineSet
65 140 m 0,0,0
 65 69 65 69 110 28 c 0
 155 -13 155 -13 225 -13 c 0,0,0
 334 -13 334 -13 446 88 c 1,0,0
 523 -13 523 -13 638 -13 c 0,0,0
 727 -13 727 -13 814 43 c 1,0,0
 809 52 809 52 802.5 64 c 0
 796 76 796 76 789.5 88.5 c 0
 783 101 783 101 780 106 c 1,0,0
 713 61 713 61 648 61 c 0,0,0
 577 61 577 61 529.5 113.5 c 0
 482 166 482 166 479 250 c 1,0,0
 831 250 l 1,0,0
 836 272 836 272 836 300 c 0,0,0
 836 418 836 418 781.5 487.5 c 0
 727 557 727 557 628 557 c 0,0,0
 517 557 517 557 450 440 c 1,0,0
 432 495 432 495 392.5 526 c 0
 353 557 353 557 294 557 c 0,0,0
 200 557 200 557 89 486 c 1,0,0
 125 423 l 1,0,0
 209 481 209 481 283 481 c 0,0,0
 393 481 393 481 395 344 c 1,0,0
 223 325 223 325 144 277 c 0
 65 229 65 229 65 140 c 0,0,0
415 144 m 1,0,0
 379 105 379 105 334 82.5 c 0
 289 60 289 60 250 60 c 0,0,0
 207 60 207 60 181 81.5 c 0
 155 103 155 103 155 147 c 0,0,0
 155 201 155 201 211 234.5 c 0
 267 268 267 268 394 284 c 1,0,0
 394 280 394 280 394.5 274.5 c 0
 395 269 395 269 395 263.5 c 0
 395 258 395 258 395 256 c 0,0,0
 395 187 395 187 415 144 c 1,0,0
755 310 m 1,0,0
 479 310 l 1,0,0
 486 389 486 389 527.5 436.5 c 0
 569 484 569 484 626 484 c 0,0,0
 688 484 688 484 721.5 439 c 0
 755 394 755 394 755 310 c 1,0,0
EndSplineSet
EndChar

StartChar: ccedilla
Encoding: 231 231 153
Width: 509
VWidth: 1000
Flags: W
LayerCount: 2
Fore
SplineSet
192 -208 m 1,0,0
 193 -215 193 -215 195 -223 c 0
 197 -231 197 -231 199 -240.5 c 0
 201 -250 201 -250 202 -253 c 0,0,0
 384 -244 384 -244 384 -150 c 0,0,0
 384 -118 384 -118 363.5 -100 c 0
 343 -82 343 -82 303 -72 c 1,0,0
 307 -63 307 -63 311.5 -52 c 0
 316 -41 316 -41 321.5 -28.5 c 0
 327 -16 327 -16 329 -12 c 0,0,0
 415 -4 415 -4 482 56 c 1,0,0
 476 65 476 65 468.5 76.5 c 0
 461 88 461 88 453 100 c 0
 445 112 445 112 442 117 c 1,0,0
 383 63 383 63 314 63 c 0,0,0
 239 63 239 63 192.5 120 c 0
 146 177 146 177 146 271 c 0,0,0
 146 364 146 364 194 422.5 c 0
 242 481 242 481 317 481 c 0,0,0
 370 481 370 481 425 433 c 1,0,0
 472 493 l 1,0,0
 399 557 399 557 313 557 c 0,0,0
 204 557 204 557 127.5 479.5 c 0
 51 402 51 402 51 271 c 0,0,0
 51 151 51 151 111.5 76.5 c 0
 172 2 172 2 269 -11 c 1,0,0
 228 -98 l 1,0,0
 275 -105 275 -105 294.5 -118 c 0
 314 -131 314 -131 314 -152 c 0,0,0
 314 -177 314 -177 287.5 -190 c 0
 261 -203 261 -203 192 -208 c 1,0,0
EndSplineSet
EndChar

StartChar: egrave
Encoding: 232 232 154
Width: 554
VWidth: 1000
Flags: W
LayerCount: 2
Fore
SplineSet
51 271 m 0,0,0
 51 141 51 141 125 64 c 0
 199 -13 199 -13 311 -13 c 0,0,0
 404 -13 404 -13 491 43 c 1,0,0
 458 103 l 1,0,0
 394 60 394 60 322 60 c 0,0,0
 245 60 245 60 195.5 111.5 c 0
 146 163 146 163 142 250 c 1,0,0
 508 250 l 1,0,0
 512 276 512 276 512 302 c 0,0,0
 512 420 512 420 455 488.5 c 0
 398 557 398 557 296 557 c 0,0,0
 197 557 197 557 124 477.5 c 0
 51 398 51 398 51 271 c 0,0,0
432 316 m 1,0,0
 141 316 l 1,0,0
 149 393 149 393 193 438.5 c 0
 237 484 237 484 297 484 c 0,0,0
 361 484 361 484 396.5 440.5 c 0
 432 397 432 397 432 316 c 1,0,0
136 811 m 1,0,0
 311 641 l 1,0,0
 357 686 l 1,0,0
 199 872 l 1,0,0
 136 811 l 1,0,0
EndSplineSet
EndChar

StartChar: eacute
Encoding: 233 233 155
Width: 554
VWidth: 1000
Flags: W
LayerCount: 2
Fore
SplineSet
51 271 m 0,0,0
 51 141 51 141 125 64 c 0
 199 -13 199 -13 311 -13 c 0,0,0
 404 -13 404 -13 491 43 c 1,0,0
 458 103 l 1,0,0
 394 60 394 60 322 60 c 0,0,0
 245 60 245 60 195.5 111.5 c 0
 146 163 146 163 142 250 c 1,0,0
 508 250 l 1,0,0
 512 276 512 276 512 302 c 0,0,0
 512 420 512 420 455 488.5 c 0
 398 557 398 557 296 557 c 0,0,0
 197 557 197 557 124 477.5 c 0
 51 398 51 398 51 271 c 0,0,0
432 316 m 1,0,0
 141 316 l 1,0,0
 149 393 149 393 193 438.5 c 0
 237 484 237 484 297 484 c 0,0,0
 361 484 361 484 396.5 440.5 c 0
 432 397 432 397 432 316 c 1,0,0
232 686 m 1,0,0
 279 641 l 1,0,0
 454 811 l 1,0,0
 390 872 l 1,0,0
 232 686 l 1,0,0
EndSplineSet
EndChar

StartChar: igrave
Encoding: 236 236 156
Width: 275
VWidth: 1000
Flags: W
LayerCount: 2
Fore
SplineSet
92 543 m 1,0,0
 92 0 l 1,0,0
 183 0 l 1,0,0
 183 543 l 1,0,0
 92 543 l 1,0,0
-21 811 m 1,0,0
 155 641 l 1,0,0
 201 686 l 1,0,0
 43 872 l 1,0,0
 -21 811 l 1,0,0
EndSplineSet
EndChar

StartChar: iacute
Encoding: 237 237 157
Width: 275
VWidth: 1000
Flags: W
LayerCount: 2
Fore
SplineSet
92 543 m 1,0,0
 92 0 l 1,0,0
 183 0 l 1,0,0
 183 543 l 1,0,0
 92 543 l 1,0,0
75 686 m 1,0,0
 122 641 l 1,0,0
 297 811 l 1,0,0
 233 872 l 1,0,0
 75 686 l 1,0,0
EndSplineSet
EndChar

StartChar: eth
Encoding: 240 240 158
Width: 608
VWidth: 1000
Flags: W
LayerCount: 2
Fore
SplineSet
303 63 m 0,0,0
 237 63 237 63 191 114.5 c 0
 145 166 145 166 145 249 c 0,0,0
 145 328 145 328 187 378 c 0
 229 428 229 428 303 428 c 0,0,0
 390 428 390 428 451 346 c 1,0,0
 454 316 454 316 454 283 c 0,0,0
 454 182 454 182 415 122.5 c 0
 376 63 376 63 303 63 c 0,0,0
60 249 m 0,0,0
 60 131 60 131 131 59 c 0
 202 -13 202 -13 301 -13 c 0,0,0
 409 -13 409 -13 475 70 c 0
 541 153 541 153 541 288 c 0,0,0
 541 523 541 523 390 676 c 1,0,0
 534 750 l 1,0,0
 508 796 l 1,0,0
 349 714 l 1,0,0
 286 767 286 767 194 816 c 1,0,0
 153 758 l 1,0,0
 229 716 229 716 278 677 c 1,0,0
 257 666 257 666 230.5 652.5 c 0
 204 639 204 639 175.5 624 c 0
 147 609 147 609 136 604 c 1,0,0
 162 559 l 1,0,0
 320 640 l 1,0,0
 410 553 410 553 439 427 c 1,0,0
 383 499 383 499 290 499 c 0,0,0
 190 499 190 499 125 430 c 0
 60 361 60 361 60 249 c 0,0,0
EndSplineSet
EndChar

StartChar: ograve
Encoding: 242 242 159
Width: 606
VWidth: 1000
Flags: W
LayerCount: 2
Fore
SplineSet
51 271 m 0,0,0
 51 141 51 141 124.5 64 c 0
 198 -13 198 -13 303 -13 c 0,0,0
 408 -13 408 -13 481.5 64 c 0
 555 141 555 141 555 271 c 0,0,0
 555 402 555 402 481.5 479.5 c 0
 408 557 408 557 303 557 c 0,0,0
 198 557 198 557 124.5 479.5 c 0
 51 402 51 402 51 271 c 0,0,0
461 271 m 0,0,0
 461 177 461 177 417.5 120 c 0
 374 63 374 63 303 63 c 0,0,0
 232 63 232 63 189 120 c 0
 146 177 146 177 146 271 c 0,0,0
 146 365 146 365 189.5 423 c 0
 233 481 233 481 303 481 c 0,0,0
 374 481 374 481 417.5 423 c 0
 461 365 461 365 461 271 c 0,0,0
144 811 m 1,0,0
 319 641 l 1,0,0
 366 686 l 1,0,0
 208 872 l 1,0,0
 144 811 l 1,0,0
EndSplineSet
EndChar

StartChar: oacute
Encoding: 243 243 160
Width: 606
VWidth: 1000
Flags: W
LayerCount: 2
Fore
SplineSet
51 271 m 0,0,0
 51 141 51 141 124.5 64 c 0
 198 -13 198 -13 303 -13 c 0,0,0
 408 -13 408 -13 481.5 64 c 0
 555 141 555 141 555 271 c 0,0,0
 555 402 555 402 481.5 479.5 c 0
 408 557 408 557 303 557 c 0,0,0
 198 557 198 557 124.5 479.5 c 0
 51 402 51 402 51 271 c 0,0,0
461 271 m 0,0,0
 461 177 461 177 417.5 120 c 0
 374 63 374 63 303 63 c 0,0,0
 232 63 232 63 189 120 c 0
 146 177 146 177 146 271 c 0,0,0
 146 365 146 365 189.5 423 c 0
 233 481 233 481 303 481 c 0,0,0
 374 481 374 481 417.5 423 c 0
 461 365 461 365 461 271 c 0,0,0
240 686 m 1,0,0
 287 641 l 1,0,0
 462 811 l 1,0,0
 398 872 l 1,0,0
 240 686 l 1,0,0
EndSplineSet
EndChar

StartChar: odieresis
Encoding: 246 246 161
Width: 606
VWidth: 1000
Flags: W
LayerCount: 2
Fore
SplineSet
51 271 m 0,0,0
 51 141 51 141 124.5 64 c 0
 198 -13 198 -13 303 -13 c 0,0,0
 408 -13 408 -13 481.5 64 c 0
 555 141 555 141 555 271 c 0,0,0
 555 402 555 402 481.5 479.5 c 0
 408 557 408 557 303 557 c 0,0,0
 198 557 198 557 124.5 479.5 c 0
 51 402 51 402 51 271 c 0,0,0
461 271 m 0,0,0
 461 177 461 177 417.5 120 c 0
 374 63 374 63 303 63 c 0,0,0
 232 63 232 63 189 120 c 0
 146 177 146 177 146 271 c 0,0,0
 146 365 146 365 189.5 423 c 0
 233 481 233 481 303 481 c 0,0,0
 374 481 374 481 417.5 423 c 0
 461 365 461 365 461 271 c 0,0,0
140 711 m 0,0,0
 140 688 140 688 156 672 c 0
 172 656 172 656 196 656 c 0,0,0
 220 656 220 656 235.5 672 c 0
 251 688 251 688 251 711 c 0,0,0
 251 735 251 735 235.5 751 c 0
 220 767 220 767 196 767 c 0,0,0
 172 767 172 767 156 751 c 0
 140 735 140 735 140 711 c 0,0,0
355 711 m 0,0,0
 355 688 355 688 370.5 672 c 0
 386 656 386 656 410 656 c 0,0,0
 434 656 434 656 449.5 672 c 0
 465 688 465 688 465 711 c 0,0,0
 465 735 465 735 449.5 751 c 0
 434 767 434 767 410 767 c 0,0,0
 386 767 386 767 370.5 751 c 0
 355 735 355 735 355 711 c 0,0,0
EndSplineSet
EndChar

StartChar: ugrave
Encoding: 249 249 162
Width: 607
VWidth: 1000
Flags: W
LayerCount: 2
Fore
SplineSet
85 199 m 2,0,0
 85 -13 85 -13 250 -13 c 0,0,0
 345 -13 345 -13 430 85 c 1,0,0
 433 85 l 1,0,0
 440 0 l 1,0,0
 516 0 l 1,0,0
 516 543 l 1,0,0
 425 543 l 1,0,0
 425 158 l 1,0,0
 385 108 385 108 352 87 c 0
 319 66 319 66 278 66 c 0,0,0
 224 66 224 66 200 100 c 0
 176 134 176 134 176 210 c 2,0,0
 176 543 l 1,0,0
 85 543 l 1,0,0
 85 199 l 2,0,0
144 811 m 1,0,0
 319 641 l 1,0,0
 366 686 l 1,0,0
 208 872 l 1,0,0
 144 811 l 1,0,0
EndSplineSet
EndChar

StartChar: udieresis
Encoding: 252 252 163
Width: 607
VWidth: 1000
Flags: W
LayerCount: 2
Fore
SplineSet
85 199 m 2,0,0
 85 -13 85 -13 250 -13 c 0,0,0
 345 -13 345 -13 430 85 c 1,0,0
 433 85 l 1,0,0
 440 0 l 1,0,0
 516 0 l 1,0,0
 516 543 l 1,0,0
 425 543 l 1,0,0
 425 158 l 1,0,0
 385 108 385 108 352 87 c 0
 319 66 319 66 278 66 c 0,0,0
 224 66 224 66 200 100 c 0
 176 134 176 134 176 210 c 2,0,0
 176 543 l 1,0,0
 85 543 l 1,0,0
 85 199 l 2,0,0
140 711 m 0,0,0
 140 688 140 688 156 672 c 0
 172 656 172 656 195 656 c 0,0,0
 219 656 219 656 235 672 c 0
 251 688 251 688 251 711 c 0,0,0
 251 735 251 735 235 751 c 0
 219 767 219 767 195 767 c 0,0,0
 172 767 172 767 156 751 c 0
 140 735 140 735 140 711 c 0,0,0
355 711 m 0,0,0
 355 688 355 688 371 672 c 0
 387 656 387 656 411 656 c 0,0,0
 434 656 434 656 450 672 c 0
 466 688 466 688 466 711 c 0,0,0
 466 735 466 735 450 751 c 0
 434 767 434 767 411 767 c 0,0,0
 387 767 387 767 371 751 c 0
 355 735 355 735 355 711 c 0,0,0
EndSplineSet
EndChar

StartChar: thorn
Encoding: 254 254 164
Width: 620
VWidth: 1000
Flags: W
LayerCount: 2
Fore
SplineSet
92 796 m 1,0,0
 92 -229 l 1,0,0
 183 -229 l 1,0,0
 183 -45 l 1,0,0
 182 47 l 1,0,0
 258 -13 258 -13 331 -13 c 0,0,0
 429 -13 429 -13 498 66.5 c 0
 567 146 567 146 567 280 c 0,0,0
 567 408 567 408 509.5 482.5 c 0
 452 557 452 557 347 557 c 0,0,0
 272 557 272 557 182 486 c 1,0,0
 182 500 182 500 182.5 517.5 c 0
 183 535 183 535 183 554 c 0
 183 573 183 573 183 580 c 2,0,0
 183 796 l 1,0,0
 92 796 l 1,0,0
472 279 m 0,0,0
 472 180 472 180 428.5 121.5 c 0
 385 63 385 63 316 63 c 0,0,0
 250 63 250 63 183 120 c 1,0,0
 183 405 l 1,0,0
 264 480 264 480 329 480 c 0,0,0
 472 480 472 480 472 279 c 0,0,0
EndSplineSet
EndChar

StartChar: Emacron
Encoding: 274 274 165
Width: 588
VWidth: 1000
Flags: W
LayerCount: 2
Fore
SplineSet
100 734 m 1,0,0
 100 0 l 1,0,0
 534 0 l 1,0,0
 534 79 l 1,0,0
 193 79 l 1,0,0
 193 346 l 1,0,0
 471 346 l 1,0,0
 471 425 l 1,0,0
 193 425 l 1,0,0
 193 655 l 1,0,0
 523 655 l 1,0,0
 523 734 l 1,0,0
 100 734 l 1,0,0
175 885 m 1,0,0
 175 822 l 1,0,0
 474 822 l 1,0,0
 474 885 l 1,0,0
 175 885 l 1,0,0
EndSplineSet
EndChar

